<svg width="85" height="98" viewBox="0 0 85 98" fill="none" xmlns="http://www.w3.org/2000/svg">
<g id="academicons:africarxiv">
<path id="Vector" d="M31.6541 1.5197C29.7815 1.48688 27.9544 1.88057 26.1599 2.97115L26.1616 2.96622C25.2769 3.50449 24.3459 4.28429 23.463 4.47288C20.5744 5.09179 18.1382 6.73771 15.3884 7.612C14.0804 8.02694 13.4512 8.82761 13.4905 10.1836C12.954 11.1556 12.107 11.7641 11.1229 12.2289C10.251 12.6391 9.42038 13.1078 9.16083 14.1424C9.15666 14.1458 9.15229 14.1488 9.14812 14.1524C8.12281 15.3474 7.04456 16.501 5.99894 18.2873L38.0576 7.76644C36.6707 6.44799 35.2306 5.33218 36.8335 3.30907C35.3959 3.40678 34.3795 4.24065 33.1684 4.05338C33.8556 3.03073 35.3262 3.24721 36.1119 2.24258C34.5946 1.82859 33.1105 1.54513 31.6541 1.5197ZM48.8581 7.90343C47.5072 7.98729 46.2076 8.09392 45.0864 9.06421C43.7545 10.2094 42.2575 10.5348 40.7472 9.26115C39.6073 8.29921 38.4965 8.48135 37.2038 9.10709C34.2189 10.5557 31.1572 11.85 28.1297 13.2061C21.1066 16.3668 14.0851 19.5309 7.06505 22.6984C4.8209 23.4322 4.72148 23.6362 5.23755 25.8716C5.61474 27.5037 6.29531 29.2217 4.38034 30.4389C4.17048 30.5339 3.9929 30.6881 3.86932 30.8826C3.74575 31.077 3.68155 31.3033 3.68459 31.5336C3.68269 31.5348 3.68099 31.5353 3.67909 31.5361C3.18199 33.2729 3.59883 34.9613 3.91436 36.6672C4.1149 37.7472 4.61713 37.706 5.44682 37.3117C7.32403 36.4169 9.22876 35.5785 11.1316 34.7403C17.148 32.0954 23.1655 29.4524 29.184 26.8114C29.3527 26.8182 29.5216 26.8028 29.6862 26.7655C29.4908 26.8687 29.3102 26.9912 29.2115 27.2212L23.0397 30.8384L13.7461 35.5732C11.0836 36.0327 8.77435 37.4711 6.25072 38.2871C4.68884 38.7911 4.99925 39.3348 6.06383 40.0359C7.05993 41.236 8.52751 41.5325 9.90401 41.9989C9.90591 41.9977 9.90781 41.997 9.9097 41.9956C10.9764 42.4958 12.0366 43.0126 13.1152 43.4885C14.1182 43.9343 15.0505 44.0884 15.6609 42.8164C16.0039 42.0947 16.6279 41.9899 17.3753 42.333C18.5399 42.8756 19.7727 42.8917 21.0193 42.6764L21.0181 42.6775C21.0208 42.6777 21.0235 42.6775 21.0257 42.6779L21.032 42.683L21.0407 42.6791C21.5132 42.7202 21.9797 42.7263 22.3897 42.426C22.9538 42.426 23.5228 42.3814 24.08 42.4379C26.7338 42.7088 29.4973 41.8069 32.0533 43.2196C32.5387 43.4869 32.9912 42.9574 33.4249 42.7364C38.0305 40.3792 42.6307 38.0115 47.2255 35.6334C53.3286 32.4882 59.4298 29.3435 65.5284 26.1993C66.0513 25.9286 67.2426 25.8104 66.2038 24.7526V24.7439C65.4915 23.3093 64.8533 21.8474 64.6006 20.2491C64.6025 20.2472 64.604 20.2453 64.6055 20.2434C64.5249 19.0521 64.1186 17.9602 63.6043 16.8939C63.1584 15.9801 62.6564 15.7261 61.6157 16.189C59.2071 17.2622 56.7364 18.2414 54.2677 19.1242C51.799 20.0072 49.5068 21.394 46.853 21.7539C46.8504 21.7535 46.8477 21.7535 46.8451 21.7529L46.8464 21.7522C46.8223 21.3458 47.189 21.3921 47.4103 21.2687L60.5054 13.9775C60.5534 12.7551 60.1145 11.6561 59.6482 10.5658C59.6473 10.5664 59.6464 10.5668 59.6453 10.5671L59.6459 10.5658C59.0185 8.97655 57.918 8.51171 56.3271 9.14769C55.2485 9.59457 54.0991 9.84658 52.9324 9.89201V9.88841L52.9241 9.89144L52.0171 9.81821C50.7416 9.54556 49.9394 8.49463 48.8575 7.90324L48.8581 7.90343ZM68.1313 28.5856C67.8347 28.6034 67.4995 28.7279 67.1041 28.9354C62.2763 31.4676 57.4057 33.917 52.549 36.391C46.8418 39.3052 41.126 42.189 35.4395 45.1342C35.0813 45.3177 34.0753 45.2784 34.5553 46.1749C35.1822 47.3417 34.9923 48.5752 35.0245 49.7986C35.024 49.7986 35.0234 49.7991 35.0228 49.7993V49.8043C35.0092 50.4038 34.9968 51.0026 34.9855 51.601C35.119 52.5611 35.4709 53.4779 36.014 54.2808L36.0201 54.2821L36.0157 54.284L36.7099 55.2082L38.3369 57.2448C38.6147 59.1391 39.5796 59.1596 41.2085 58.6025C47.1128 56.5796 53.0755 54.7212 59.0158 52.8011L59.3586 53.1544C59.3602 53.1541 59.3618 53.1539 59.3634 53.1536L52.8888 56.2178C51.8103 56.5058 50.8315 57.0099 49.8627 57.5567C49.7208 57.5409 49.5772 57.5645 49.4478 57.625C49.3184 57.6855 49.2081 57.7805 49.1292 57.8996C46.5574 58.8563 44.0518 59.9822 41.6287 61.27C41.5888 61.2512 41.5432 61.2486 41.5013 61.2626C41.4595 61.2766 41.4247 61.3062 41.4041 61.3453C40.882 61.4022 40.3914 61.6238 40.0035 61.9779C39.1034 62.1801 38.0918 62.4734 38.1398 63.5466C38.2597 66.2294 37.3288 68.6688 36.6363 71.1715L36.6346 71.1721C36.4216 71.5431 36.3277 71.9706 36.3654 72.3968C36.4031 72.8229 36.5707 73.2273 36.8456 73.5551C37.3736 74.1877 38.0747 73.4418 38.6541 73.2311C47.4483 70.0425 56.2351 66.8338 65.0146 63.6048C66.1752 63.1796 67.6646 62.991 68.3692 62.1596C69.127 61.2629 68.1017 59.8177 68.1806 58.5885C68.2797 58.061 68.3804 57.5336 68.4795 57.0042C68.4798 57.0035 68.48 57.0031 68.481 57.0027C69.009 55.3793 70.3016 54.1842 70.9617 52.6345L73.9722 48.4517C74.6116 47.0803 76.1801 46.6481 77.0132 45.4704L76.9743 45.4837L77.0047 45.467C78.7961 44.3681 79.5623 42.5062 80.824 40.569L72.6777 43.0718C72.2162 43.1022 71.762 43.1699 71.3118 43.257C71.5508 43.1191 71.7603 42.9357 71.9286 42.717C72.4293 42.477 72.9349 42.2423 73.432 41.9937C76.0551 40.684 78.9335 39.9209 81.4021 38.282C81.3356 38.2697 81.2752 38.2353 81.2308 38.1843C81.2873 38.215 81.3439 38.246 81.4021 38.282C81.6404 37.5671 81.5512 36.84 81.416 36.132L81.4209 36.1424C81.2289 35.1395 80.7883 34.6251 79.7067 35.3486C79.0231 35.8383 78.2348 36.1618 77.4043 36.2934C77.4021 36.2948 77.4 36.2961 77.3978 36.2974C77.3979 36.2948 77.3985 36.2923 77.3993 36.2898C75.8959 36.1766 74.3443 36.206 73.3123 34.7951H73.3172C72.8338 34.1316 72.3196 34.6097 71.8294 34.8052C68.04 36.3278 64.2518 37.853 60.4646 39.3809C60.1804 39.4073 59.9087 39.472 59.6425 39.5561C59.8051 39.3986 59.9478 39.2214 60.0447 38.9986C62.7834 37.5784 65.5194 36.1532 68.2529 34.723C69.4444 34.099 71.392 33.6499 71.6184 32.7688C71.9132 31.6268 70.0633 30.6889 69.3896 29.4889C69.0126 28.8214 68.6259 28.5558 68.1317 28.5856H68.1313ZM68.6273 63.8145C68.4624 63.8035 68.2504 63.8511 67.9784 63.963C58.4104 67.9121 48.8333 71.8392 39.2472 75.7442C38.5152 76.0495 38.3574 76.3169 38.7331 77.0781C39.6483 78.9293 40.49 80.82 40.9616 82.8478C40.9605 82.848 40.9594 82.8482 40.9582 82.8484H40.9616V82.8507C41.0182 83.4077 41.1537 83.972 41.1176 84.5241C41.0318 85.8014 41.2633 86.1937 42.652 85.5765C49.0053 82.7476 55.4274 80.0768 61.7791 77.2464C64.4827 76.0412 66.3239 73.9001 67.4536 71.1571C67.4514 71.1573 67.4493 71.1575 67.4471 71.1577C67.4486 71.1571 67.4492 71.1563 67.4507 71.1548C69.0896 69.2793 69.3452 67.0371 69.1651 64.6815C69.1238 64.1465 68.9902 63.8382 68.6276 63.8143L68.6273 63.8145ZM79.1756 67.3201C78.4119 67.3258 77.9124 68.1151 77.5583 68.8215C77.2419 69.4508 77.0127 70.1246 76.7444 70.7795L76.7421 70.7816C76.2725 71.7502 75.8968 72.6158 74.4071 72.3792C73.3596 72.2128 71.9229 73.0444 72.024 74.0368C72.2331 76.1095 70.8464 77.884 71.2716 79.907C71.4351 80.0571 71.5943 80.1138 71.751 80.118C71.5618 80.2326 71.3852 80.3697 71.2355 80.5551C70.9714 81.5614 70.6834 82.5644 70.9629 83.6185C70.9644 83.6185 70.9657 83.6179 70.968 83.6179C71.7842 85.4158 72.3972 85.6447 74.161 85.1411C76.2974 84.5283 76.2886 82.7086 76.6421 81.0662C76.9658 80.225 77.2037 79.375 77.1062 78.3728L74.0202 79.3087L74.0183 79.3173C73.7756 79.4084 73.4984 79.3393 73.255 79.4402C73.4125 79.3148 73.5523 79.1678 73.6582 78.9796C74.1828 78.6726 74.6814 78.3009 75.2387 78.0677C79.101 76.4614 79.727 73.0755 80.0167 69.496C80.0338 68.7295 80.5652 67.6598 79.5196 67.3683C79.4077 67.3363 79.2919 67.3202 79.1756 67.3205V67.3201ZM61.7671 78.5472C55.2678 81.9022 49.0587 85.1768 42.7738 88.2986C41.1588 89.1027 40.8742 89.977 41.7056 91.4258C42.0585 92.735 42.9768 93.559 44.104 94.2069V94.2084L44.1051 94.208C44.1053 94.208 44.1057 94.208 44.1059 94.2084L44.1093 94.209C44.5273 94.77 45.1164 94.9888 45.7808 95.0605C48.1347 96.4491 50.9444 95.1958 52.2388 92.1785C53.8847 91.2459 55.5202 90.2756 57.1798 89.3602C58.2455 88.7724 58.9964 88.0457 58.7437 86.7079C58.7443 86.7074 58.7443 86.7064 58.7451 86.7058C59.0623 85.8264 60.1973 85.6069 60.4132 84.6486C60.2197 82.5794 61.9644 80.8769 61.769 78.5506L61.7671 78.5472Z" fill="url(#paint0_linear_77_168)"/>
</g>
<defs>
<linearGradient id="paint0_linear_77_168" x1="42.4998" y1="1.51782" x2="42.4998" y2="95.625" gradientUnits="userSpaceOnUse">
<stop stop-color="#002695"/>
<stop offset="1" stop-color="#006FAC" stop-opacity="0.71"/>
</linearGradient>
</defs>
</svg>
