<svg width="60" height="51" viewBox="0 0 60 51" fill="none" xmlns="http://www.w3.org/2000/svg">
<g id="noun-network-protection-749461 1">
<g id="Group">
<g id="Vector">
<mask id="path-1-outside-1_77_563" maskUnits="userSpaceOnUse" x="8.40793" y="18.6402" width="44" height="30" fill="black">
<rect fill="white" x="8.40793" y="18.6402" width="44" height="30"/>
<path d="M50.0726 20.4243H40.3643V20.0136V19.9389C40.3643 19.7895 40.2523 19.6402 40.1029 19.6402C39.9535 19.6402 39.8042 19.7522 39.8042 19.9016V20.0509V20.4617H20.7614C19.8279 20.4617 19.0811 21.2084 19.0811 22.142V26.0253H18.633C18.4837 26.0253 18.3717 26.1373 18.3717 26.2867C18.3717 26.436 18.4837 26.548 18.633 26.548H19.0811V30.0207C18.4837 29.6099 18.185 29.3112 18.185 29.3112L17.9983 29.0872L17.8116 29.3112C17.7742 29.3486 15.1605 32.1116 9.67155 31.9997H9.41017V32.261C9.41017 32.3731 9.03678 42.6043 17.9236 47.1593L18.0356 47.234L18.1476 47.1593C20.2386 46.0764 21.9936 44.6202 23.3378 42.7905H31.3657L30.5443 45.703H29.6107C28.6772 45.703 27.9304 46.4498 27.9304 47.3833C27.9304 47.5327 28.0424 47.6447 28.1918 47.6447H42.6053C42.7546 47.6447 42.8667 47.5327 42.8667 47.3833C42.8667 46.4498 42.1199 45.703 41.1863 45.703H40.3276L39.5061 42.7905H51.791V22.104C51.7537 21.1705 51.0069 20.4237 50.0734 20.4237L50.0726 20.4243ZM22.9645 42.3057C21.6576 44.098 20.0147 45.5169 17.9983 46.5624C10.3436 42.5298 9.93293 34.1281 9.89554 32.5228H9.97022C14.675 32.5228 17.2514 30.5064 17.9982 29.8717C18.1849 30.0584 18.5583 30.3571 19.0811 30.6932L19.2304 30.7678C20.5747 31.5893 22.8524 32.5601 26.1009 32.5228C26.1009 33.2695 25.9889 35.5099 25.1301 38.0864C24.9807 38.4598 24.8687 38.8705 24.682 39.2066C24.2339 40.3268 23.6739 41.3723 22.9644 42.3057H22.9645ZM41.2237 46.189C41.7465 46.189 42.1946 46.5624 42.3066 47.0478H28.4906C28.6026 46.5624 29.0506 46.189 29.5734 46.189H41.2237ZM39.7301 45.6663H31.1049L31.9264 42.7538H38.8715L39.7301 45.6663ZM51.2307 42.1937H23.7113C23.7859 42.0816 23.8606 41.9696 23.898 41.8576C23.9726 41.7082 24.0847 41.5962 24.1593 41.4469C24.2714 41.2602 24.3834 41.0361 24.4954 40.8494C24.5701 40.7001 24.6448 40.5881 24.7194 40.4387C24.8314 40.2147 24.9435 39.9533 25.0555 39.7292C25.0928 39.6172 25.1675 39.5052 25.2048 39.3559C25.3169 39.0571 25.4662 38.7584 25.5409 38.4223H51.1554V42.1937H51.2307ZM51.2307 37.8997H25.7647C26.7356 34.8378 26.6609 32.336 26.6609 32.224V31.9627H26.3995H25.8021H25.6527H25.242H25.0553C24.9433 31.9627 24.7939 31.9627 24.6819 31.9253C24.6072 31.9253 24.5699 31.9253 24.4952 31.888C24.3832 31.888 24.2711 31.8506 24.1591 31.8506C24.0844 31.8506 24.0471 31.8506 23.9724 31.8133C23.8604 31.8133 23.7484 31.776 23.6737 31.776C23.599 31.776 23.5617 31.7386 23.487 31.7386C23.375 31.7386 23.3003 31.7013 23.1883 31.7013C23.1136 31.7013 23.0763 31.6639 23.0016 31.6639C22.9269 31.6266 22.8149 31.6266 22.7402 31.5893C22.6655 31.5893 22.6282 31.5519 22.5535 31.5519C22.4788 31.5146 22.4042 31.5146 22.2921 31.4772C22.2175 31.4772 22.1801 31.4399 22.1054 31.4399C22.0308 31.4026 21.9561 31.4026 21.8814 31.3652C21.8067 31.3279 21.7694 31.3279 21.6947 31.2906C21.62 31.2532 21.5454 31.2532 21.4707 31.2159C21.396 31.1785 21.3587 31.1785 21.284 31.1412C21.2093 31.1039 21.1346 31.1039 21.0973 31.0665C21.0226 31.0292 20.9853 31.0292 20.9479 30.9918C20.8732 30.9545 20.8359 30.9545 20.7612 30.9172C20.7239 30.8798 20.6492 30.8798 20.6119 30.8425C20.5372 30.8051 20.4998 30.8051 20.4625 30.7678C20.4252 30.7305 20.3505 30.7305 20.3132 30.6931C20.2758 30.6558 20.2011 30.6558 20.1638 30.6184C20.1265 30.5811 20.0518 30.5811 20.0144 30.5438C19.9771 30.5064 19.9024 30.5064 19.8651 30.4691C19.8277 30.4317 19.7904 30.4317 19.7531 30.3944C19.7157 30.3944 19.7157 30.3571 19.6784 30.3571V22.105C19.6784 21.5075 20.1638 20.9848 20.7986 20.9848H50.1103C50.7451 20.9848 51.2305 21.4702 51.2305 22.105L51.2307 37.8997Z"/>
</mask>
<path d="M50.0726 20.4243H40.3643V20.0136V19.9389C40.3643 19.7895 40.2523 19.6402 40.1029 19.6402C39.9535 19.6402 39.8042 19.7522 39.8042 19.9016V20.0509V20.4617H20.7614C19.8279 20.4617 19.0811 21.2084 19.0811 22.142V26.0253H18.633C18.4837 26.0253 18.3717 26.1373 18.3717 26.2867C18.3717 26.436 18.4837 26.548 18.633 26.548H19.0811V30.0207C18.4837 29.6099 18.185 29.3112 18.185 29.3112L17.9983 29.0872L17.8116 29.3112C17.7742 29.3486 15.1605 32.1116 9.67155 31.9997H9.41017V32.261C9.41017 32.3731 9.03678 42.6043 17.9236 47.1593L18.0356 47.234L18.1476 47.1593C20.2386 46.0764 21.9936 44.6202 23.3378 42.7905H31.3657L30.5443 45.703H29.6107C28.6772 45.703 27.9304 46.4498 27.9304 47.3833C27.9304 47.5327 28.0424 47.6447 28.1918 47.6447H42.6053C42.7546 47.6447 42.8667 47.5327 42.8667 47.3833C42.8667 46.4498 42.1199 45.703 41.1863 45.703H40.3276L39.5061 42.7905H51.791V22.104C51.7537 21.1705 51.0069 20.4237 50.0734 20.4237L50.0726 20.4243ZM22.9645 42.3057C21.6576 44.098 20.0147 45.5169 17.9983 46.5624C10.3436 42.5298 9.93293 34.1281 9.89554 32.5228H9.97022C14.675 32.5228 17.2514 30.5064 17.9982 29.8717C18.1849 30.0584 18.5583 30.3571 19.0811 30.6932L19.2304 30.7678C20.5747 31.5893 22.8524 32.5601 26.1009 32.5228C26.1009 33.2695 25.9889 35.5099 25.1301 38.0864C24.9807 38.4598 24.8687 38.8705 24.682 39.2066C24.2339 40.3268 23.6739 41.3723 22.9644 42.3057H22.9645ZM41.2237 46.189C41.7465 46.189 42.1946 46.5624 42.3066 47.0478H28.4906C28.6026 46.5624 29.0506 46.189 29.5734 46.189H41.2237ZM39.7301 45.6663H31.1049L31.9264 42.7538H38.8715L39.7301 45.6663ZM51.2307 42.1937H23.7113C23.7859 42.0816 23.8606 41.9696 23.898 41.8576C23.9726 41.7082 24.0847 41.5962 24.1593 41.4469C24.2714 41.2602 24.3834 41.0361 24.4954 40.8494C24.5701 40.7001 24.6448 40.5881 24.7194 40.4387C24.8314 40.2147 24.9435 39.9533 25.0555 39.7292C25.0928 39.6172 25.1675 39.5052 25.2048 39.3559C25.3169 39.0571 25.4662 38.7584 25.5409 38.4223H51.1554V42.1937H51.2307ZM51.2307 37.8997H25.7647C26.7356 34.8378 26.6609 32.336 26.6609 32.224V31.9627H26.3995H25.8021H25.6527H25.242H25.0553C24.9433 31.9627 24.7939 31.9627 24.6819 31.9253C24.6072 31.9253 24.5699 31.9253 24.4952 31.888C24.3832 31.888 24.2711 31.8506 24.1591 31.8506C24.0844 31.8506 24.0471 31.8506 23.9724 31.8133C23.8604 31.8133 23.7484 31.776 23.6737 31.776C23.599 31.776 23.5617 31.7386 23.487 31.7386C23.375 31.7386 23.3003 31.7013 23.1883 31.7013C23.1136 31.7013 23.0763 31.6639 23.0016 31.6639C22.9269 31.6266 22.8149 31.6266 22.7402 31.5893C22.6655 31.5893 22.6282 31.5519 22.5535 31.5519C22.4788 31.5146 22.4042 31.5146 22.2921 31.4772C22.2175 31.4772 22.1801 31.4399 22.1054 31.4399C22.0308 31.4026 21.9561 31.4026 21.8814 31.3652C21.8067 31.3279 21.7694 31.3279 21.6947 31.2906C21.62 31.2532 21.5454 31.2532 21.4707 31.2159C21.396 31.1785 21.3587 31.1785 21.284 31.1412C21.2093 31.1039 21.1346 31.1039 21.0973 31.0665C21.0226 31.0292 20.9853 31.0292 20.9479 30.9918C20.8732 30.9545 20.8359 30.9545 20.7612 30.9172C20.7239 30.8798 20.6492 30.8798 20.6119 30.8425C20.5372 30.8051 20.4998 30.8051 20.4625 30.7678C20.4252 30.7305 20.3505 30.7305 20.3132 30.6931C20.2758 30.6558 20.2011 30.6558 20.1638 30.6184C20.1265 30.5811 20.0518 30.5811 20.0144 30.5438C19.9771 30.5064 19.9024 30.5064 19.8651 30.4691C19.8277 30.4317 19.7904 30.4317 19.7531 30.3944C19.7157 30.3944 19.7157 30.3571 19.6784 30.3571V22.105C19.6784 21.5075 20.1638 20.9848 20.7986 20.9848H50.1103C50.7451 20.9848 51.2305 21.4702 51.2305 22.105L51.2307 37.8997Z" fill="#002695"/>
<path d="M50.0726 20.4243H40.3643V20.0136V19.9389C40.3643 19.7895 40.2523 19.6402 40.1029 19.6402C39.9535 19.6402 39.8042 19.7522 39.8042 19.9016V20.0509V20.4617H20.7614C19.8279 20.4617 19.0811 21.2084 19.0811 22.142V26.0253H18.633C18.4837 26.0253 18.3717 26.1373 18.3717 26.2867C18.3717 26.436 18.4837 26.548 18.633 26.548H19.0811V30.0207C18.4837 29.6099 18.185 29.3112 18.185 29.3112L17.9983 29.0872L17.8116 29.3112C17.7742 29.3486 15.1605 32.1116 9.67155 31.9997H9.41017V32.261C9.41017 32.3731 9.03678 42.6043 17.9236 47.1593L18.0356 47.234L18.1476 47.1593C20.2386 46.0764 21.9936 44.6202 23.3378 42.7905H31.3657L30.5443 45.703H29.6107C28.6772 45.703 27.9304 46.4498 27.9304 47.3833C27.9304 47.5327 28.0424 47.6447 28.1918 47.6447H42.6053C42.7546 47.6447 42.8667 47.5327 42.8667 47.3833C42.8667 46.4498 42.1199 45.703 41.1863 45.703H40.3276L39.5061 42.7905H51.791V22.104C51.7537 21.1705 51.0069 20.4237 50.0734 20.4237L50.0726 20.4243ZM22.9645 42.3057C21.6576 44.098 20.0147 45.5169 17.9983 46.5624C10.3436 42.5298 9.93293 34.1281 9.89554 32.5228H9.97022C14.675 32.5228 17.2514 30.5064 17.9982 29.8717C18.1849 30.0584 18.5583 30.3571 19.0811 30.6932L19.2304 30.7678C20.5747 31.5893 22.8524 32.5601 26.1009 32.5228C26.1009 33.2695 25.9889 35.5099 25.1301 38.0864C24.9807 38.4598 24.8687 38.8705 24.682 39.2066C24.2339 40.3268 23.6739 41.3723 22.9644 42.3057H22.9645ZM41.2237 46.189C41.7465 46.189 42.1946 46.5624 42.3066 47.0478H28.4906C28.6026 46.5624 29.0506 46.189 29.5734 46.189H41.2237ZM39.7301 45.6663H31.1049L31.9264 42.7538H38.8715L39.7301 45.6663ZM51.2307 42.1937H23.7113C23.7859 42.0816 23.8606 41.9696 23.898 41.8576C23.9726 41.7082 24.0847 41.5962 24.1593 41.4469C24.2714 41.2602 24.3834 41.0361 24.4954 40.8494C24.5701 40.7001 24.6448 40.5881 24.7194 40.4387C24.8314 40.2147 24.9435 39.9533 25.0555 39.7292C25.0928 39.6172 25.1675 39.5052 25.2048 39.3559C25.3169 39.0571 25.4662 38.7584 25.5409 38.4223H51.1554V42.1937H51.2307ZM51.2307 37.8997H25.7647C26.7356 34.8378 26.6609 32.336 26.6609 32.224V31.9627H26.3995H25.8021H25.6527H25.242H25.0553C24.9433 31.9627 24.7939 31.9627 24.6819 31.9253C24.6072 31.9253 24.5699 31.9253 24.4952 31.888C24.3832 31.888 24.2711 31.8506 24.1591 31.8506C24.0844 31.8506 24.0471 31.8506 23.9724 31.8133C23.8604 31.8133 23.7484 31.776 23.6737 31.776C23.599 31.776 23.5617 31.7386 23.487 31.7386C23.375 31.7386 23.3003 31.7013 23.1883 31.7013C23.1136 31.7013 23.0763 31.6639 23.0016 31.6639C22.9269 31.6266 22.8149 31.6266 22.7402 31.5893C22.6655 31.5893 22.6282 31.5519 22.5535 31.5519C22.4788 31.5146 22.4042 31.5146 22.2921 31.4772C22.2175 31.4772 22.1801 31.4399 22.1054 31.4399C22.0308 31.4026 21.9561 31.4026 21.8814 31.3652C21.8067 31.3279 21.7694 31.3279 21.6947 31.2906C21.62 31.2532 21.5454 31.2532 21.4707 31.2159C21.396 31.1785 21.3587 31.1785 21.284 31.1412C21.2093 31.1039 21.1346 31.1039 21.0973 31.0665C21.0226 31.0292 20.9853 31.0292 20.9479 30.9918C20.8732 30.9545 20.8359 30.9545 20.7612 30.9172C20.7239 30.8798 20.6492 30.8798 20.6119 30.8425C20.5372 30.8051 20.4998 30.8051 20.4625 30.7678C20.4252 30.7305 20.3505 30.7305 20.3132 30.6931C20.2758 30.6558 20.2011 30.6558 20.1638 30.6184C20.1265 30.5811 20.0518 30.5811 20.0144 30.5438C19.9771 30.5064 19.9024 30.5064 19.8651 30.4691C19.8277 30.4317 19.7904 30.4317 19.7531 30.3944C19.7157 30.3944 19.7157 30.3571 19.6784 30.3571V22.105C19.6784 21.5075 20.1638 20.9848 20.7986 20.9848H50.1103C50.7451 20.9848 51.2305 21.4702 51.2305 22.105L51.2307 37.8997Z" stroke="#002695" stroke-width="0.16" mask="url(#path-1-outside-1_77_563)"/>
</g>
<path id="Vector_2" d="M8.47344 6.72092V6.7234H8.51344C8.68489 6.7234 8.81481 6.59347 8.81481 6.42202V3.43485C8.81481 3.2634 8.68489 3.13348 8.51344 3.13348C8.34199 3.13348 8.21206 3.2634 8.21206 3.43485V6.38464C8.21206 6.48597 8.24256 6.57087 8.29714 6.63091C8.3432 6.68157 8.4045 6.71238 8.47344 6.72092Z" fill="#002695" stroke="#002695" stroke-width="0.08"/>
<path id="Vector_3" d="M8.51344 9.18826C8.68489 9.18826 8.81481 9.05833 8.81481 8.88688V7.84137C8.81481 7.66992 8.68489 7.53999 8.51344 7.53999C8.34199 7.53999 8.21206 7.66992 8.21206 7.84137V8.88688C8.21206 8.95492 8.24532 9.02948 8.29714 9.08648C8.34945 9.14402 8.42489 9.18826 8.51344 9.18826Z" fill="#002695" stroke="#002695" stroke-width="0.08"/>
<path id="Vector_4" d="M22.7308 16.1397L22.2454 15.6543C22.1816 15.5905 22.0966 15.5585 22.0164 15.5585C21.9375 15.5585 21.8594 15.5897 21.8127 15.657C21.7507 15.7205 21.7197 15.8042 21.7197 15.8833C21.7197 15.9621 21.7508 16.0402 21.818 16.0869L22.3008 16.5697C22.3451 16.614 22.4298 16.6561 22.5158 16.6561C22.6018 16.6561 22.6864 16.614 22.7308 16.5697C22.7932 16.5072 22.8265 16.4321 22.8265 16.3547C22.8265 16.2773 22.7932 16.2021 22.7308 16.1397Z" fill="#002695" stroke="#002695" stroke-width="0.08"/>
<path id="Vector_5" d="M23.8138 17.2217C23.7501 17.1579 23.6651 17.1259 23.5848 17.1259C23.506 17.1259 23.4278 17.1571 23.3811 17.2244C23.3192 17.2879 23.2881 17.3715 23.2881 17.4506C23.2881 17.5294 23.3193 17.6076 23.3865 17.6543L23.8693 18.137C23.9136 18.1814 23.9983 18.2234 24.0843 18.2234C24.1702 18.2234 24.2549 18.1814 24.2992 18.137C24.363 18.0733 24.395 17.9883 24.395 17.9081C24.395 17.8293 24.3638 17.7511 24.2966 17.7044L23.8138 17.2217Z" fill="#002695" stroke="#002695" stroke-width="0.08"/>
<path id="Vector_6" d="M22.5013 17.1259C22.4225 17.1259 22.3444 17.1571 22.2977 17.2243L21.8149 17.7071C21.7512 17.7708 21.7192 17.8558 21.7192 17.9361C21.7192 18.0149 21.7504 18.0931 21.8178 18.1398C21.8628 18.1831 21.9457 18.2234 22.0299 18.2234C22.1159 18.2234 22.2006 18.1814 22.2449 18.137L22.7303 17.6516C22.7941 17.5879 22.826 17.5029 22.826 17.4226C22.826 17.3438 22.7948 17.2656 22.7275 17.2189C22.6641 17.157 22.5804 17.1259 22.5013 17.1259Z" fill="#002695" stroke="#002695" stroke-width="0.08"/>
<path id="Vector_7" d="M24.2619 15.654C24.1981 15.5902 24.1131 15.5583 24.0329 15.5583C23.9541 15.5583 23.876 15.5894 23.8293 15.6567L23.3465 16.1394C23.2827 16.2032 23.2508 16.2882 23.2508 16.3684C23.2508 16.4473 23.282 16.5255 23.3493 16.5722C23.3944 16.6155 23.4773 16.6558 23.5615 16.6558C23.6475 16.6558 23.7321 16.6137 23.7765 16.5694L24.2592 16.0866C24.3265 16.0399 24.3576 15.9618 24.3576 15.883C24.3576 15.8027 24.3256 15.7178 24.2619 15.654Z" fill="#002695" stroke="#002695" stroke-width="0.08"/>
<path id="Vector_8" d="M23.2531 44.704C23.1893 44.6402 23.1044 44.6083 23.0241 44.6083C22.9453 44.6083 22.8671 44.6395 22.8204 44.7068C22.7584 44.7702 22.7274 44.8539 22.7274 44.933C22.7274 45.0118 22.7586 45.0899 22.8258 45.1366L23.3085 45.6194C23.3529 45.6637 23.4375 45.7058 23.5235 45.7058C23.6095 45.7058 23.6942 45.6637 23.7385 45.6194C23.8023 45.5556 23.8342 45.4706 23.8342 45.3904C23.8342 45.3116 23.8031 45.2335 23.7358 45.1867L23.2531 44.704Z" fill="#002695" stroke="#002695" stroke-width="0.08"/>
<path id="Vector_9" d="M24.8218 46.2349C24.758 46.1711 24.673 46.1392 24.5928 46.1392C24.514 46.1392 24.4358 46.1703 24.3891 46.2376C24.3271 46.3011 24.2961 46.3848 24.2961 46.4639C24.2961 46.5427 24.3272 46.6208 24.3945 46.6675L24.8772 47.1503C24.9216 47.1946 25.0062 47.2367 25.0922 47.2367C25.1782 47.2367 25.2629 47.1946 25.3072 47.1503C25.371 47.0865 25.4029 47.0015 25.4029 46.9213C25.4029 46.8425 25.3718 46.7643 25.3045 46.7176L24.8218 46.2349Z" fill="#002695" stroke="#002695" stroke-width="0.08"/>
<path id="Vector_10" d="M23.3092 46.2349L22.8238 46.7203C22.76 46.7841 22.728 46.869 22.728 46.9493C22.728 47.0281 22.7593 47.1064 22.8266 47.153C22.8717 47.1963 22.9546 47.2367 23.0387 47.2367C23.1247 47.2367 23.2094 47.1946 23.2537 47.1503L23.7391 46.6648C23.8029 46.6011 23.8349 46.5161 23.8349 46.4359C23.8349 46.357 23.8037 46.2789 23.7364 46.2322C23.6745 46.1715 23.6004 46.1392 23.5242 46.1392C23.4468 46.1392 23.3716 46.1724 23.3092 46.2349Z" fill="#002695" stroke="#002695" stroke-width="0.08"/>
<path id="Vector_11" d="M24.8403 44.704L24.3549 45.1894C24.2911 45.2532 24.2592 45.3381 24.2592 45.4184C24.2592 45.4972 24.2904 45.5755 24.3577 45.6222C24.4028 45.6655 24.4857 45.7058 24.5699 45.7058C24.6559 45.7058 24.7405 45.6637 24.7849 45.6194L25.2703 45.134C25.334 45.0702 25.366 44.9852 25.366 44.905C25.366 44.8274 25.3358 44.7505 25.2707 44.7035C25.2238 44.6385 25.1469 44.6083 25.0693 44.6083C24.989 44.6083 24.9041 44.6402 24.8403 44.704Z" fill="#002695" stroke="#002695" stroke-width="0.08"/>
<path id="Vector_12" d="M33.1575 19.1575C33.8136 19.1575 34.3924 18.6177 34.3924 17.9227C34.3924 17.2285 33.8517 16.6878 33.1575 16.6878C32.5015 16.6878 31.9227 17.2277 31.9227 17.9227C31.9227 18.6177 32.5015 19.1575 33.1575 19.1575ZM33.1575 17.3279C33.4715 17.3279 33.7523 17.6087 33.7523 17.9226C33.7523 18.2366 33.4715 18.5174 33.1575 18.5174C32.8436 18.5174 32.5628 18.2366 32.5628 17.9226C32.5628 17.6087 32.8436 17.3279 33.1575 17.3279Z" fill="#002695" stroke="#002695" stroke-width="0.08"/>
<path id="Vector_13" d="M10.5669 13.4819C11.223 13.4819 11.8018 12.9421 11.8018 12.2471C11.8018 11.591 11.2619 11.0122 10.5669 11.0122C9.91086 11.0122 9.33204 11.5521 9.33204 12.2471C9.33204 12.9413 9.8727 13.4819 10.5669 13.4819ZM10.5669 11.6523C10.8809 11.6523 11.1617 11.9331 11.1617 12.247C11.1617 12.561 10.8809 12.8418 10.5669 12.8418C10.2529 12.8418 9.97213 12.561 9.97213 12.247C9.97213 11.9315 10.2171 11.6523 10.5669 11.6523Z" fill="#002695" stroke="#002695" stroke-width="0.08"/>
<path id="Vector_14" d="M26.3989 6.83557H29.6847C29.8562 6.83557 29.9861 6.70565 29.9861 6.5342C29.9861 6.36275 29.8562 6.23282 29.6847 6.23282H26.3989C26.2295 6.23282 26.1006 6.35963 26.0975 6.528C26.0761 6.60306 26.1155 6.68076 26.1699 6.73518C26.2272 6.79247 26.3116 6.83557 26.3989 6.83557Z" fill="#002695" stroke="#002695" stroke-width="0.08"/>
<path id="Vector_15" d="M30.7303 6.83557H31.7758C31.9472 6.83557 32.0772 6.70565 32.0772 6.5342C32.0772 6.36275 31.9472 6.23282 31.7758 6.23282H30.7303C30.5588 6.23282 30.4289 6.36275 30.4289 6.5342C30.4289 6.60224 30.4622 6.6768 30.514 6.7338C30.5663 6.79134 30.6417 6.83557 30.7303 6.83557Z" fill="#002695" stroke="#002695" stroke-width="0.08"/>
<path id="Vector_16" d="M31.8133 7.31547H29.4983C29.3268 7.31547 29.1969 7.4454 29.1969 7.61685C29.1969 7.7883 29.3268 7.91822 29.4983 7.91822H31.776C31.9459 7.91822 32.0749 7.79076 32.0774 7.62174C32.0972 7.53651 32.0754 7.45925 32.0251 7.40339C31.9746 7.34721 31.8979 7.31547 31.8134 7.31547H31.8133Z" fill="#002695" stroke="#002695" stroke-width="0.08"/>
<path id="Vector_17" d="M27.7807 7.31547C27.6092 7.31547 27.4793 7.4454 27.4793 7.61685C27.4793 7.7883 27.6092 7.91822 27.7807 7.91822H28.5275C28.6989 7.91822 28.8288 7.7883 28.8288 7.61685C28.8288 7.4454 28.6989 7.31547 28.5275 7.31547H27.7807Z" fill="#002695" stroke="#002695" stroke-width="0.08"/>
<path id="Vector_18" d="M47.6853 44.3589C47.6853 44.1874 47.5553 44.0575 47.3839 44.0575H44.098C43.9266 44.0575 43.7966 44.1874 43.7966 44.3589C43.7966 44.5303 43.9266 44.6602 44.098 44.6602H47.3839C47.5553 44.6602 47.6853 44.5303 47.6853 44.3589Z" fill="#002695" stroke="#002695" stroke-width="0.08"/>
<path id="Vector_19" d="M49.5118 44.0205H48.4663C48.2949 44.0205 48.165 44.1504 48.165 44.3218C48.165 44.4933 48.2949 44.6232 48.4663 44.6232H49.5118C49.6833 44.6232 49.8132 44.4933 49.8132 44.3218C49.8132 44.2538 49.78 44.1792 49.7281 44.1222C49.6758 44.0647 49.6004 44.0205 49.5118 44.0205Z" fill="#002695" stroke="#002695" stroke-width="0.08"/>
<path id="Vector_20" d="M49.5118 45.1777H47.2341C47.0626 45.1777 46.9327 45.3076 46.9327 45.4791C46.9327 45.6505 47.0626 45.7804 47.2341 45.7804H49.5118C49.6833 45.7804 49.8132 45.6505 49.8132 45.4791C49.8132 45.3076 49.6833 45.1777 49.5118 45.1777Z" fill="#002695" stroke="#002695" stroke-width="0.08"/>
<path id="Vector_21" d="M46.2259 45.1777H45.4792C45.3077 45.1777 45.1778 45.3076 45.1778 45.4791C45.1778 45.6505 45.3077 45.7804 45.4792 45.7804H46.2259C46.3958 45.7804 46.5248 45.653 46.5273 45.484C46.5471 45.3985 46.5252 45.3203 46.4689 45.2641C46.4128 45.2079 46.3267 45.1777 46.2259 45.1777Z" fill="#002695" stroke="#002695" stroke-width="0.08"/>
<path id="Vector_22" d="M46.0775 5.34197H49.3633C49.5348 5.34197 49.6647 5.21204 49.6647 5.04059C49.6647 4.86914 49.5348 4.73921 49.3633 4.73921H46.0775C45.9076 4.73921 45.7785 4.86669 45.7761 5.03573C45.7556 5.12524 45.7908 5.20319 45.8498 5.25689C45.909 5.31071 45.9935 5.34197 46.0775 5.34197Z" fill="#002695" stroke="#002695" stroke-width="0.08"/>
<path id="Vector_23" d="M50.4456 5.34197H51.4911C51.6625 5.34197 51.7924 5.21204 51.7924 5.04059C51.7924 4.86914 51.6625 4.73921 51.4911 4.73921H50.4456C50.2758 4.73921 50.1467 4.86667 50.1442 5.03569C50.1244 5.12113 50.1463 5.19931 50.2026 5.25557C50.2587 5.31173 50.3448 5.34197 50.4456 5.34197Z" fill="#002695" stroke="#002695" stroke-width="0.08"/>
<path id="Vector_24" d="M51.491 5.85941H49.2133C49.0418 5.85941 48.9119 5.98934 48.9119 6.16079C48.9119 6.33224 49.0418 6.46217 49.2133 6.46217H51.491C51.6625 6.46217 51.7924 6.33224 51.7924 6.16079C51.7924 5.98934 51.6625 5.85941 51.491 5.85941Z" fill="#002695" stroke="#002695" stroke-width="0.08"/>
<path id="Vector_25" d="M47.4959 5.85941C47.3245 5.85941 47.1946 5.98934 47.1946 6.16079C47.1946 6.33224 47.3245 6.46217 47.4959 6.46217H48.2427C48.4142 6.46217 48.5441 6.33224 48.5441 6.16079C48.5441 5.98934 48.4142 5.85941 48.2427 5.85941H47.4959Z" fill="#002695" stroke="#002695" stroke-width="0.08"/>
<path id="Vector_26" d="M41.671 15.9093C41.8424 15.9093 41.9724 15.7794 41.9724 15.608C41.9724 15.4365 41.8424 15.3066 41.671 15.3066H40.4387C40.2673 15.3066 40.1374 15.4365 40.1374 15.608C40.1374 15.7794 40.2673 15.9093 40.4387 15.9093H41.671Z" fill="#002695" stroke="#002695" stroke-width="0.08"/>
<path id="Vector_27" d="M38.443 15.1624L38.4431 15.1623L38.4403 15.1609C38.3586 15.1201 38.2736 15.1083 38.1967 15.1302C38.1194 15.1523 38.055 15.2074 38.0133 15.2908C37.9724 15.3726 37.9606 15.4576 37.9826 15.5344C38.0046 15.6115 38.0592 15.6756 38.1421 15.7174C38.4114 15.871 38.6801 15.9088 38.9452 15.9088H39.4679C39.6394 15.9088 39.7693 15.7789 39.7693 15.6074C39.7693 15.436 39.6394 15.3061 39.4679 15.3061H38.9825C38.8016 15.3061 38.6223 15.27 38.443 15.1624Z" fill="#002695" stroke="#002695" stroke-width="0.08"/>
<path id="Vector_28" d="M43.1645 15.9094C43.3473 15.9094 43.5595 15.9461 43.6985 16.0492C43.7471 16.0962 43.7998 16.0962 43.8668 16.0961C43.8692 16.0961 43.8716 16.0961 43.874 16.0961C43.934 16.0961 43.9891 16.0862 44.0352 16.0573C44.0815 16.0284 44.1141 15.9834 44.1351 15.9221C44.1749 15.8412 44.1862 15.7571 44.1645 15.6811C44.1425 15.6041 44.088 15.54 44.0053 15.4983C43.8163 15.3851 43.6226 15.3067 43.4259 15.3067C43.4185 15.3067 43.4088 15.3027 43.3878 15.2922C43.3869 15.2918 43.386 15.2913 43.3851 15.2909C43.3685 15.2825 43.3423 15.2693 43.3139 15.2693H42.5671C42.3957 15.2693 42.2657 15.3992 42.2657 15.5707C42.2657 15.7421 42.3957 15.8721 42.5671 15.8721H43.0733C43.0776 15.8763 43.0816 15.8801 43.0853 15.8834C43.0922 15.8896 43.0999 15.8958 43.1093 15.9005C43.1274 15.9096 43.1459 15.9095 43.161 15.9094C43.1622 15.9094 43.1634 15.9094 43.1645 15.9094Z" fill="#002695" stroke="#002695" stroke-width="0.08"/>
<path id="Vector_29" d="M44.2012 18.661C44.2637 18.5986 44.297 18.5234 44.297 18.4461C44.297 18.3687 44.2637 18.2935 44.2012 18.2311C44.1388 18.1686 44.0636 18.1353 43.9862 18.1353C43.9093 18.1353 43.8346 18.1682 43.7724 18.2299C43.5176 18.448 43.1903 18.5933 42.8637 18.6301C42.7759 18.6309 42.7008 18.6752 42.6486 18.7378C42.5961 18.8008 42.5646 18.8845 42.5646 18.9688H42.5625L42.5667 18.9815C42.6082 19.1058 42.7329 19.2328 42.9034 19.2328H42.9034V19.233L42.9065 19.2327C43.4002 19.1947 43.8576 19.0047 44.2012 18.661ZM44.2012 18.661L44.1729 18.6327M44.2012 18.661C44.2012 18.661 44.2012 18.661 44.2012 18.661L44.1729 18.6327M44.1729 18.6327C43.8369 18.9688 43.3888 19.1555 42.9034 19.1928L42.866 18.6701C43.2021 18.6327 43.5382 18.4834 43.7996 18.2594C43.9116 18.1473 44.0609 18.1473 44.1729 18.2594C44.285 18.3714 44.285 18.5207 44.1729 18.6327Z" fill="#002695" stroke="#002695" stroke-width="0.08"/>
<path id="Vector_30" d="M44.3791 17.9585L44.3875 17.9628H44.397H44.4717C44.6 17.9628 44.7279 17.8779 44.771 17.7487C44.8471 17.5205 44.8851 17.2922 44.8851 17.0266C44.8851 16.8004 44.8477 16.531 44.7308 16.3352C44.6889 16.2523 44.6253 16.1989 44.5505 16.1721C44.4761 16.1456 44.3931 16.1462 44.3126 16.1663L44.3124 16.1654L44.3044 16.1694C44.2207 16.2112 44.1668 16.2752 44.14 16.3504C44.1134 16.4248 44.114 16.5078 44.1341 16.5882L44.1332 16.5885L44.1372 16.5964C44.2094 16.7409 44.245 16.8842 44.245 17.0266C44.245 17.2085 44.2085 17.3915 44.1715 17.5397C44.1291 17.7093 44.215 17.8765 44.3791 17.9585Z" fill="#002695" stroke="#002695" stroke-width="0.08"/>
<path id="Vector_31" d="M40.7549 19.4152L40.7552 19.4157L40.761 19.4114C40.9049 19.3034 41.0834 19.2327 41.2598 19.2327H41.3345H41.9692C42.1407 19.2327 42.2706 19.1027 42.2706 18.9313C42.2706 18.7598 42.1407 18.6299 41.9692 18.6299H41.2225L41.2209 18.6299C41.1857 18.6299 41.1383 18.6299 41.0924 18.6695C40.8321 18.7078 40.5678 18.7845 40.3396 18.9739C40.2104 19.0618 40.1668 19.2764 40.298 19.4077L40.2965 19.4092L40.3084 19.4152C40.3099 19.4159 40.3114 19.4166 40.3129 19.4174C40.3842 19.4531 40.4661 19.4941 40.5503 19.4941C40.5955 19.4941 40.6296 19.4825 40.6616 19.4665C40.6757 19.4594 40.6897 19.4513 40.7034 19.4434C40.7046 19.4428 40.7057 19.4421 40.7069 19.4414C40.722 19.4327 40.7374 19.4239 40.7549 19.4152Z" fill="#002695" stroke="#002695" stroke-width="0.08"/>
<path id="Vector_32" d="M16.653 16.9174C16.9209 16.9174 17.2257 16.8412 17.455 16.7265C17.5385 16.6848 17.5935 16.6204 17.6156 16.543C17.6376 16.4662 17.6258 16.3812 17.585 16.2994C17.5432 16.216 17.4789 16.161 17.4015 16.1388C17.3246 16.1169 17.2396 16.1287 17.1579 16.1695C17.0108 16.2431 16.8307 16.3147 16.6157 16.3147H16.0929C15.9215 16.3147 15.7916 16.4446 15.7916 16.616C15.7916 16.7875 15.9215 16.9174 16.0929 16.9174H16.653Z" fill="#002695" stroke="#002695" stroke-width="0.08"/>
<path id="Vector_33" d="M15.197 16.2776H13.9648C13.7933 16.2776 13.6634 16.4076 13.6634 16.579C13.6634 16.7505 13.7933 16.8804 13.9648 16.8804H15.197C15.3668 16.8804 15.4959 16.7529 15.4984 16.5839C15.5188 16.4944 15.4837 16.4164 15.4246 16.3627C15.3654 16.3089 15.2809 16.2776 15.197 16.2776Z" fill="#002695" stroke="#002695" stroke-width="0.08"/>
<path id="Vector_34" d="M11.9294 17.0626L11.9295 17.0627L11.9321 17.0611C12.1115 16.9535 12.2907 16.9174 12.4717 16.9174H12.5463H13.0691C13.2405 16.9174 13.3705 16.7875 13.3705 16.6161C13.3705 16.4446 13.2405 16.3147 13.0691 16.3147H12.3223L12.3207 16.3147C12.2853 16.3147 12.2375 16.3147 12.1913 16.3551C12.0054 16.3934 11.786 16.4667 11.6361 16.5411C11.5478 16.5649 11.4932 16.6324 11.4717 16.7077C11.4503 16.7826 11.4603 16.8685 11.5035 16.9349C11.5266 16.9796 11.5692 17.0209 11.614 17.0507C11.6591 17.0808 11.7136 17.1041 11.7622 17.1041H11.7629C11.7815 17.1041 11.8035 17.1041 11.8307 17.0987C11.8583 17.0932 11.8897 17.0824 11.9294 17.0626Z" fill="#002695" stroke="#002695" stroke-width="0.08"/>
<path id="Vector_35" d="M12.7295 20.2033L12.7295 20.2034H12.7326H12.77C12.9414 20.2034 13.0713 20.0735 13.0713 19.902C13.0713 19.8178 13.0399 19.7341 12.9874 19.6711C12.9352 19.6084 12.8601 19.5641 12.7723 19.5633C12.4457 19.5266 12.1184 19.3812 11.8636 19.1632C11.7999 19.1002 11.7155 19.0686 11.6357 19.0686C11.556 19.0686 11.4769 19.1005 11.4304 19.1695C11.3711 19.2488 11.339 19.3314 11.339 19.412C11.339 19.4936 11.372 19.5689 11.4347 19.6316L11.4465 19.6433H11.4466C11.7889 19.9796 12.2415 20.1658 12.7295 20.2033Z" fill="#002695" stroke="#002695" stroke-width="0.08"/>
<path id="Vector_36" d="M11.239 18.9706V18.9719L11.2487 18.9694C11.3376 18.9472 11.4017 18.8813 11.4382 18.8085C11.4742 18.7364 11.4865 18.6505 11.4637 18.5819L11.4637 18.5819L11.4629 18.5797C11.3913 18.4009 11.391 18.2586 11.391 18.0718C11.391 17.9265 11.4278 17.7488 11.4963 17.6459L11.4966 17.6461L11.4988 17.6416C11.5414 17.5566 11.5419 17.4696 11.5092 17.3933C11.4768 17.3178 11.4132 17.2554 11.3316 17.2146C11.2465 17.1721 11.1595 17.1716 11.0832 17.2043C11.0077 17.2366 10.9453 17.3002 10.9045 17.3818C10.7891 17.6126 10.7509 17.8431 10.7509 18.0718C10.7509 18.2997 10.7888 18.5654 10.865 18.7939L10.8646 18.7941L10.8672 18.7992C10.8901 18.8451 10.9338 18.8875 10.9851 18.9183C11.0367 18.9492 11.0997 18.9706 11.1643 18.9706H11.239Z" fill="#002695" stroke="#002695" stroke-width="0.08"/>
<path id="Vector_37" d="M13.6659 20.2033H14.3006H14.3753C14.5978 20.2033 14.7699 20.241 14.8698 20.3409C14.9141 20.3852 14.9988 20.4273 15.0848 20.4273C15.1738 20.4273 15.2581 20.3826 15.3371 20.3036C15.4689 20.1717 15.4243 19.9557 15.2937 19.8686C15.0669 19.7174 14.8349 19.6005 14.5247 19.6005C14.5173 19.6005 14.5076 19.5966 14.4866 19.5861C14.4857 19.5856 14.4848 19.5852 14.4839 19.5847C14.4673 19.5764 14.441 19.5632 14.4127 19.5632H13.6659C13.4944 19.5632 13.3645 19.6931 13.3645 19.8645C13.3645 19.9659 13.395 20.0508 13.4496 20.1108C13.5044 20.1711 13.5807 20.2033 13.6659 20.2033Z" fill="#002695" stroke="#002695" stroke-width="0.08"/>
<path id="Vector_38" d="M15.7967 20.8667L15.7969 20.8667L15.7959 20.8626C15.7757 20.7817 15.7346 20.708 15.6751 20.6594C15.6145 20.6098 15.5363 20.5876 15.4487 20.6095C15.3677 20.6297 15.2941 20.6709 15.2454 20.7303C15.1958 20.7909 15.1737 20.8691 15.1956 20.9567C15.2316 21.101 15.2317 21.2088 15.2317 21.3204V21.3578V21.5445V21.5818C15.2317 21.6853 15.1974 21.7902 15.1599 21.9026C15.1187 21.9868 15.1186 22.0728 15.1509 22.1483C15.1833 22.2238 15.2469 22.2862 15.3285 22.327L15.3369 22.3312H15.3464C15.3538 22.3312 15.3635 22.3352 15.3845 22.3457C15.3854 22.3461 15.3863 22.3466 15.3872 22.347C15.4007 22.3538 15.4207 22.3639 15.443 22.3674C15.4599 22.3784 15.4797 22.3826 15.4981 22.3826C15.5217 22.3826 15.5465 22.3759 15.5696 22.3644C15.6156 22.3414 15.6597 22.2968 15.6821 22.232C15.7967 22.0017 15.8345 21.7717 15.8345 21.5071V21.5067C15.8345 21.3572 15.8345 21.1309 15.7967 20.8667Z" fill="#002695" stroke="#002695" stroke-width="0.08"/>
<path id="Vector_39" d="M11.463 23.2277H12.6953C12.8667 23.2277 12.9967 23.0978 12.9967 22.9263C12.9967 22.7549 12.8667 22.625 12.6953 22.625H11.463C11.2932 22.625 11.1641 22.7524 11.1617 22.9215C11.1412 23.011 11.1764 23.0889 11.2354 23.1426C11.2946 23.1964 11.3791 23.2277 11.463 23.2277Z" fill="#002695" stroke="#002695" stroke-width="0.08"/>
<path id="Vector_40" d="M14.9185 23.0357C15.0007 22.9939 15.0549 22.93 15.0768 22.8533C15.0987 22.7765 15.087 22.6914 15.0461 22.6097C15.0044 22.5262 14.94 22.4712 14.8626 22.4491C14.7858 22.4272 14.7008 22.439 14.619 22.4798C14.472 22.5534 14.2918 22.625 14.0768 22.625H13.5541C13.3826 22.625 13.2527 22.7549 13.2527 22.9263C13.2527 23.0978 13.3826 23.2277 13.5541 23.2277H14.0768C14.3763 23.2277 14.6843 23.1908 14.9185 23.0357Z" fill="#002695" stroke="#002695" stroke-width="0.08"/>
<path id="Vector_41" d="M9.38994 23.4099L9.39 23.41L9.39263 23.4084C9.57197 23.3008 9.75124 23.2647 9.93215 23.2647H10.0068H10.5296C10.701 23.2647 10.831 23.1348 10.831 22.9633C10.831 22.7919 10.701 22.662 10.5296 22.662H9.78279L9.78119 22.662C9.74576 22.662 9.69801 22.662 9.65175 22.7024C9.46435 22.741 9.24274 22.8153 9.09279 22.8902C8.92198 22.9756 8.87731 23.1895 8.96538 23.3216L8.96472 23.322L8.97037 23.3277C8.99236 23.3497 9.03298 23.3798 9.07725 23.4044C9.12048 23.4284 9.17467 23.4514 9.2227 23.4514H9.22344C9.24201 23.4514 9.26399 23.4514 9.29122 23.446C9.31879 23.4405 9.35019 23.4297 9.38994 23.4099Z" fill="#002695" stroke="#002695" stroke-width="0.08"/>
<path id="Vector_42" d="M16.2801 26.5502H17.6243C17.7957 26.5502 17.9257 26.4203 17.9257 26.2489C17.9257 26.0774 17.7957 25.9475 17.6243 25.9475H16.2801C16.1086 25.9475 15.9787 26.0774 15.9787 26.2489C15.9787 26.4203 16.1086 26.5502 16.2801 26.5502Z" fill="#002695" stroke="#002695" stroke-width="0.08"/>
<path id="Vector_43" d="M10.6045 25.9105H10.3804C10.054 25.9105 9.76255 25.8019 9.50525 25.6551C9.43859 25.6112 9.35305 25.6018 9.27572 25.6173C9.19793 25.6328 9.12215 25.6748 9.07759 25.7417C9.03304 25.8085 9.02342 25.8946 9.03898 25.9724C9.05454 26.0502 9.09653 26.126 9.16337 26.1705C9.50533 26.3985 9.96102 26.5506 10.3804 26.5506H10.6045C10.7743 26.5506 10.9034 26.4231 10.9058 26.2541C10.9261 26.1649 10.8915 26.0789 10.8346 26.0169C10.7769 25.9539 10.692 25.9105 10.6045 25.9105Z" fill="#002695" stroke="#002695" stroke-width="0.08"/>
<path id="Vector_44" d="M8.713 23.5606L8.71303 23.5605L8.71005 23.5598C8.54597 23.5188 8.37282 23.5984 8.32674 23.7341C8.2504 23.9253 8.21227 24.1168 8.21227 24.3454C8.21227 24.685 8.28722 24.9874 8.43655 25.2888C8.43982 25.3561 8.47656 25.4026 8.5269 25.4306C8.57726 25.4585 8.64097 25.4683 8.70035 25.4683H8.74035V25.4668C8.76993 25.4637 8.80337 25.4541 8.83585 25.4238C8.91619 25.382 8.96924 25.3188 8.99085 25.2432C9.0128 25.1663 9.00102 25.0813 8.96016 24.9996C8.85153 24.7823 8.81503 24.5647 8.81503 24.3454C8.81503 24.2272 8.83917 24.1346 8.86906 24.02C8.87535 23.9959 8.88189 23.9708 8.88851 23.9443C8.92965 23.7798 8.84946 23.6061 8.713 23.5606Z" fill="#002695" stroke="#002695" stroke-width="0.08"/>
<path id="Vector_45" d="M11.6124 26.5502H12.9566C13.1281 26.5502 13.258 26.4203 13.258 26.2489C13.258 26.0774 13.1281 25.9475 12.9566 25.9475H11.6124C11.441 25.9475 11.311 26.0774 11.311 26.2489C11.311 26.4203 11.441 26.5502 11.6124 26.5502Z" fill="#002695" stroke="#002695" stroke-width="0.08"/>
<path id="Vector_46" d="M13.9646 26.5502H15.3088C15.4803 26.5502 15.6102 26.4203 15.6102 26.2489C15.6102 26.0774 15.4803 25.9475 15.3088 25.9475H13.9646C13.7948 25.9475 13.6657 26.075 13.6632 26.244C13.6428 26.3335 13.6779 26.4115 13.737 26.4652C13.7962 26.519 13.8806 26.5502 13.9646 26.5502Z" fill="#002695" stroke="#002695" stroke-width="0.08"/>
<path id="Vector_47" d="M20.0535 35.5494H20.054V35.5094C20.054 34.4044 19.14 33.4904 18.035 33.4904C16.93 33.4904 16.0159 34.4044 16.0159 35.5094C16.0159 36.073 16.2386 36.6004 16.6478 36.9805L15.9791 41.1413L15.9717 41.1876H16.0186H20.0887H20.136L20.1281 41.1409L19.4221 36.9792C19.785 36.6096 20.0416 36.0993 20.0535 35.5494ZM17.2897 36.7514L17.2952 36.7294L17.2792 36.7134L17.1672 36.6013L17.1674 36.6011L17.1634 36.5981C16.8362 36.3436 16.6188 35.9441 16.6188 35.5094C16.6188 34.7474 17.2356 34.1305 17.9977 34.1305C18.7597 34.1305 19.3766 34.7474 19.3766 35.5094C19.3766 35.9461 19.195 36.3438 18.8336 36.5969L18.8332 36.5964L18.8282 36.6013L18.7162 36.7134L18.7017 36.7279L18.705 36.7482L19.3321 40.5476H16.6631L17.2528 36.8991L17.2897 36.7514Z" fill="#002695" stroke="#002695" stroke-width="0.08"/>
<path id="Vector_48" d="M32.6352 41.0389H38.1989C38.7064 41.0389 39.0976 40.6476 39.0976 40.1401C39.0976 39.6326 38.7063 39.2413 38.1989 39.2413H32.6352C32.1277 39.2413 31.7365 39.6326 31.7365 40.1401C31.7365 40.6487 32.1662 41.0389 32.6352 41.0389ZM32.6352 39.8814H38.1989C38.3603 39.8814 38.4576 40.0095 38.4576 40.1401C38.4576 40.3015 38.3295 40.3988 38.1989 40.3988H32.6352C32.4738 40.3988 32.3765 40.2707 32.3765 40.1401C32.3765 39.9787 32.5046 39.8814 32.6352 39.8814Z" fill="#002695" stroke="#002695" stroke-width="0.08"/>
<path id="Vector_49" d="M47.8322 24.3053H23.0387C22.8673 24.3053 22.7373 24.4352 22.7373 24.6066C22.7373 24.7781 22.8673 24.908 23.0387 24.908H47.8322C48.0036 24.908 48.1336 24.7781 48.1336 24.6066C48.1336 24.5386 48.1003 24.464 48.0485 24.407C47.9962 24.3495 47.9207 24.3053 47.8322 24.3053Z" fill="#002695" stroke="#002695" stroke-width="0.08"/>
<path id="Vector_50" d="M47.8322 27.2179H23.0387C22.8673 27.2179 22.7373 27.3478 22.7373 27.5193C22.7373 27.6907 22.8673 27.8207 23.0387 27.8207H47.8322C48.0036 27.8207 48.1336 27.6907 48.1336 27.5193C48.1336 27.3478 48.0036 27.2179 47.8322 27.2179Z" fill="#002695" stroke="#002695" stroke-width="0.08"/>
<path id="Vector_51" d="M47.8322 30.0925H23.0387C22.8673 30.0925 22.7373 30.2224 22.7373 30.3938C22.7373 30.5653 22.8673 30.6952 23.0387 30.6952H47.8322C48.0036 30.6952 48.1336 30.5653 48.1336 30.3938C48.1336 30.2224 48.0036 30.0925 47.8322 30.0925Z" fill="#002695" stroke="#002695" stroke-width="0.08"/>
<path id="Vector_52" d="M47.8322 33.0054H32.0753C31.9039 33.0054 31.774 33.1353 31.774 33.3067C31.774 33.4782 31.9039 33.6081 32.0753 33.6081H47.8322C48.0037 33.6081 48.1336 33.4782 48.1336 33.3067C48.1336 33.1353 48.0037 33.0054 47.8322 33.0054Z" fill="#002695" stroke="#002695" stroke-width="0.08"/>
<path id="Vector_53" d="M21.2833 8.21189H21.0993V7.01964C21.0993 6.06402 20.2973 5.26202 19.3417 5.26202C18.3861 5.26202 17.5841 6.06406 17.5841 7.01964V8.21189H17.4C16.7814 8.21189 16.2398 8.71435 16.2398 9.37208V11.7244H16.2396L16.2401 11.7291C16.3168 12.3806 16.8164 12.8846 17.4373 12.8846H17.4374H21.2833C21.902 12.8846 22.4435 12.3822 22.4435 11.7244V9.37208C22.4435 8.75343 21.9411 8.21189 21.2833 8.21189ZM18.2615 7.01965C18.2615 6.40696 18.7664 5.90216 19.379 5.90216C19.9917 5.90216 20.4965 6.40701 20.4965 7.01964V8.21189H18.2614L18.2615 7.01965ZM16.9173 9.37199C16.9173 9.09537 17.1608 8.8519 17.4374 8.8519H21.2833C21.56 8.8519 21.8034 9.09537 21.8034 9.37199V11.7243C21.8034 12.001 21.56 12.2444 21.2833 12.2444H17.4374C17.1608 12.2444 16.9173 12.001 16.9173 11.7243V9.37199Z" fill="#002695" stroke="#002695" stroke-width="0.08"/>
<path id="Vector_54" d="M18.0348 10.3081H20.7606C20.9321 10.3081 21.062 10.1781 21.062 10.0067C21.062 9.83523 20.9321 9.7053 20.7606 9.7053H18.0348C17.865 9.7053 17.7359 9.83278 17.7335 10.0018C17.713 10.0913 17.7481 10.1693 17.8072 10.223C17.8664 10.2768 17.9509 10.3081 18.0348 10.3081Z" fill="#002695" stroke="#002695" stroke-width="0.08"/>
<path id="Vector_55" d="M18.0348 11.4285H20.7606C20.9321 11.4285 21.062 11.2986 21.062 11.1271C21.062 10.9557 20.9321 10.8258 20.7606 10.8258H18.0348C17.865 10.8258 17.7359 10.9532 17.7335 11.1223C17.713 11.2118 17.7481 11.2897 17.8072 11.3434C17.8664 11.3973 17.9509 11.4285 18.0348 11.4285Z" fill="#002695" stroke="#002695" stroke-width="0.08"/>
<path id="Vector_56" d="M50.9685 16.7132L50.9686 16.7131L50.9671 16.7101C50.9263 16.6285 50.8639 16.5649 50.7884 16.5326C50.7121 16.4999 50.6251 16.5004 50.5401 16.5429C50.4585 16.5837 50.3949 16.6461 50.3625 16.7216C50.3298 16.7979 50.3303 16.8849 50.3728 16.9699C50.4427 17.1097 50.4433 17.2498 50.4433 17.4001C50.4433 17.7963 50.2272 18.1559 49.9045 18.3356C49.7344 18.4213 49.69 18.6346 49.7779 18.7665L49.7772 18.767L49.7829 18.7726C49.8656 18.8553 49.988 18.8964 50.0726 18.8964H50.1126V18.8955C50.1255 18.8948 50.1396 18.8935 50.1538 18.8911C50.183 18.8862 50.2188 18.8759 50.246 18.8513C50.7796 18.5443 51.0834 17.9718 51.0834 17.3628C51.0834 17.1347 51.0454 16.9055 50.9685 16.7132Z" fill="#002695" stroke="#002695" stroke-width="0.08"/>
<path id="Vector_57" d="M49.6883 16.3184L49.6897 16.3133L49.6891 16.3187C49.8564 16.3605 50.0301 16.277 50.0736 16.1029C50.1154 15.9356 50.032 15.762 49.8581 15.7184C49.2854 15.5658 48.6353 15.718 48.2136 16.1775C48.1503 16.2412 48.1185 16.3259 48.1185 16.4059C48.1185 16.4847 48.1498 16.5629 48.2171 16.6096C48.2622 16.6529 48.3451 16.6932 48.4293 16.6932C48.5152 16.6932 48.5999 16.6512 48.6442 16.6069L48.6443 16.6069L48.6461 16.6049C48.8964 16.3189 49.2908 16.21 49.6883 16.3184Z" fill="#002695" stroke="#002695" stroke-width="0.08"/>
<path id="Vector_58" d="M47.7686 17.3702C47.7195 17.4303 47.6972 17.5076 47.7181 17.5942C47.7954 18.2051 48.2151 18.7387 48.7499 18.9679L48.7574 18.9712H48.7656C48.773 18.9712 48.7828 18.9751 48.8038 18.9856C48.8046 18.986 48.8055 18.9865 48.8064 18.987C48.823 18.9953 48.8493 19.0085 48.8777 19.0085C49.0051 19.0085 49.1321 18.9248 49.1761 18.7972C49.2173 18.7129 49.2175 18.6269 49.1851 18.5514C49.1528 18.4758 49.0892 18.4134 49.0076 18.3726L49.0077 18.3724L49.0033 18.3708C48.6212 18.2319 48.3747 17.927 48.3249 17.5523H48.3315L48.3191 17.5026C48.2988 17.4216 48.2577 17.3479 48.1982 17.2993C48.1377 17.2497 48.0595 17.2275 47.9718 17.2494C47.8909 17.2697 47.8172 17.3108 47.7686 17.3702Z" fill="#002695" stroke="#002695" stroke-width="0.08"/>
<path id="Vector_59" d="M8.41196 44.1428L8.41192 44.1428L8.41025 44.1445C8.34648 44.2082 8.31452 44.2932 8.31452 44.3734C8.31452 44.4523 8.34574 44.5305 8.41309 44.5772C8.45814 44.6205 8.54106 44.6608 8.62523 44.6608C8.71122 44.6608 8.79588 44.6188 8.84022 44.5744C9.05726 44.3574 9.30865 44.2501 9.59606 44.2501C9.70628 44.2501 9.77496 44.2502 9.87811 44.284C9.97999 44.3438 10.0771 44.3457 10.1554 44.3065C10.233 44.2677 10.286 44.1917 10.307 44.1078C10.3488 43.9404 10.2653 43.7667 10.0912 43.7232L10.0887 43.7226C9.94107 43.6857 9.78769 43.6473 9.6334 43.6473C9.17372 43.6473 8.75391 43.8389 8.41196 44.1428Z" fill="#002695" stroke="#002695" stroke-width="0.08"/>
<path id="Vector_60" d="M10.7142 45.4049C10.7142 45.801 10.4982 46.1607 10.1754 46.3404C10.0062 46.4256 9.96137 46.6372 10.0475 46.7693C10.0706 46.814 10.1132 46.8552 10.158 46.8851C10.203 46.9152 10.2576 46.9385 10.3062 46.9385H10.3069C10.3254 46.9385 10.3561 46.9385 10.3874 46.9333C10.4166 46.9284 10.4525 46.9181 10.4796 46.8935C11.0132 46.5865 11.317 46.014 11.317 45.4049C11.317 45.1778 11.2793 44.9496 11.2031 44.7578C11.1629 44.6026 11.0188 44.5203 10.8689 44.5359V44.5187L10.811 44.5477C10.7294 44.5885 10.6658 44.6509 10.6335 44.7264C10.6008 44.8027 10.6013 44.8897 10.6438 44.9747C10.7137 45.1145 10.7142 45.2545 10.7142 45.4049Z" fill="#002695" stroke="#002695" stroke-width="0.08"/>
<path id="Vector_61" d="M9.24485 46.3795L9.23355 46.3964L9.23756 46.3756C8.87767 46.2317 8.62636 45.9083 8.59043 45.513L8.5909 45.5129L8.5894 45.5069C8.56915 45.4259 8.52804 45.3523 8.46857 45.3036C8.40799 45.2541 8.32978 45.2319 8.24217 45.2538C8.1612 45.274 8.08755 45.3151 8.03889 45.3746C7.98978 45.4346 7.96754 45.5119 7.98844 45.5986C8.06569 46.2094 8.48538 46.7431 9.0202 46.9723L9.02775 46.9755H9.03596C9.04335 46.9755 9.05309 46.9795 9.07408 46.99C9.07495 46.9904 9.07584 46.9908 9.07676 46.9913C9.09335 46.9997 9.11961 47.0129 9.14798 47.0129C9.2763 47.0129 9.40424 46.928 9.4473 46.7988L9.44936 46.7995V46.7862C9.44936 46.6251 9.36935 46.4625 9.24485 46.3795Z" fill="#002695" stroke="#002695" stroke-width="0.08"/>
<path id="Vector_62" d="M13.5517 9.298C13.5888 11.9346 15.3864 14.1676 17.8218 14.8381C17.7552 14.9013 17.7337 14.9982 17.7337 15.085C17.7337 15.2667 17.6973 15.4849 17.6251 15.6661C17.5833 15.7507 17.583 15.8371 17.6155 15.9129C17.6479 15.9884 17.7115 16.0508 17.7931 16.0916L17.8016 16.0959H17.811C17.8184 16.0959 17.8281 16.0998 17.8491 16.1103L17.8518 16.1117C17.8684 16.12 17.8947 16.1332 17.923 16.1332C18.0517 16.1332 18.137 16.0478 18.2086 15.9763L18.2127 15.9721L18.2181 15.9667L18.2212 15.9596C18.3345 15.6951 18.4116 15.3898 18.3737 15.0823C18.3729 15.0547 18.3606 15.0214 18.3466 14.9933C18.6849 15.0562 18.9977 15.0877 19.342 15.0877C22.538 15.0877 25.1323 12.4934 25.1323 9.29744C25.1323 6.10153 22.5379 3.50715 19.342 3.50715C16.1461 3.50715 13.5517 6.10153 13.5517 9.29744L13.5517 9.298ZM19.3792 4.10986C22.2323 4.10986 24.5294 6.407 24.5294 9.26002C24.5294 12.113 22.2322 14.4102 19.3792 14.4102C16.5262 14.4102 14.2291 12.113 14.2291 9.26002C14.2291 6.407 16.5262 4.10986 19.3792 4.10986Z" fill="#002695" stroke="#002695" stroke-width="0.08"/>
<path id="Vector_63" d="M34.7909 14.2288L34.791 14.2289H34.8005H37.2625C37.2662 14.4768 37.3057 14.6951 37.4145 14.9138C37.4612 15.0488 37.5962 15.0877 37.7129 15.0877H37.7145C37.7511 15.0877 37.8008 15.0877 37.8484 15.0433C37.929 15.0014 37.981 14.9387 38.0073 14.8651C38.0339 14.7907 38.0332 14.7077 38.0131 14.6273L38.014 14.627L38.0101 14.6191C37.945 14.4889 37.9091 14.3279 37.9032 14.1916H42.343C43.0222 14.1916 43.6256 13.8188 43.9703 13.2954H49.4448C49.5709 13.708 49.9527 14.0049 50.4083 14.0049C50.9532 14.0049 51.4192 13.5389 51.4192 12.994C51.4192 12.4492 50.9532 11.9832 50.4083 11.9832C49.9527 11.9832 49.571 12.2801 49.4448 12.6927H44.2235C44.2567 12.5518 44.2873 12.3851 44.2873 12.2472C44.2873 12.1093 44.2567 11.9722 44.2238 11.8392H46.6069C46.7331 12.2517 47.1149 12.5486 47.5705 12.5486C48.1154 12.5486 48.5814 12.0826 48.5814 11.5378C48.5814 10.9929 48.1154 10.527 47.5705 10.527C47.1149 10.527 46.7332 10.8238 46.6069 11.2364H43.9711C43.6253 10.6753 43.0201 10.3403 42.3056 10.3403H41.7855V10.1936C41.7855 9.70369 41.5993 9.28728 41.3001 8.98224V4.95871C41.7127 4.83253 42.0096 4.45081 42.0096 3.99511C42.0096 3.45027 41.5436 2.98428 40.9987 2.98428C40.4539 2.98428 39.9879 3.45027 39.9879 3.99511C39.9879 4.45077 40.2848 4.83249 40.6974 4.95871V8.53245C40.4911 8.46408 40.2787 8.39856 40.0652 8.39856H40.0646C40.0276 8.39856 39.9792 8.39856 39.9306 8.40343C39.9022 8.40627 39.8724 8.41087 39.8439 8.41859V2.15824C40.2564 2.03207 40.5533 1.65034 40.5533 1.19464C40.5533 0.649799 40.0873 0.183816 39.5425 0.183816C38.9977 0.183816 38.5317 0.649799 38.5317 1.19464C38.5317 1.6503 38.8286 2.03202 39.2411 2.15824V8.6381C39.1112 8.70614 38.9823 8.80108 38.8542 8.92227C38.7355 8.49976 38.5208 8.18061 38.341 7.96488L38.3411 7.96484L38.3397 7.96335C37.8833 7.46894 37.2374 7.20369 36.518 7.20369C35.1891 7.20369 34.0883 8.30449 34.0883 9.63343C34.0883 9.92326 34.123 10.1797 34.226 10.4677C33.4474 10.7443 32.8937 11.4585 32.8934 12.3211C32.8557 13.3499 33.7287 14.2237 34.7909 14.2288ZM34.652 10.9433C34.7004 10.9431 34.7548 10.9198 34.7997 10.8899C34.8453 10.8595 34.8885 10.8174 34.9113 10.7718C34.9334 10.7278 34.9436 10.6747 34.9436 10.6232C34.9436 10.5717 34.9334 10.5187 34.9113 10.4746L34.9114 10.4746L34.9103 10.4727C34.7634 10.2156 34.6542 9.88635 34.6542 9.59639C34.6542 8.61035 35.4577 7.8067 36.4439 7.8067C36.995 7.8067 37.4687 7.99019 37.7957 8.35356C38.1226 8.71668 38.2709 9.2654 38.2709 9.89506C38.2709 9.92757 38.2626 9.96988 38.253 10.0179L38.2525 10.0206C38.2435 10.0652 38.2335 10.1151 38.2335 10.1564C38.2335 10.3279 38.3635 10.4578 38.5349 10.4578C38.7075 10.4578 38.8319 10.3282 38.8724 10.1661L38.8736 10.1664V10.1564V9.93639C38.9835 9.39612 39.4523 9.00157 39.9911 9.00157C40.6046 9.00157 41.146 9.50722 41.146 10.1564C41.146 10.2611 41.1109 10.4041 41.0742 10.5147C41.0512 10.563 41.0529 10.6189 41.0628 10.6684C41.073 10.7196 41.0932 10.7698 41.1129 10.8091C41.1373 10.858 41.184 10.8911 41.2304 10.9118C41.2774 10.9326 41.3295 10.9432 41.3727 10.9432H42.3062C43.0309 10.9432 43.6478 11.5601 43.6478 12.2848C43.6478 13.0096 43.031 13.6264 42.3062 13.6264H34.8009C34.0766 13.6264 33.4599 13.0101 33.4593 12.2858C33.4962 11.5564 34.0054 10.9803 34.652 10.9433ZM50.4088 12.6233C50.6108 12.6233 50.7796 12.7921 50.7796 12.9941C50.7796 13.196 50.6108 13.3648 50.4088 13.3648C50.2069 13.3648 50.0381 13.196 50.0381 12.9941C50.0381 12.7921 50.2069 12.6233 50.4088 12.6233ZM47.571 11.1298C47.773 11.1298 47.9417 11.2985 47.9417 11.5005C47.9417 11.7024 47.773 11.8712 47.571 11.8712C47.3691 11.8712 47.2003 11.7024 47.2003 11.5005C47.2003 11.2985 47.3691 11.1298 47.571 11.1298ZM40.6286 3.99524C40.6286 3.79329 40.7973 3.6245 40.9993 3.6245C41.2012 3.6245 41.37 3.79329 41.37 3.99524C41.37 4.19719 41.2012 4.36597 40.9993 4.36597C40.7973 4.36597 40.6286 4.19719 40.6286 3.99524ZM39.0976 1.15743C39.0976 0.955487 39.2664 0.786698 39.4683 0.786698C39.6703 0.786698 39.8391 0.955487 39.8391 1.15743C39.8391 1.35938 39.6703 1.52817 39.4683 1.52817C39.3874 1.52817 39.2941 1.48706 39.2204 1.41769C39.147 1.34863 39.0976 1.25588 39.0976 1.15743Z" fill="#002695" stroke="#002695" stroke-width="0.08"/>
</g>
</g>
</svg>
