<svg width="36" height="28" viewBox="0 0 36 28" fill="none" xmlns="http://www.w3.org/2000/svg">
<g id="noun-certificate-941750 1">
<g id="Group">
<path id="Vector" d="M26.5666 4.74649V4.7264L9.46819 4.7262V4.74629C9.46819 6.38218 8.14051 7.70986 6.50461 7.70986H6.4787V19.2386H6.50461C8.126 19.2386 9.44227 20.5404 9.46819 22.1532H12.0055L12.0977 21.2805V21.2746C11.4468 20.7937 11.0667 20.042 11.0667 19.2241C11.0667 17.8187 12.2099 16.6724 13.6184 16.6724C15.0239 16.6724 16.1702 17.8157 16.1702 19.2241C16.1702 19.7627 16.006 20.2724 15.7007 20.7015L17.1724 22.0061L17.3365 22.153H26.5726C26.5985 20.543 27.9089 19.2442 29.5245 19.2384L29.5243 7.71018C27.8884 7.70455 26.5665 6.37967 26.5665 4.74681L26.5666 4.74649ZM11.6914 7.54574H24.3058C24.5045 7.54574 24.6658 7.70706 24.6658 7.90574C24.6658 8.10463 24.5045 8.26574 24.3058 8.26574H11.6914C11.4928 8.26574 11.3314 8.10443 11.3314 7.90574C11.3314 7.70706 11.4928 7.54574 11.6914 7.54574ZM22.3217 9.72019C22.3217 9.83832 22.2239 9.93615 22.1058 9.93615H13.8921C13.774 9.93615 13.6762 9.83832 13.6762 9.72019C13.6762 9.59926 13.774 9.50424 13.8921 9.50424H22.1058C22.2239 9.50424 22.3217 9.59926 22.3217 9.72019ZM26.1148 21.4274H19.894C19.7731 21.4274 19.678 21.3296 19.678 21.2114C19.678 21.0933 19.7731 20.9955 19.894 20.9955H26.1148C26.2329 20.9955 26.3307 21.0933 26.3307 21.2114C26.3307 21.3294 26.2357 21.4274 26.1148 21.4274ZM27.238 16.1282H8.34519C8.22707 16.1282 8.12923 16.0304 8.12923 15.9122C8.12923 15.7941 8.22707 15.6963 8.34519 15.6963H27.2406C27.3587 15.6963 27.4565 15.7941 27.4565 15.9122C27.4537 16.0302 27.3587 16.1282 27.2378 16.1282H27.238ZM27.238 13.1905H8.34519C8.22707 13.1905 8.12923 13.0927 8.12923 12.9746C8.12923 12.8565 8.22707 12.7586 8.34519 12.7586H27.2406C27.3587 12.7586 27.4565 12.8565 27.4565 12.9746C27.4537 13.0925 27.3587 13.1905 27.2378 13.1905H27.238Z" fill="#FFC11B"/>
<path id="Vector_2" d="M13.6149 17.1074C12.4458 17.1074 11.4953 18.0551 11.4953 19.2271C11.4953 19.8289 11.7458 20.3734 12.149 20.7593C12.2499 20.8543 12.3563 20.9407 12.4745 21.0156C12.8027 21.2259 13.1945 21.3469 13.6149 21.3469C13.7445 21.3469 13.8713 21.3354 13.995 21.3123C14.0728 21.2979 14.1477 21.2806 14.2226 21.2577C14.3004 21.2346 14.3753 21.2087 14.4472 21.1771C14.4963 21.157 14.5423 21.1339 14.5883 21.1108C14.7237 21.0417 14.8474 20.9582 14.9627 20.8603C15.0059 20.8258 15.0491 20.7884 15.0895 20.748C15.1413 20.6962 15.1903 20.6444 15.2363 20.5897C15.2823 20.5351 15.3255 20.4774 15.3659 20.417C15.5963 20.077 15.7317 19.6682 15.7317 19.2275C15.7346 18.0548 14.7841 17.1074 13.6149 17.1074L13.6149 17.1074ZM14.2946 19.5842L14.4559 20.5202L13.6149 20.0796L12.774 20.5202L12.9353 19.5842L12.2556 18.9219L13.1946 18.7865L13.6151 17.9369L14.0356 18.7865L14.9741 18.9219L14.2946 19.5842Z" fill="#FFC11B"/>
<path id="Vector_3" d="M15.4247 22.5103L15.4621 23.9302L14.7363 23.2707L14.7622 23.0115L14.8458 22.1505L14.912 21.4679L14.9179 21.4219C15.0906 21.3182 15.2548 21.1973 15.3988 21.0533C15.4075 21.0446 15.4133 21.0388 15.4219 21.0302L16.6863 22.1505L16.885 22.3291L15.4247 22.5103Z" fill="#FFC11B"/>
<path id="Vector_4" d="M14.4562 21.6346L14.4072 22.1529L14.3266 22.9737L14.3065 23.181L14.2806 23.4488L14.2202 24.0738L13.3101 22.8728L12.256 23.8751L12.4374 22.1556L12.5037 21.5248C12.8493 21.6917 13.2266 21.7783 13.6155 21.7783C13.7682 21.7783 13.9236 21.7638 14.0733 21.7379C14.1107 21.7321 14.1452 21.7235 14.1798 21.7148C14.2547 21.6975 14.3294 21.6775 14.4016 21.6544C14.4217 21.6459 14.4389 21.6403 14.4562 21.6345L14.4562 21.6346Z" fill="#FFC11B"/>
</g>
</g>
</svg>
