<svg width="43" height="33" viewBox="0 0 43 33" fill="#333" xmlns="http://www.w3.org/2000/svg">
<g id="noun-online-learning-4272809 1">
<g id="Group">
<path id="Vector" d="M19.264 13.381L18.5397 14.4827L20.141 13.8195C20.3893 13.8909 20.6509 13.9317 20.9196 13.9317C22.4597 13.9317 23.7077 12.684 23.7077 11.1436C23.7077 9.60345 22.46 8.35547 20.9196 8.35547C19.3795 8.35547 18.1315 9.60321 18.1315 11.1436C18.135 12.0583 18.5804 12.8711 19.2639 13.381L19.264 13.381ZM19.3932 12.3507L19.4748 11.8849H19.6143L19.6959 12.3507H19.3932ZM21.9703 11.9326C21.892 12.0073 21.5113 12.3474 20.9232 12.3474C20.335 12.3474 19.9541 12.004 19.8761 11.9326V11.3105L20.8926 11.7832C20.9028 11.7865 20.913 11.7901 20.9199 11.7901C20.9301 11.7901 20.9403 11.7901 20.9505 11.7832L21.9705 11.3105L21.9703 11.9326ZM20.9232 9.93329L22.7762 10.7901L20.9232 11.647L19.6142 11.0385V11.8306H19.4748V10.9737L19.0735 10.7869L20.9232 9.93329Z" fill="#333"/>
<path id="Vector_2" d="M15.1159 17.223V18.668H17.9958V17.223L18.363 18.668H19.4034V18.6647C19.2777 18.2736 18.8324 16.1385 18.6146 15.9414C18.3936 15.7443 18.1624 15.6864 17.938 15.6421V14.221C18.0808 14.1802 18.1863 14.0476 18.1863 13.8911V13.7246C18.1863 13.5683 18.081 13.4355 17.938 13.3947V13.3878C17.9755 12.7963 17.6285 12.2487 17.0778 12.0178C16.9146 11.9497 16.7412 11.9158 16.561 11.9158C16.187 11.9158 15.8232 12.0756 15.5613 12.351C15.2962 12.6299 15.1601 13.0072 15.184 13.3845V13.3947C15.0412 13.4355 14.9357 13.5681 14.9357 13.7246V13.8911C14.9357 14.0474 15.041 14.1802 15.184 14.221V15.6388C14.9561 15.6829 14.7215 15.7408 14.4939 15.9414C14.2728 16.1385 13.8308 18.2773 13.7084 18.6648V18.6681H14.7488L15.1159 17.223ZM16.5676 15.9684C16.2479 15.9684 15.9557 15.8358 15.7449 15.6012C15.8468 15.5434 15.9318 15.472 16.0067 15.3802C16.0577 15.3157 16.1054 15.2476 16.1462 15.1729C16.1462 15.1696 16.1495 15.166 16.1495 15.1627C16.1732 15.1117 16.1971 15.0574 16.2175 15.0029C16.3264 15.0437 16.4386 15.0674 16.561 15.0674C16.6764 15.0674 16.7853 15.047 16.8908 15.0095C16.9181 15.0878 16.952 15.1592 16.9928 15.2272C16.9961 15.2306 16.9961 15.2341 16.9961 15.2374C16.9961 15.2374 16.9995 15.2374 16.9995 15.2407C17.0334 15.2917 17.064 15.3394 17.1015 15.3802C17.183 15.4753 17.2748 15.5503 17.3804 15.6081C17.1695 15.8391 16.8771 15.9684 16.5676 15.9684L16.5676 15.9684ZM17.3972 14.1085C17.3972 14.2138 17.3768 14.3194 17.336 14.4213C17.336 14.4247 17.3327 14.4282 17.3291 14.4315C17.3223 14.4486 17.3156 14.4654 17.3087 14.4792C17.1693 14.5233 17.0028 14.5404 16.8157 14.5404C16.7884 14.4894 16.7341 14.4519 16.666 14.4519H16.4654C16.3736 14.4519 16.2989 14.5266 16.2989 14.6184C16.2989 14.7102 16.3736 14.7849 16.4654 14.7849H16.666C16.7407 14.7849 16.8055 14.7372 16.8259 14.6659H16.8292C16.9687 14.6659 17.0979 14.6523 17.2134 14.6284C17.0604 14.8221 16.8223 14.9379 16.5641 14.9379C16.1051 14.9379 15.7311 14.5639 15.7311 14.1049V13.6562C15.8364 13.646 15.9384 13.6188 16.0439 13.5815C16.0677 13.5746 16.0881 13.5644 16.1085 13.5542C16.3907 13.425 16.6388 13.1904 16.8226 12.8809C16.8973 13.0612 17.0095 13.2141 17.1387 13.3128C17.217 13.3773 17.3052 13.4217 17.3972 13.4421L17.3972 14.1085ZM15.6564 12.4358C15.8945 12.1841 16.2242 12.038 16.5643 12.038C16.7274 12.038 16.884 12.072 17.0301 12.1332C17.2748 12.2351 17.4721 12.4052 17.608 12.616C17.3564 12.3371 16.9824 12.1637 16.5643 12.1637H16.561C16.1393 12.1671 15.762 12.344 15.5103 12.6262C15.5511 12.5582 15.6021 12.497 15.6564 12.4358H15.6564Z" fill="#333"/>
<path id="Vector_3" d="M31.4323 5.13916H11.0663C10.6311 5.13916 10.2775 5.49277 10.2775 5.9211V22.2205C10.2775 22.6557 10.6312 23.0093 11.0663 23.0093H31.436C31.8712 23.0093 32.2248 22.6556 32.2248 22.2205V5.9211C32.2212 5.49278 31.8712 5.13916 31.4324 5.13916H31.4323ZM31.803 20.8162H10.6957V7.32123H31.803V20.8162Z" fill="#333"/>
<path id="Vector_4" d="M27.8185 27.5656C25.7207 27.5656 23.9425 26.1205 23.504 24.1011C23.4803 24.0264 23.4701 23.9413 23.453 23.8564C23.4359 23.7544 23.3441 23.6797 23.2422 23.6797L19.2471 23.6794C19.1451 23.6794 19.0533 23.7542 19.0363 23.8561C19.0192 23.941 19.0125 24.0226 18.9853 24.1009C18.557 26.0966 16.7514 27.5654 14.6876 27.5654C14.5686 27.5654 14.4768 27.6571 14.4768 27.7762V28.8167C14.4768 28.9357 14.5686 29.0275 14.6876 29.0275H27.8146C27.9337 29.0275 28.0255 28.9357 28.0255 28.8167V27.7762C28.0257 27.6574 27.9339 27.5656 27.8182 27.5656H27.8185Z" fill="#333"/>
<path id="Vector_5" d="M24.3167 12.1157H30.379V12.5407H24.3167V12.1157Z" fill="#333"/>
<path id="Vector_6" d="M24.3167 13.248H30.379V13.673H24.3167V13.248Z" fill="#333"/>
<path id="Vector_7" d="M24.3167 14.3839H30.379V14.8089H24.3167V14.3839Z" fill="#333"/>
<path id="Vector_8" d="M24.3167 15.5156H28.9204V15.9406H24.3167V15.5156Z" fill="#333"/>
<path id="Vector_9" d="M24.3167 16.6479H28.9204V17.0729H24.3167V16.6479Z" fill="#333"/>
<path id="Vector_10" d="M24.3167 17.7803H28.22V18.2053H24.3167V17.7803Z" fill="#333"/>
<path id="Vector_11" d="M12.5901 18.994V20.4187L13.8243 19.7046L12.5901 18.994Z" fill="#333"/>
<path id="Vector_12" d="M14.038 19.5793H29.9093V19.8343H14.038V19.5793Z" fill="#333"/>
</g>
</g>
</svg>
