<svg width="44" height="36" viewBox="0 0 44 36" fill="none" xmlns="http://www.w3.org/2000/svg">
<g id="Group">
<path id="Vector" d="M24.0452 28.3092C24.0452 28.6499 23.7699 28.9252 23.4292 28.9252H20.6731C20.3324 28.9252 20.0571 28.6499 20.0571 28.3092C20.0571 27.9685 20.3324 27.6932 20.6731 27.6932H23.4292C23.769 27.6932 24.0452 27.9685 24.0452 28.3092ZM21.6859 17.8309H5.67771C5.33703 17.8309 5.06172 18.1062 5.06172 18.4469C5.06172 18.7876 5.33703 19.0629 5.67771 19.0629H21.6859C22.0266 19.0629 22.3019 18.7876 22.3019 18.4469C22.3019 18.1065 22.0257 17.8309 21.6859 17.8309ZM13.3227 20.669H5.67794C5.33726 20.669 5.06195 20.9443 5.06195 21.285C5.06195 21.6257 5.33726 21.901 5.67794 21.901H13.3224C13.6631 21.901 13.9384 21.6257 13.9384 21.285C13.9387 20.9443 13.6622 20.669 13.3227 20.669H13.3227ZM21.6859 14.9931H5.67771C5.33703 14.9931 5.06172 15.2684 5.06172 15.6091C5.06172 15.9498 5.33703 16.2251 5.67771 16.2251H21.6859C22.0266 16.2251 22.3019 15.9498 22.3019 15.6091C22.3019 15.2684 22.0257 14.9931 21.6859 14.9931ZM21.6859 12.156H5.67771C5.33703 12.156 5.06172 12.4313 5.06172 12.772C5.06172 13.1126 5.33703 13.3879 5.67771 13.3879H21.6859C22.0266 13.3879 22.3019 13.1126 22.3019 12.772C22.3019 12.4313 22.0257 12.156 21.6859 12.156ZM21.6859 9.31788H5.67771C5.33703 9.31788 5.06172 9.59319 5.06172 9.93387C5.06172 10.2746 5.33703 10.5499 5.67771 10.5499H21.6859C22.0266 10.5499 22.3019 10.2746 22.3019 9.93387C22.3019 9.59319 22.0257 9.31788 21.6859 9.31788ZM43.8196 4.75522L39.0006 9.57419C39.6166 10.161 39.98 10.9796 39.98 11.8473V27.9238C39.98 28.642 39.7373 29.3047 39.3306 29.8344H41.3326C41.6733 29.8344 41.9486 30.1097 41.9486 30.4504V31.679C41.9486 33.5702 40.4103 35.1083 38.5193 35.1083L5.58202 35.108C3.6908 35.108 2.15276 33.5697 2.15276 31.6787V30.4501C2.15276 30.1094 2.42806 29.8341 2.76874 29.8341H4.77169C4.3641 29.3043 4.12225 28.6417 4.12225 27.9235V25.9488H0.615987C0.275308 25.9488 0 25.6735 0 25.3328V2.1227C0 1.78202 0.275308 1.50671 0.615987 1.50671H34.3374C34.6781 1.50671 34.9534 1.78202 34.9534 2.1227V4.47309L39.2451 0.180483C39.4142 0.0113735 39.6659 -0.0447975 39.8912 0.0371529C41.7621 0.715754 43.2836 2.2381 43.9631 4.10811C44.0447 4.33401 43.9885 4.58568 43.8194 4.7548L43.8196 4.75522ZM1.23212 2.73907V5.59649H33.7215V2.73907H1.23212ZM1.23212 24.7172H33.7215V14.8533L30.5323 18.0425C30.4786 18.0962 30.4145 18.1401 30.3448 18.1711L23.7306 21.0831C23.6505 21.1184 23.5661 21.135 23.4823 21.135C23.3221 21.135 23.1646 21.0724 23.0468 20.9545C22.8672 20.775 22.8163 20.503 22.9182 20.2707L25.8302 13.6565C25.8609 13.5869 25.9042 13.5227 25.9588 13.469L32.5994 6.82843H1.23197L1.23212 24.7172ZM24.685 19.3166L29.3244 17.275C28.8324 16.0992 27.904 15.1711 26.7276 14.6781L24.685 19.3166ZM40.7168 31.0662H3.3842V31.6788C3.3842 32.8906 4.36972 33.8761 5.58146 33.8761H38.5187C39.7305 33.8761 40.716 32.8906 40.716 31.6788L40.7163 31.0662H40.7168ZM38.1297 10.4451L34.9537 13.6211V25.333C34.9537 25.6737 34.6784 25.949 34.3377 25.949L5.35338 25.9487V27.9234C5.35338 28.9768 6.2106 29.834 7.26393 29.834H36.8383C37.8917 29.834 38.7489 28.9768 38.7489 27.9234V11.8469C38.7489 11.3101 38.519 10.8042 38.1301 10.4451L38.1297 10.4451ZM42.6608 4.17222C42.1028 2.92277 41.0786 1.89827 39.8298 1.3412L34.7742 6.39682L34.7733 6.39774L27.4983 13.6727C28.7374 14.2694 29.7327 15.2647 30.3293 16.5037L42.6608 4.17222Z" fill="#002695"/>
</g>
</svg>
