<svg width="48" height="46" viewBox="0 0 48 46" fill="none" xmlns="http://www.w3.org/2000/svg">
<g id="Group">
<g id="Vector">
<mask id="path-1-outside-1_77_501" maskUnits="userSpaceOnUse" x="14.4971" y="0" width="15" height="19" fill="black">
<rect fill="white" x="14.4971" width="15" height="19"/>
<path d="M28.6245 17.9414H21.0422C20.8779 17.9414 20.7455 17.8078 20.7455 17.6446C20.7455 17.4804 20.8779 17.3479 21.0422 17.3479H28.3277V2.79609C28.3266 2.13447 27.7865 1.59438 27.1249 1.59329H17.2944C16.6317 1.59435 16.0916 2.13445 16.0906 2.79609V17.3479H17.0856C17.2488 17.3479 17.3813 17.4804 17.3813 17.6446C17.3813 17.8078 17.2488 17.9414 17.0856 17.9414H15.7939C15.7158 17.9414 15.6395 17.9096 15.584 17.8545C15.5286 17.799 15.4971 17.7231 15.4971 17.6446V2.79619C15.4982 1.80708 16.3043 1.00099 17.2944 1H27.125C28.1141 1.00106 28.9202 1.80715 28.9212 2.79619V17.6446C28.9212 17.7238 28.8904 17.7979 28.8343 17.8545C28.7788 17.9106 28.7036 17.9414 28.6244 17.9414H28.6245ZM19.0643 17.9414C18.9001 17.9414 18.7676 17.8078 18.7676 17.6446C18.7676 17.4804 18.9001 17.3479 19.0643 17.3479C19.2275 17.3479 19.36 17.4804 19.36 17.6446C19.36 17.8078 19.2275 17.9414 19.0643 17.9414Z"/>
</mask>
<path d="M28.6245 17.9414H21.0422C20.8779 17.9414 20.7455 17.8078 20.7455 17.6446C20.7455 17.4804 20.8779 17.3479 21.0422 17.3479H28.3277V2.79609C28.3266 2.13447 27.7865 1.59438 27.1249 1.59329H17.2944C16.6317 1.59435 16.0916 2.13445 16.0906 2.79609V17.3479H17.0856C17.2488 17.3479 17.3813 17.4804 17.3813 17.6446C17.3813 17.8078 17.2488 17.9414 17.0856 17.9414H15.7939C15.7158 17.9414 15.6395 17.9096 15.584 17.8545C15.5286 17.799 15.4971 17.7231 15.4971 17.6446V2.79619C15.4982 1.80708 16.3043 1.00099 17.2944 1H27.125C28.1141 1.00106 28.9202 1.80715 28.9212 2.79619V17.6446C28.9212 17.7238 28.8904 17.7979 28.8343 17.8545C28.7788 17.9106 28.7036 17.9414 28.6244 17.9414H28.6245ZM19.0643 17.9414C18.9001 17.9414 18.7676 17.8078 18.7676 17.6446C18.7676 17.4804 18.9001 17.3479 19.0643 17.3479C19.2275 17.3479 19.36 17.4804 19.36 17.6446C19.36 17.8078 19.2275 17.9414 19.0643 17.9414Z" fill="#002695"/>
<path d="M28.3277 17.3479V17.4479H28.4277V17.3479H28.3277ZM28.3277 2.79609H28.4277V2.79593L28.3277 2.79609ZM27.1249 1.59329L27.1251 1.49329H27.1249V1.59329ZM17.2944 1.59329V1.49329L17.2942 1.49329L17.2944 1.59329ZM16.0906 2.79609L15.9906 2.79594V2.79609H16.0906ZM16.0906 17.3479H15.9906V17.4479H16.0906V17.3479ZM15.584 17.8545L15.5133 17.9252L15.5136 17.9254L15.584 17.8545ZM15.4971 2.79619L15.3971 2.79609V2.79619H15.4971ZM17.2944 1V0.9L17.2943 0.9L17.2944 1ZM27.125 1L27.1251 0.9H27.125V1ZM28.9212 2.79619H29.0212V2.79609L28.9212 2.79619ZM28.8343 17.8545L28.7633 17.784L28.7631 17.7842L28.8343 17.8545ZM28.6245 17.8414H21.0422V18.0414H28.6245V17.8414ZM21.0422 17.8414C20.9334 17.8414 20.8455 17.7528 20.8455 17.6446H20.6455C20.6455 17.8628 20.8225 18.0414 21.0422 18.0414V17.8414ZM20.8455 17.6446C20.8455 17.5356 20.9332 17.4479 21.0422 17.4479V17.2479C20.8227 17.2479 20.6455 17.4252 20.6455 17.6446H20.8455ZM21.0422 17.4479H28.3277V17.2479H21.0422V17.4479ZM28.4277 17.3479V2.79609H28.2277V17.3479H28.4277ZM28.4277 2.79593C28.4265 2.07921 27.8418 1.49447 27.1251 1.49329L27.1247 1.69329C27.7313 1.69428 28.2267 2.18974 28.2277 2.79625L28.4277 2.79593ZM27.1249 1.49329H17.2944V1.69329H27.1249V1.49329ZM17.2942 1.49329C16.5765 1.49444 15.9916 2.07913 15.9906 2.79594L16.1906 2.79624C16.1915 2.18978 16.6869 1.69426 17.2945 1.69329L17.2942 1.49329ZM15.9906 2.79609V17.3479H16.1906V2.79609H15.9906ZM16.0906 17.4479H17.0856V17.2479H16.0906V17.4479ZM17.0856 17.4479C17.1934 17.4479 17.2813 17.5354 17.2813 17.6446H17.4813C17.4813 17.4254 17.3043 17.2479 17.0856 17.2479V17.4479ZM17.2813 17.6446C17.2813 17.7531 17.1931 17.8414 17.0856 17.8414V18.0414C17.3045 18.0414 17.4813 17.8626 17.4813 17.6446H17.2813ZM17.0856 17.8414H15.7939V18.0414H17.0856V17.8414ZM15.7939 17.8414C15.7425 17.8414 15.6915 17.8202 15.6545 17.7835L15.5136 17.9254C15.5875 17.9989 15.6891 18.0414 15.7939 18.0414V17.8414ZM15.6548 17.7838C15.6181 17.7471 15.5971 17.6966 15.5971 17.6446H15.3971C15.3971 17.7496 15.4391 17.851 15.5133 17.9252L15.6548 17.7838ZM15.5971 17.6446V2.79619H15.3971V17.6446H15.5971ZM15.5971 2.7963C15.5981 1.86237 16.3595 1.10094 17.2945 1.1L17.2943 0.9C16.2491 0.90105 15.3983 1.75179 15.3971 2.79609L15.5971 2.7963ZM17.2944 1.1H27.125V0.9H17.2944V1.1ZM27.1249 1.1C28.0588 1.101 28.8202 1.86241 28.8212 2.79629L29.0212 2.79609C29.0201 1.7519 28.1693 0.901119 27.1251 0.9L27.1249 1.1ZM28.8212 2.79619V17.6446H29.0212V2.79619H28.8212ZM28.8212 17.6446C28.8212 17.6971 28.801 17.746 28.7633 17.784L28.9052 17.925C28.9798 17.8499 29.0212 17.7504 29.0212 17.6446H28.8212ZM28.7631 17.7842C28.7269 17.8209 28.6775 17.8414 28.6244 17.8414V18.0414C28.7297 18.0414 28.8307 18.0004 28.9054 17.9247L28.7631 17.7842ZM28.6244 18.0414H28.6245V17.8414H28.6244V18.0414ZM19.0643 17.8414C18.9555 17.8414 18.8676 17.7528 18.8676 17.6446H18.6676C18.6676 17.8628 18.8446 18.0414 19.0643 18.0414V17.8414ZM18.8676 17.6446C18.8676 17.5356 18.9553 17.4479 19.0643 17.4479V17.2479C18.8448 17.2479 18.6676 17.4252 18.6676 17.6446H18.8676ZM19.0643 17.4479C19.1721 17.4479 19.26 17.5354 19.26 17.6446H19.46C19.46 17.4254 19.283 17.2479 19.0643 17.2479V17.4479ZM19.26 17.6446C19.26 17.7531 19.1718 17.8414 19.0643 17.8414V18.0414C19.2832 18.0414 19.46 17.8626 19.46 17.6446H19.26Z" fill="#002695" mask="url(#path-1-outside-1_77_501)"/>
</g>
<path id="Vector_2" d="M13.6304 17.9915H30.7893C30.9801 17.9915 31.1361 17.8356 31.1361 17.6448C31.1361 17.4528 30.98 17.2981 30.7893 17.2981H13.6304C13.4388 17.2981 13.2826 17.4527 13.2826 17.6448C13.2826 17.8357 13.4387 17.9915 13.6304 17.9915Z" fill="#002695" stroke="#002695" stroke-width="0.1"/>
<path id="Vector_3" d="M17.593 8.84911H26.8277C27.0183 8.84911 27.1744 8.69438 27.1744 8.5024C27.1744 8.31159 27.0185 8.15568 26.8277 8.15568H17.593C17.4011 8.15568 17.2463 8.3117 17.2463 8.5024C17.2463 8.69427 17.4012 8.84911 17.593 8.84911Z" fill="#002695" stroke="#002695" stroke-width="0.1"/>
<path id="Vector_4" d="M17.593 10.6595H26.8277C27.0185 10.6595 27.1744 10.5036 27.1744 10.3128C27.1744 10.1208 27.0184 9.96605 26.8277 9.96605H17.593C17.4012 9.96605 17.2463 10.1209 17.2463 10.3128C17.2463 10.5035 17.4011 10.6595 17.593 10.6595Z" fill="#002695" stroke="#002695" stroke-width="0.1"/>
<path id="Vector_5" d="M22.4076 12.4678H26.8276C27.0183 12.4678 27.1744 12.3131 27.1744 12.1211C27.1744 11.9303 27.0185 11.7744 26.8276 11.7744H22.4076C22.2156 11.7744 22.0608 11.9304 22.0608 12.1211C22.0608 12.313 22.2157 12.4678 22.4076 12.4678Z" fill="#002695" stroke="#002695" stroke-width="0.1"/>
<path id="Vector_6" d="M17.5921 14.2782H21.1577C21.3485 14.2782 21.5045 14.1223 21.5045 13.9315C21.5045 13.7407 21.3486 13.5848 21.1577 13.5848H17.5921C17.4001 13.5848 17.2454 13.7408 17.2454 13.9315C17.2454 14.1222 17.4001 14.2782 17.5921 14.2782Z" fill="#002695" stroke="#002695" stroke-width="0.1"/>
<path id="Vector_7" d="M17.593 16.0873H26.8277C27.0183 16.0873 27.1744 15.9325 27.1744 15.7406C27.1744 15.5498 27.0185 15.3938 26.8277 15.3938H17.593C17.4011 15.3938 17.2463 15.5499 17.2463 15.7406C17.2463 15.9324 17.4012 16.0873 17.593 16.0873Z" fill="#002695" stroke="#002695" stroke-width="0.1"/>
<path id="Vector_8" d="M23.0611 14.2782H25.058C25.2488 14.2782 25.4047 14.1223 25.4047 13.9315C25.4047 13.7407 25.2488 13.5848 25.058 13.5848H23.0611C22.8703 13.5848 22.7144 13.7407 22.7144 13.9315C22.7144 14.1223 22.8703 14.2782 23.0611 14.2782Z" fill="#002695" stroke="#002695" stroke-width="0.1"/>
<path id="Vector_9" d="M17.5929 12.4678H20.3475C20.5382 12.4678 20.6942 12.3131 20.6942 12.1211C20.6942 11.9303 20.5383 11.7744 20.3475 11.7744H17.5929C17.401 11.7744 17.2462 11.9304 17.2462 12.1211C17.2462 12.313 17.4011 12.4678 17.5929 12.4678Z" fill="#002695" stroke="#002695" stroke-width="0.1"/>
<path id="Vector_10" d="M20.8884 3.86717C21.0239 3.7321 21.0238 3.51247 20.8884 3.37711L20.8883 3.37695C20.7562 3.24611 20.5286 3.24587 20.3974 3.37711L19.1808 4.59366L19.1807 4.59377C19.1153 4.65957 19.0793 4.74639 19.0793 4.83883C19.0793 4.93178 19.1148 5.01872 19.1808 5.08472L19.1812 5.08505C19.2252 5.12821 19.2785 5.15861 19.3367 5.174L19.3284 5.18558H19.426C19.5181 5.18558 19.6062 5.14976 19.6712 5.08474L19.6712 5.08474L20.8884 3.86717ZM20.8884 3.86717L20.8531 3.83176L20.8885 3.86711L20.8884 3.86717Z" fill="#002695" stroke="#002695" stroke-width="0.1"/>
<path id="Vector_11" d="M20.398 6.30127L20.398 6.30127L20.3985 6.30172C20.4638 6.36544 20.5504 6.40281 20.6432 6.40281H20.6432C20.7357 6.40281 20.8235 6.36604 20.8889 6.30149L20.8889 6.3015L20.8893 6.30105C20.954 6.23553 20.99 6.14873 20.99 6.05539C20.99 5.96298 20.954 5.87628 20.8894 5.81055L20.8891 5.81019L19.6715 4.59367C19.6715 4.59366 19.6715 4.59366 19.6715 4.59365C19.5403 4.46252 19.3126 4.46252 19.1815 4.59367C19.1159 4.65926 19.0799 4.74617 19.0799 4.83955C19.0799 4.93186 19.1155 5.01878 19.1815 5.08473L20.398 6.30127Z" fill="#002695" stroke="#002695" stroke-width="0.1"/>
<path id="Vector_12" d="M24.9928 5.18593H25.0483L25.0479 5.18159C25.1195 5.17027 25.1861 5.1369 25.2381 5.08466C25.3734 4.94927 25.3734 4.72902 25.238 4.59366L25.238 4.59364L24.0204 3.3771L24.0202 3.37695C23.8881 3.24602 23.6617 3.24602 23.5295 3.37695L23.5295 3.37694L23.529 3.37745C23.4645 3.44318 23.4285 3.52988 23.4285 3.62229C23.4285 3.7154 23.4639 3.8025 23.5302 3.86763L24.7477 5.0851L24.783 5.04974L24.7477 5.0851C24.8127 5.15011 24.9007 5.18593 24.9928 5.18593Z" fill="#002695" stroke="#002695" stroke-width="0.1"/>
<path id="Vector_13" d="M23.775 6.40281L23.775 6.40281H23.7756H23.7756C23.8683 6.40281 23.955 6.3659 24.0202 6.30149L24.0205 6.30129L25.2381 5.08474L25.2381 5.08473C25.3735 4.94934 25.3735 4.72905 25.2381 4.59367C25.1069 4.46252 24.8793 4.46252 24.7481 4.59365C24.7481 4.59366 24.7481 4.59366 24.7481 4.59367L23.5305 5.81019L23.5304 5.81032C23.465 5.87613 23.4289 5.96294 23.4289 6.05539C23.4289 6.14844 23.4649 6.23516 23.5294 6.30093L23.5294 6.30094L23.5301 6.30161C23.5956 6.36586 23.6821 6.40158 23.775 6.40281Z" fill="#002695" stroke="#002695" stroke-width="0.1"/>
<path id="Vector_14" d="M22.5357 6.9147L22.5358 6.91483C22.5821 7.05248 22.7087 7.14719 22.8537 7.1515L22.8536 7.15165H22.8651C22.9013 7.15165 22.9388 7.146 22.9744 7.13298C23.0618 7.10401 23.1331 7.04288 23.1747 6.95976L23.1749 6.95931C23.2151 6.87683 23.2222 6.78319 23.1934 6.69536L23.1933 6.69516L21.8829 2.76391C21.8829 2.76385 21.8829 2.76379 21.8829 2.76373C21.8364 2.62141 21.7033 2.52663 21.5546 2.52663C21.5175 2.52663 21.4809 2.5324 21.4453 2.54387L21.4453 2.54387L21.4447 2.54407C21.2632 2.60511 21.165 2.80143 21.2252 2.98305L21.2252 2.98312L22.5357 6.9147Z" fill="#002695" stroke="#002695" stroke-width="0.1"/>
<path id="Vector_15" d="M36.6791 41.4891H36.6627H6.23603C6.14493 41.4891 6.0547 41.4522 5.99072 41.3874M36.6791 41.4891L6.02621 41.3522M36.6791 41.4891L36.6798 41.4886M36.6791 41.4891L36.6798 41.4886M5.99072 41.3874C5.99069 41.3874 5.99066 41.3874 5.99063 41.3873L6.02621 41.3522M5.99072 41.3874C5.99076 41.3875 5.99081 41.3875 5.99086 41.3876L6.02621 41.3522M5.99072 41.3874C5.9259 41.3225 5.88932 41.2328 5.88932 41.1424V36.9515C5.88932 36.7608 6.04405 36.6048 6.23603 36.6048C6.42684 36.6048 6.58275 36.7607 6.58275 36.9515V40.7956M6.02621 41.3522C5.97075 41.2967 5.93932 41.2197 5.93932 41.1424V36.9515C5.93932 36.7883 6.07178 36.6548 6.23603 36.6548C6.39923 36.6548 6.53275 36.7883 6.53275 36.9515V40.7956H6.58275M6.58275 40.7956H36.6628C36.8535 40.7956 37.0095 40.9503 37.0095 41.1423C37.0095 41.327 36.8632 41.4797 36.6798 41.4886M6.58275 40.7956L36.6798 41.4886M6.5829 30.6726H37.8374V38.7072C37.8374 38.8979 37.9932 39.0538 38.1839 39.0539L6.5829 30.6726ZM6.5829 30.6726V32.9953C6.5829 33.1861 6.42698 33.342 6.23618 33.342C6.04419 33.342 5.88946 33.186 5.88946 32.9953V30.3258C5.88946 30.2345 5.92654 30.1456 5.99078 30.0809C6.05489 30.0156 6.14484 29.9791 6.23618 29.9791H38.1839C38.2753 29.9791 38.3643 30.0162 38.4287 30.0806C38.4934 30.1454 38.5306 30.234 38.5306 30.3258V38.7072C38.5306 38.8979 38.3748 39.0538 38.1841 39.0539L6.5829 30.6726ZM37.8374 40.6853C37.8374 40.8761 37.9933 41.032 38.1841 41.032C38.3749 41.032 38.5308 40.8761 38.5308 40.6853C38.5308 40.4933 38.3748 40.3386 38.1841 40.3386C37.9934 40.3386 37.8374 40.4933 37.8374 40.6853ZM5.88968 34.9734C5.88968 35.1641 6.04441 35.3201 6.2364 35.3201C6.4272 35.3201 6.58311 35.1642 6.58311 34.9734C6.58311 34.7814 6.42709 34.6267 6.2364 34.6267C6.04453 34.6267 5.88968 34.7816 5.88968 34.9734Z" fill="#002695" stroke="#002695" stroke-width="0.1"/>
<path id="Vector_16" d="M18.9251 40.1394L18.9251 40.1394L18.9256 40.1398C18.9903 40.2041 19.0792 40.2413 19.1707 40.2413H27.0754C27.1679 40.2413 27.2547 40.2052 27.3205 40.1398L27.321 40.1393C27.3848 40.0739 27.4221 39.9874 27.4221 39.8945V38.5632C27.4221 38.4715 27.3854 38.3828 27.3206 38.318L27.3205 38.3179C27.2558 38.2536 27.1669 38.2164 27.0754 38.2164H19.1707C19.079 38.2164 18.9903 38.2531 18.9255 38.318L18.9255 38.318L18.9251 38.3183C18.8617 38.383 18.8246 38.4718 18.8246 38.5632V39.8945C18.8246 39.9863 18.8618 40.0748 18.9251 40.1394ZM26.7291 39.5478H19.5177V38.9099H26.7291V39.5478Z" fill="#002695" stroke="#002695" stroke-width="0.1"/>
<path id="Vector_17" d="M16.0249 40.1397L16.025 40.1398C16.0897 40.2041 16.1786 40.2413 16.2701 40.2413H17.6428C17.7352 40.2413 17.822 40.2052 17.8878 40.1398L17.8881 40.1396C17.9535 40.0738 17.9895 39.987 17.9895 39.8945V38.5632C17.9895 38.4718 17.953 38.3819 17.8877 38.3177C17.823 38.2535 17.7342 38.2164 17.6428 38.2164H16.2701C16.1784 38.2164 16.0897 38.2531 16.0249 38.318L16.0249 38.318L16.0248 38.3181C15.9605 38.3828 15.9234 38.4717 15.9234 38.5632V39.8945C15.9234 39.9862 15.9601 40.0749 16.0249 40.1397ZM16.2701 40.1913C16.192 40.1913 16.1157 40.1595 16.0602 40.1044L17.8526 38.3533C17.9081 38.4077 17.9395 38.4847 17.9395 38.5632V39.8945C17.9395 39.9737 17.9088 40.0478 17.8526 40.1044C17.7961 40.1605 17.7219 40.1913 17.6428 40.1913H16.2701ZM17.2957 39.5478H16.6165V38.9099H17.2957V39.5478Z" fill="#002695" stroke="#002695" stroke-width="0.1"/>
<path id="Vector_18" d="M14.9824 40.1044L15.0178 40.1396C15.0832 40.0738 15.1193 39.987 15.1193 39.8945V38.5632C15.1193 38.4715 15.0826 38.3828 15.0177 38.318L15.0176 38.3179C14.9529 38.2536 14.864 38.2164 14.7726 38.2164H13.3998C13.3082 38.2164 13.2195 38.2531 13.1547 38.318L13.1547 38.318L13.1545 38.3181C13.0902 38.3828 13.0531 38.4717 13.0531 38.5632V39.8945C13.0531 39.9862 13.0898 40.0749 13.1547 40.1397L13.1548 40.1398C13.2195 40.2041 13.3084 40.2413 13.3998 40.2413H14.7726C14.8647 40.2413 14.9529 40.2054 15.018 40.1395L14.9824 40.1044ZM14.9824 40.1044C15.0385 40.0478 15.0693 39.9737 15.0693 39.8945V38.5632C15.0693 38.4847 15.0378 38.4088 14.9824 38.3533L13.19 40.1044C13.2455 40.1595 13.3218 40.1913 13.3998 40.1913H14.7726C14.8517 40.1913 14.9269 40.1605 14.9824 40.1044ZM14.4259 38.9099V39.5478H13.7466V38.9099H14.4259Z" fill="#002695" stroke="#002695" stroke-width="0.1"/>
<path id="Vector_19" d="M12.1475 38.318L12.1474 38.3179C12.0827 38.2536 11.9938 38.2164 11.9024 38.2164H10.5296C10.4383 38.2164 10.3483 38.2529 10.2842 38.3182C10.22 38.3829 10.1829 38.4718 10.1829 38.5632V39.8945C10.1829 39.9862 10.2196 40.0748 10.2843 40.1396C10.3483 40.2044 10.4385 40.2413 10.5296 40.2413H11.9024C11.9948 40.2413 12.0816 40.2052 12.1474 40.1398L12.1474 40.1398L12.148 40.1393C12.2117 40.0739 12.2491 39.9874 12.2491 39.8945V38.5632C12.2491 38.4715 12.2124 38.3828 12.1475 38.318ZM11.5557 38.9099V39.5478H10.8764V38.9099H11.5557Z" fill="#002695" stroke="#002695" stroke-width="0.1"/>
<g id="Vector_20">
<mask id="path-21-outside-2_77_501" maskUnits="userSpaceOnUse" x="6.36232" y="37.2664" width="4" height="4" fill="black">
<rect fill="white" x="6.36232" y="37.2664" width="4" height="4"/>
<path d="M9.03211 40.1913H7.65904C7.58097 40.1913 7.50468 40.1595 7.44922 40.1044C7.39376 40.0489 7.36232 39.973 7.36232 39.8945V38.5632C7.36232 38.4851 7.39411 38.4088 7.44922 38.3533C7.50362 38.2979 7.58062 38.2664 7.65904 38.2664H9.03175C9.10982 38.2664 9.18611 38.2982 9.24157 38.3533C9.29703 38.4088 9.32847 38.4847 9.32847 38.5632V39.8945C9.32847 39.9737 9.29774 40.0478 9.24157 40.1044C9.18541 40.1605 9.11123 40.1913 9.03211 40.1913H9.03211ZM7.95583 39.5978H8.73507V38.8599H7.95583V39.5978Z"/>
</mask>
<path d="M9.03211 40.1913H7.65904C7.58097 40.1913 7.50468 40.1595 7.44922 40.1044C7.39376 40.0489 7.36232 39.973 7.36232 39.8945V38.5632C7.36232 38.4851 7.39411 38.4088 7.44922 38.3533C7.50362 38.2979 7.58062 38.2664 7.65904 38.2664H9.03175C9.10982 38.2664 9.18611 38.2982 9.24157 38.3533C9.29703 38.4088 9.32847 38.4847 9.32847 38.5632V39.8945C9.32847 39.9737 9.29774 40.0478 9.24157 40.1044C9.18541 40.1605 9.11123 40.1913 9.03211 40.1913H9.03211ZM7.95583 39.5978H8.73507V38.8599H7.95583V39.5978Z" fill="#002695"/>
<path d="M7.44922 40.1044L7.37851 40.1751L7.37873 40.1753L7.44922 40.1044ZM7.44922 38.3533L7.52016 38.4238L7.52061 38.4234L7.44922 38.3533ZM9.24157 38.3533L9.31229 38.2826L9.31206 38.2824L9.24157 38.3533ZM9.24157 40.1044L9.31229 40.1751L9.31251 40.1749L9.24157 40.1044ZM7.95583 39.5978H7.85583V39.6978H7.95583V39.5978ZM8.73507 39.5978V39.6978H8.83507V39.5978H8.73507ZM8.73507 38.8599H8.83507V38.7599H8.73507V38.8599ZM7.95583 38.8599V38.7599H7.85583V38.8599H7.95583ZM9.03211 40.0913H7.65904V40.2913H9.03211V40.0913ZM7.65904 40.0913C7.60769 40.0913 7.55664 40.0701 7.5197 40.0334L7.37873 40.1753C7.45271 40.2488 7.55426 40.2913 7.65904 40.2913V40.0913ZM7.51993 40.0337C7.48323 39.997 7.46232 39.9465 7.46232 39.8945H7.26232C7.26232 39.9995 7.30428 40.1009 7.37851 40.1751L7.51993 40.0337ZM7.46232 39.8945V38.5632H7.26232V39.8945H7.46232ZM7.46232 38.5632C7.46232 38.5118 7.48345 38.4608 7.52015 38.4238L7.37828 38.2828C7.30478 38.3568 7.26232 38.4584 7.26232 38.5632H7.46232ZM7.52061 38.4234C7.55557 38.3877 7.60657 38.3664 7.65904 38.3664V38.1664C7.55467 38.1664 7.45166 38.208 7.37783 38.2833L7.52061 38.4234ZM7.65904 38.3664H9.03175V38.1664H7.65904V38.3664ZM9.03175 38.3664C9.0831 38.3664 9.13415 38.3876 9.17109 38.4243L9.31206 38.2824C9.23808 38.2089 9.13653 38.1664 9.03175 38.1664V38.3664ZM9.17086 38.424C9.20756 38.4607 9.22847 38.5112 9.22847 38.5632H9.42847C9.42847 38.4582 9.38651 38.3568 9.31229 38.2826L9.17086 38.424ZM9.22847 38.5632V39.8945H9.42847V38.5632H9.22847ZM9.22847 39.8945C9.22847 39.947 9.20835 39.9959 9.17064 40.0339L9.31251 40.1749C9.38713 40.0998 9.42847 40.0003 9.42847 39.8945H9.22847ZM9.17086 40.0337C9.13341 40.0711 9.08465 40.0913 9.03211 40.0913V40.2913C9.13781 40.2913 9.23741 40.2499 9.31229 40.1751L9.17086 40.0337ZM9.03211 40.2913H9.03211V40.0913H9.03211V40.2913ZM7.95583 39.6978H8.73507V39.4978H7.95583V39.6978ZM8.83507 39.5978V38.8599H8.63507V39.5978H8.83507ZM8.73507 38.7599H7.95583V38.9599H8.73507V38.7599ZM7.85583 38.8599V39.5978H8.05583V38.8599H7.85583Z" fill="#002695" mask="url(#path-21-outside-2_77_501)"/>
</g>
<path id="Vector_21" d="M26.4633 36.6511L26.4987 36.6864C26.5641 36.6206 26.6002 36.5338 26.6002 36.4413V35.1099C26.6002 35.0183 26.5635 34.9296 26.4987 34.8648C26.4344 34.8002 26.3447 34.7632 26.2534 34.7632H24.8807C24.7891 34.7632 24.7004 34.7999 24.6356 34.8647L24.6356 34.8647C24.5707 34.9296 24.534 35.0186 24.534 35.1099V36.4413C24.534 36.533 24.5707 36.6216 24.6356 36.6865L24.6357 36.6866C24.7004 36.7509 24.7893 36.788 24.8807 36.788H26.2534C26.3456 36.788 26.4338 36.7522 26.4988 36.6863L26.4633 36.6511ZM26.4633 36.6511C26.5194 36.5946 26.5502 36.5204 26.5502 36.4413V35.1099C26.5502 35.0315 26.5187 34.9556 26.4633 34.9001L24.6709 36.6511C24.7264 36.7062 24.8027 36.738 24.8807 36.738H26.2534C26.3326 36.738 26.4078 36.7073 26.4633 36.6511ZM25.9068 35.4567V36.0946H25.2275V35.4567H25.9068Z" fill="#002695" stroke="#002695" stroke-width="0.1"/>
<path id="Vector_22" d="M23.593 36.6511L23.6285 36.6864C23.6939 36.6206 23.7299 36.5338 23.7299 36.4413V35.1099C23.7299 35.0182 23.6932 34.9296 23.6284 34.8647L23.6283 34.8646C23.5635 34.8003 23.4746 34.7632 23.3832 34.7632H22.0105C21.9188 34.7632 21.8301 34.7999 21.7653 34.8647L21.7653 34.8647L21.7652 34.8649C21.7009 34.9296 21.6638 35.0185 21.6638 35.1099V36.4413C21.6638 36.533 21.7005 36.6216 21.7653 36.6865L21.7654 36.6866C21.8301 36.7509 21.9191 36.788 22.0105 36.788H23.3832C23.4754 36.788 23.5635 36.7522 23.6286 36.6863L23.593 36.6511ZM23.593 36.6511C23.6492 36.5946 23.6799 36.5204 23.6799 36.4413V35.1099C23.6799 35.0315 23.6485 34.9556 23.593 34.9001L21.8007 36.6511C21.8561 36.7062 21.9324 36.738 22.0105 36.738H23.3832C23.4623 36.738 23.5376 36.7073 23.593 36.6511ZM23.0362 35.4567V36.0946H22.3569V35.4567H23.0362Z" fill="#002695" stroke="#002695" stroke-width="0.1"/>
<path id="Vector_23" d="M20.7228 36.6511L20.7583 36.6864C20.8237 36.6206 20.8597 36.5338 20.8597 36.4413V35.1099C20.8597 35.0182 20.823 34.9296 20.7582 34.8647L20.7581 34.8646C20.6933 34.8003 20.6044 34.7632 20.513 34.7632H19.1403C19.0486 34.7632 18.9599 34.7999 18.8951 34.8647L18.8951 34.8647L18.895 34.8649C18.8307 34.9296 18.7936 35.0185 18.7936 35.1099V36.4413C18.7936 36.533 18.8303 36.6216 18.8951 36.6865L18.8952 36.6866C18.9599 36.7509 19.0488 36.788 19.1403 36.788H20.513C20.6052 36.788 20.6933 36.7522 20.7584 36.6863L20.7228 36.6511ZM20.7228 36.6511C20.779 36.5946 20.8097 36.5204 20.8097 36.4413V35.1099C20.8097 35.0315 20.7783 34.9556 20.7228 34.9001L18.9304 36.6511C18.9859 36.7062 19.0622 36.738 19.1403 36.738H20.513C20.5921 36.738 20.6673 36.7073 20.7228 36.6511ZM20.1663 35.4567V36.0946H19.4871V35.4567H20.1663Z" fill="#002695" stroke="#002695" stroke-width="0.1"/>
<path id="Vector_24" d="M17.8526 34.9001C17.7971 34.845 17.7208 34.8132 17.6428 34.8132H16.2701C16.1916 34.8132 16.1146 34.8446 16.0602 34.9001C16.0051 34.9556 15.9734 35.0319 15.9734 35.1099V36.4413C15.9734 36.5197 16.0048 36.5957 16.0602 36.6511L17.8526 34.9001ZM17.8526 34.9001C17.9081 34.9556 17.9395 35.0315 17.9395 35.1099M17.8526 34.9001L17.9395 35.1099M17.9395 35.1099V36.4413M17.9395 35.1099V36.4413M17.9395 36.4413C17.9395 36.5204 17.9088 36.5946 17.8526 36.6511L17.9395 36.4413ZM16.0249 36.6865L16.025 36.6866C16.0897 36.7509 16.1786 36.788 16.2701 36.788H17.6428C17.7352 36.788 17.822 36.752 17.8878 36.6866L17.8881 36.6864C17.9535 36.6206 17.9895 36.5338 17.9895 36.4413V35.1099C17.9895 35.0182 17.9528 34.9296 17.888 34.8647L17.8878 34.8646C17.8231 34.8003 17.7342 34.7632 17.6428 34.7632H16.2701C16.1787 34.7632 16.0888 34.7997 16.0247 34.865C15.9604 34.9297 15.9234 35.0186 15.9234 35.1099V36.4413C15.9234 36.533 15.9601 36.6216 16.0249 36.6865ZM17.2957 35.4567V36.0946H16.6165V35.4567H17.2957Z" fill="#002695" stroke="#002695" stroke-width="0.1"/>
<path id="Vector_25" d="M13.1547 36.6865L13.1548 36.6866C13.2195 36.7509 13.3084 36.788 13.3998 36.788H14.7726C14.865 36.788 14.9518 36.752 15.0176 36.6866L15.0178 36.6864C15.0832 36.6206 15.1193 36.5338 15.1193 36.4413V35.1099C15.1193 35.0182 15.0826 34.9296 15.0177 34.8647L15.0176 34.8646C14.9529 34.8003 14.864 34.7632 14.7726 34.7632H13.3998C13.3082 34.7632 13.2195 34.7999 13.1547 34.8647L13.1547 34.8647L13.1545 34.8649C13.0902 34.9296 13.0531 35.0185 13.0531 35.1099V36.4413C13.0531 36.533 13.0898 36.6216 13.1547 36.6865ZM13.3998 36.738C13.3218 36.738 13.2455 36.7062 13.19 36.6511L14.9824 34.9001C15.0378 34.9556 15.0693 35.0315 15.0693 35.1099V36.4413C15.0693 36.5204 15.0385 36.5946 14.9824 36.6511C14.9259 36.7073 14.8517 36.738 14.7726 36.738H13.3998ZM14.4259 36.0946H13.7466V35.4567H14.4259V36.0946Z" fill="#002695" stroke="#002695" stroke-width="0.1"/>
<path id="Vector_26" d="M12.1122 34.9001C12.0567 34.845 11.9804 34.8132 11.9024 34.8132H10.5296C10.4512 34.8132 10.3742 34.8446 10.3198 34.9001C10.2647 34.9556 10.2329 35.0319 10.2329 35.1099V36.4413C10.2329 36.5197 10.2644 36.5957 10.3198 36.6511L12.1122 34.9001ZM12.1122 34.9001C12.1676 34.9556 12.1991 35.0315 12.1991 35.1099M12.1122 34.9001L12.1991 35.1099M12.1991 35.1099V36.4413M12.1991 35.1099V36.4413M12.1991 36.4413C12.1991 36.5204 12.1673 36.5946 12.1122 36.6511L12.1991 36.4413ZM10.2845 36.6865L10.2846 36.6866C10.3493 36.7509 10.4382 36.788 10.5296 36.788H11.9024C11.9948 36.788 12.0816 36.752 12.1474 36.6866L12.1474 36.6866L12.148 36.686C12.2117 36.6207 12.2491 36.5342 12.2491 36.4413V35.1099C12.2491 35.0182 12.2124 34.9296 12.1475 34.8647L12.1474 34.8646C12.0827 34.8003 11.9938 34.7632 11.9024 34.7632H10.5296C10.4383 34.7632 10.3483 34.7997 10.2842 34.865C10.22 34.9297 10.1829 35.0186 10.1829 35.1099V36.4413C10.1829 36.533 10.2196 36.6216 10.2845 36.6865ZM11.5557 35.4567V36.0946H10.8764V35.4567H11.5557Z" fill="#002695" stroke="#002695" stroke-width="0.1"/>
<g id="Vector_27">
<mask id="path-29-outside-3_77_501" maskUnits="userSpaceOnUse" x="6.36232" y="33.8132" width="4" height="4" fill="black">
<rect fill="white" x="6.36232" y="33.8132" width="4" height="4"/>
<path d="M9.03211 36.738H7.65904C7.58097 36.738 7.50468 36.7062 7.44922 36.6511C7.39376 36.5957 7.36232 36.5197 7.36232 36.4413V35.1099C7.36232 35.0319 7.39411 34.9556 7.44922 34.9001C7.50362 34.8446 7.58062 34.8132 7.65904 34.8132H9.03175C9.10982 34.8132 9.18611 34.845 9.24157 34.9001C9.29703 34.9556 9.32847 35.0315 9.32847 35.1099V36.4413C9.32847 36.5204 9.29774 36.5946 9.24157 36.6511C9.18541 36.7073 9.11123 36.738 9.03211 36.738H9.03211ZM7.95583 36.1446H8.73507V35.4067H7.95583V36.1446Z"/>
</mask>
<path d="M9.03211 36.738H7.65904C7.58097 36.738 7.50468 36.7062 7.44922 36.6511C7.39376 36.5957 7.36232 36.5197 7.36232 36.4413V35.1099C7.36232 35.0319 7.39411 34.9556 7.44922 34.9001C7.50362 34.8446 7.58062 34.8132 7.65904 34.8132H9.03175C9.10982 34.8132 9.18611 34.845 9.24157 34.9001C9.29703 34.9556 9.32847 35.0315 9.32847 35.1099V36.4413C9.32847 36.5204 9.29774 36.5946 9.24157 36.6511C9.18541 36.7073 9.11123 36.738 9.03211 36.738H9.03211ZM7.95583 36.1446H8.73507V35.4067H7.95583V36.1446Z" fill="#002695"/>
<path d="M7.44922 36.6511L7.37851 36.7218L7.37873 36.7221L7.44922 36.6511ZM7.44922 34.9001L7.52016 34.9706L7.52061 34.9701L7.44922 34.9001ZM9.24157 34.9001L9.31229 34.8294L9.31206 34.8292L9.24157 34.9001ZM9.24157 36.6511L9.31229 36.7218L9.31251 36.7216L9.24157 36.6511ZM7.95583 36.1446H7.85583V36.2446H7.95583V36.1446ZM8.73507 36.1446V36.2446H8.83507V36.1446H8.73507ZM8.73507 35.4067H8.83507V35.3067H8.73507V35.4067ZM7.95583 35.4067V35.3067H7.85583V35.4067H7.95583ZM9.03211 36.638H7.65904V36.838H9.03211V36.638ZM7.65904 36.638C7.60769 36.638 7.55664 36.6169 7.5197 36.5802L7.37873 36.7221C7.45271 36.7956 7.55426 36.838 7.65904 36.838V36.638ZM7.51993 36.5804C7.48323 36.5437 7.46232 36.4932 7.46232 36.4413H7.26232C7.26232 36.5462 7.30428 36.6476 7.37851 36.7218L7.51993 36.5804ZM7.46232 36.4413V35.1099H7.26232V36.4413H7.46232ZM7.46232 35.1099C7.46232 35.0586 7.48345 35.0075 7.52015 34.9706L7.37828 34.8296C7.30477 34.9036 7.26232 35.0051 7.26232 35.1099H7.46232ZM7.52061 34.9701C7.55557 34.9345 7.60657 34.9132 7.65904 34.9132V34.7132C7.55467 34.7132 7.45166 34.7548 7.37783 34.8301L7.52061 34.9701ZM7.65904 34.9132H9.03175V34.7132H7.65904V34.9132ZM9.03175 34.9132C9.0831 34.9132 9.13415 34.9343 9.17109 34.971L9.31206 34.8292C9.23808 34.7557 9.13653 34.7132 9.03175 34.7132V34.9132ZM9.17086 34.9708C9.20756 35.0075 9.22847 35.058 9.22847 35.1099H9.42847C9.42847 35.005 9.38651 34.9036 9.31229 34.8294L9.17086 34.9708ZM9.22847 35.1099V36.4413H9.42847V35.1099H9.22847ZM9.22847 36.4413C9.22847 36.4938 9.20835 36.5427 9.17064 36.5806L9.31251 36.7216C9.38713 36.6465 9.42847 36.5471 9.42847 36.4413H9.22847ZM9.17086 36.5804C9.13341 36.6179 9.08465 36.638 9.03211 36.638V36.838C9.13781 36.838 9.23741 36.7967 9.31229 36.7218L9.17086 36.5804ZM9.03211 36.838H9.03211V36.638H9.03211V36.838ZM7.95583 36.2446H8.73507V36.0446H7.95583V36.2446ZM8.83507 36.1446V35.4067H8.63507V36.1446H8.83507ZM8.73507 35.3067H7.95583V35.5067H8.73507V35.3067ZM7.85583 35.4067V36.1446H8.05583V35.4067H7.85583Z" fill="#002695" mask="url(#path-29-outside-3_77_501)"/>
</g>
<path id="Vector_28" d="M24.8807 33.3046H26.2034V33.3046H26.2534C26.346 33.3046 26.4339 33.2674 26.4985 33.2032L26.4987 33.203C26.5641 33.1372 26.6002 33.0503 26.6002 32.9579V31.6265C26.6002 31.5352 26.5637 31.4452 26.4984 31.3811C26.4337 31.3169 26.3448 31.2798 26.2534 31.2798H24.8807C24.789 31.2798 24.7005 31.3169 24.6359 31.3803L24.6359 31.3803L24.6357 31.3805C24.5705 31.4452 24.534 31.5354 24.534 31.6265V32.9579C24.534 33.0496 24.5707 33.1382 24.6356 33.2031L24.6357 33.2032C24.7004 33.2675 24.7893 33.3046 24.8807 33.3046ZM25.9068 31.9733V32.6112H25.2275V31.9733H25.9068Z" fill="#002695" stroke="#002695" stroke-width="0.1"/>
<path id="Vector_29" d="M22.0105 33.3046H23.3332V33.3046H23.3832C23.476 33.3046 23.5626 33.2672 23.6279 33.2035L23.6279 33.2035L23.6285 33.203C23.6939 33.1372 23.7299 33.0503 23.7299 32.9579V31.6265C23.7299 31.5352 23.6934 31.4452 23.6281 31.3811C23.5634 31.3169 23.4746 31.2798 23.3832 31.2798H22.0105C21.9187 31.2798 21.8303 31.3169 21.7656 31.3803L21.7656 31.3803L21.7653 31.3806C21.7007 31.4452 21.6638 31.5353 21.6638 31.6265V32.9579C21.6638 33.0496 21.7005 33.1382 21.7653 33.2031L21.7654 33.2032C21.8301 33.2675 21.9191 33.3046 22.0105 33.3046ZM23.0362 31.9733V32.6112H22.3569V31.9733H23.0362Z" fill="#002695" stroke="#002695" stroke-width="0.1"/>
<path id="Vector_30" d="M19.1403 33.3046H20.463V33.3046H20.513C20.6058 33.3046 20.6924 33.2672 20.7577 33.2035L20.7577 33.2035L20.7583 33.203C20.8237 33.1372 20.8597 33.0503 20.8597 32.9579V31.6265C20.8597 31.5352 20.8232 31.4452 20.7579 31.3811C20.6932 31.3169 20.6044 31.2798 20.513 31.2798H19.1403C19.0485 31.2798 18.9601 31.3169 18.8954 31.3803L18.8954 31.3803L18.8951 31.3806C18.8305 31.4452 18.7936 31.5353 18.7936 31.6265V32.9579C18.7936 33.0496 18.8303 33.1382 18.8951 33.2031L18.8952 33.2032C18.9599 33.2675 19.0488 33.3046 19.1403 33.3046ZM20.1663 31.9733V32.6112H19.4871V31.9733H20.1663Z" fill="#002695" stroke="#002695" stroke-width="0.1"/>
<path id="Vector_31" d="M16.2701 33.3046H17.5928V33.3046H17.6428C17.7356 33.3046 17.8221 33.2672 17.8875 33.2035L17.8875 33.2035L17.8881 33.203C17.9535 33.1372 17.9895 33.0503 17.9895 32.9579V31.6265C17.9895 31.5352 17.953 31.4452 17.8877 31.3811C17.823 31.3169 17.7342 31.2798 17.6428 31.2798H16.2701C16.1783 31.2798 16.0899 31.3169 16.0252 31.3803L16.0252 31.3803L16.0249 31.3806C15.9603 31.4452 15.9234 31.5353 15.9234 31.6265V32.9579C15.9234 33.0484 15.96 33.1382 16.0249 33.2031L16.025 33.2032C16.0897 33.2675 16.1786 33.3046 16.2701 33.3046ZM17.2957 31.9733V32.6112H16.6165V31.9733H17.2957Z" fill="#002695" stroke="#002695" stroke-width="0.1"/>
<path id="Vector_32" d="M13.3998 33.3046H14.7226V33.3046H14.7726C14.8654 33.3046 14.9519 33.2672 15.0173 33.2035L15.0173 33.2035L15.0178 33.203C15.0832 33.1372 15.1193 33.0503 15.1193 32.9579V31.6265C15.1193 31.5352 15.0828 31.4452 15.0175 31.3811C14.9528 31.3169 14.8639 31.2798 14.7726 31.2798H13.3998C13.3081 31.2798 13.2196 31.3169 13.155 31.3803L13.155 31.3803L13.1547 31.3806C13.0901 31.4452 13.0531 31.5353 13.0531 31.6265V32.9579C13.0531 33.0484 13.0898 33.1382 13.1547 33.2031L13.1548 33.2032C13.2195 33.2675 13.3084 33.3046 13.3998 33.3046ZM14.4259 31.9733V32.6112H13.7466V31.9733H14.4259Z" fill="#002695" stroke="#002695" stroke-width="0.1"/>
<path id="Vector_33" d="M12.1471 33.2035L12.1471 33.2035C12.0817 33.2672 11.9952 33.3046 11.9024 33.3046H11.8524V33.3046H10.5296C10.4385 33.3046 10.3483 33.2677 10.2843 33.203C10.2196 33.1381 10.1829 33.0495 10.1829 32.9579V31.6265C10.1829 31.5353 10.2199 31.4452 10.2845 31.3806L12.1471 33.2035ZM12.1471 33.2035L12.148 33.2026M12.1471 33.2035L12.148 33.2026M12.148 33.2026C12.2117 33.1373 12.2491 33.0507 12.2491 32.9579V31.6265C12.2491 31.5352 12.2126 31.4452 12.1473 31.3811C12.0826 31.3169 11.9937 31.2798 11.9024 31.2798H10.5296C10.4381 31.2798 10.3484 31.3167 10.2845 31.3806L12.148 33.2026ZM11.5557 31.9733V32.6112H10.8764V31.9733H11.5557Z" fill="#002695" stroke="#002695" stroke-width="0.1"/>
<path id="Vector_34" d="M7.65904 33.3046H9.03211L9.03211 33.3046C9.12492 33.3046 9.21151 33.2673 9.27659 33.2034L9.27659 33.2034L9.27704 33.203C9.34244 33.1372 9.37847 33.0503 9.37847 32.9579V31.6265C9.37847 31.5352 9.342 31.4452 9.27671 31.3811C9.212 31.3169 9.12312 31.2798 9.03175 31.2798H7.65904C7.56726 31.2798 7.47882 31.3169 7.4142 31.3803L7.4142 31.3803L7.41386 31.3806C7.34929 31.4452 7.31232 31.5353 7.31232 31.6265V32.9579C7.31232 33.0484 7.34891 33.1381 7.41374 33.203C7.47773 33.2677 7.56795 33.3046 7.65904 33.3046ZM8.68507 31.9733V32.6112H8.00583V31.9733H8.68507Z" fill="#002695" stroke="#002695" stroke-width="0.1"/>
<path id="Vector_35" d="M27.5474 36.6865L27.5475 36.6866C27.6122 36.7509 27.7011 36.788 27.7925 36.788H29.1652C29.2583 36.788 29.3452 36.752 29.411 36.6866L29.411 36.6866L29.4115 36.6861C29.476 36.6204 29.512 36.5337 29.512 36.4413V35.1099C29.512 35.0181 29.4748 34.9297 29.4115 34.8651L29.4115 34.8651L29.4111 34.8647C29.3466 34.8002 29.2564 34.7632 29.1652 34.7632H27.7925C27.7009 34.7632 27.6122 34.7999 27.5474 34.8647L27.5474 34.8647L27.5472 34.8649C27.4829 34.9296 27.4458 35.0185 27.4458 35.1099V36.4413C27.4458 36.533 27.4825 36.6216 27.5474 36.6865ZM27.7925 36.738C27.7145 36.738 27.6382 36.7062 27.5827 36.6511V34.9001C27.6382 34.8446 27.7141 34.8132 27.7925 34.8132H29.1652C29.2433 34.8132 29.3207 34.845 29.3758 34.9001C29.4302 34.9556 29.462 35.0315 29.462 35.1099V36.4413C29.462 36.5204 29.4312 36.5946 29.3758 36.6511C29.3193 36.7073 29.2451 36.738 29.1652 36.738H27.7925ZM28.8182 36.0946H28.139V35.4567H28.8182V36.0946Z" fill="#002695" stroke="#002695" stroke-width="0.1"/>
<path id="Vector_36" d="M27.7933 33.3046H29.1152V33.3046H29.1652C29.2575 33.3046 29.3453 33.2674 29.4102 33.2033L29.4105 33.203C29.4759 33.1372 29.512 33.0503 29.512 32.9579V31.6265C29.512 31.5352 29.4756 31.4454 29.4104 31.3813C29.3464 31.3166 29.2563 31.2798 29.1652 31.2798H27.7933C27.7008 31.2798 27.6124 31.3169 27.5477 31.3803L27.5477 31.3803L27.547 31.381C27.483 31.4462 27.4458 31.535 27.4458 31.6265V32.9579C27.4458 33.0484 27.4825 33.1382 27.5474 33.2031L27.5475 33.2032C27.6122 33.2675 27.7008 33.3046 27.7933 33.3046ZM28.8182 31.9733V32.6112H28.139V31.9733H28.8182Z" fill="#002695" stroke="#002695" stroke-width="0.1"/>
<path id="Vector_37" d="M32.2869 36.6511L32.3223 36.6864C32.3877 36.6206 32.4238 36.5338 32.4238 36.4413V35.1099C32.4238 35.0183 32.3871 34.9297 32.3223 34.8649C32.2584 34.8001 32.1681 34.7632 32.077 34.7632H30.7043C30.6127 34.7632 30.524 34.7999 30.4592 34.8647L30.4592 34.8647C30.3943 34.9296 30.3576 35.0186 30.3576 35.1099V36.4413C30.3576 36.533 30.3943 36.6216 30.4592 36.6865L30.4593 36.6866C30.524 36.7509 30.6129 36.788 30.7043 36.788H32.077C32.1692 36.788 32.2574 36.7522 32.3224 36.6863L32.2869 36.6511ZM32.2869 36.6511C32.343 36.5946 32.3738 36.5204 32.3738 36.4413V35.1099C32.3738 35.0315 32.3423 34.9556 32.2869 34.9001L30.4945 36.6511C30.55 36.7062 30.6263 36.738 30.7043 36.738H32.077C32.1562 36.738 32.2314 36.7073 32.2869 36.6511ZM31.73 35.4567V36.0946H31.0508V35.4567H31.73Z" fill="#002695" stroke="#002695" stroke-width="0.1"/>
<path id="Vector_38" d="M30.7043 33.3046H32.027V33.3046H32.077C32.1696 33.3046 32.2575 33.2674 32.3221 33.2032L32.3223 33.203C32.3877 33.1372 32.4238 33.0503 32.4238 32.9579V31.6265C32.4238 31.5352 32.3873 31.4452 32.322 31.3811C32.2573 31.3169 32.1684 31.2798 32.077 31.2798H30.7043C30.6126 31.2798 30.5241 31.3169 30.4595 31.3803L30.4595 31.3803L30.4593 31.3805C30.3941 31.4452 30.3576 31.5354 30.3576 31.6265V32.9579C30.3576 33.0496 30.3943 33.1382 30.4592 33.2031L30.4593 33.2032C30.524 33.2675 30.6129 33.3046 30.7043 33.3046ZM31.73 31.9733V32.6112H31.0508V31.9733H31.73Z" fill="#002695" stroke="#002695" stroke-width="0.1"/>
<g id="Vector_39">
<mask id="path-42-outside-4_77_501" maskUnits="userSpaceOnUse" x="32.3191" y="33.8132" width="4" height="4" fill="black">
<rect fill="white" x="32.3191" y="33.8132" width="4" height="4"/>
<path d="M34.9889 36.738H33.6169C33.5378 36.738 33.4615 36.7062 33.406 36.6511C33.3516 36.5957 33.3191 36.5197 33.3191 36.4413V35.1099C33.3191 35.0319 33.3509 34.9556 33.406 34.9001C33.4615 34.8446 33.5374 34.8132 33.6169 34.8132H34.9885C35.0666 34.8132 35.1439 34.845 35.1983 34.9001C35.2538 34.9556 35.2852 35.0315 35.2852 35.1099V36.4413C35.2852 36.5204 35.2545 36.5946 35.1983 36.6511C35.1432 36.7073 35.069 36.738 34.9889 36.738H34.9889ZM33.913 36.1446H34.6922V35.4067H33.913V36.1446Z"/>
</mask>
<path d="M34.9889 36.738H33.6169C33.5378 36.738 33.4615 36.7062 33.406 36.6511C33.3516 36.5957 33.3191 36.5197 33.3191 36.4413V35.1099C33.3191 35.0319 33.3509 34.9556 33.406 34.9001C33.4615 34.8446 33.5374 34.8132 33.6169 34.8132H34.9885C35.0666 34.8132 35.1439 34.845 35.1983 34.9001C35.2538 34.9556 35.2852 35.0315 35.2852 35.1099V36.4413C35.2852 36.5204 35.2545 36.5946 35.1983 36.6511C35.1432 36.7073 35.069 36.738 34.9889 36.738H34.9889ZM33.913 36.1446H34.6922V35.4067H33.913V36.1446Z" fill="#002695"/>
<path d="M33.406 36.6511L33.3346 36.7212L33.3355 36.7221L33.406 36.6511ZM33.406 34.9001L33.3353 34.8294L33.3351 34.8296L33.406 34.9001ZM35.1983 34.9001L35.1272 34.9703L35.1276 34.9708L35.1983 34.9001ZM35.1983 36.6511L35.1274 36.5806L35.127 36.5811L35.1983 36.6511ZM33.913 36.1446H33.813V36.2446H33.913V36.1446ZM34.6922 36.1446V36.2446H34.7922V36.1446H34.6922ZM34.6922 35.4067H34.7922V35.3067H34.6922V35.4067ZM33.913 35.4067V35.3067H33.813V35.4067H33.913ZM34.9889 36.638H33.6169V36.838H34.9889V36.638ZM33.6169 36.638C33.5643 36.638 33.5133 36.6168 33.4765 36.5802L33.3355 36.7221C33.4096 36.7957 33.5112 36.838 33.6169 36.838V36.638ZM33.4774 36.5811C33.4405 36.5435 33.4191 36.4924 33.4191 36.4413H33.2191C33.2191 36.547 33.2627 36.6478 33.3346 36.7212L33.4774 36.5811ZM33.4191 36.4413V35.1099H33.2191V36.4413H33.4191ZM33.4191 35.1099C33.4191 35.0586 33.4402 35.0075 33.4769 34.9706L33.3351 34.8296C33.2616 34.9036 33.2191 35.0051 33.2191 35.1099H33.4191ZM33.4767 34.9708C33.5133 34.9342 33.5637 34.9132 33.6169 34.9132V34.7132C33.5111 34.7132 33.4096 34.755 33.3353 34.8294L33.4767 34.9708ZM33.6169 34.9132H34.9885V34.7132H33.6169V34.9132ZM34.9885 34.9132C35.0404 34.9132 35.092 34.9347 35.1272 34.9703L35.2695 34.8298C35.1959 34.7553 35.0927 34.7132 34.9885 34.7132V34.9132ZM35.1276 34.9708C35.1643 35.0075 35.1852 35.058 35.1852 35.1099H35.3852C35.3852 35.005 35.3433 34.9036 35.269 34.8294L35.1276 34.9708ZM35.1852 35.1099V36.4413H35.3852V35.1099H35.1852ZM35.1852 36.4413C35.1852 36.4938 35.1651 36.5427 35.1274 36.5806L35.2693 36.7216C35.3439 36.6465 35.3852 36.5471 35.3852 36.4413H35.1852ZM35.127 36.5811C35.0911 36.6176 35.0428 36.638 34.9889 36.638V36.838C35.0953 36.838 35.1954 36.7969 35.2697 36.7212L35.127 36.5811ZM34.9889 36.838H34.9889V36.638H34.9889V36.838ZM33.913 36.2446H34.6922V36.0446H33.913V36.2446ZM34.7922 36.1446V35.4067H34.5922V36.1446H34.7922ZM34.6922 35.3067H33.913V35.5067H34.6922V35.3067ZM33.813 35.4067V36.1446H34.013V35.4067H33.813Z" fill="#002695" mask="url(#path-42-outside-4_77_501)"/>
</g>
<path id="Vector_40" d="M35.1987 31.4164C35.2541 31.4708 35.2856 31.5478 35.2856 31.6263V32.9576C35.2856 33.0368 35.2548 33.1109 35.1987 33.1675L34.9889 33.2537V33.3037H34.9389M35.1987 31.4164L35.2343 31.3813C35.2342 31.3812 35.2341 31.3811 35.234 31.381M35.1987 31.4164C35.1443 31.3613 35.0669 31.3295 34.9889 31.3295H33.6161C33.5388 31.3295 33.4618 31.3613 33.4063 31.4157L34.9389 33.3037M35.1987 31.4164L35.2337 31.3807C35.2338 31.3808 35.2339 31.3809 35.234 31.381M35.234 31.381C35.2992 31.4451 35.3356 31.535 35.3356 31.6263V32.9576C35.3356 33.0501 35.2995 33.1369 35.2341 33.2027L35.234 33.2028C35.1691 33.2678 35.0821 33.3037 34.9889 33.3037H34.9389V33.3037M35.234 31.381C35.17 31.3164 35.0799 31.2795 34.9889 31.2795H33.6161C33.5255 31.2795 33.436 31.3166 33.3713 31.38L33.3713 31.38L33.3707 31.3806C33.307 31.4452 33.2705 31.5352 33.2705 31.6263V32.9576C33.2705 33.0481 33.3071 33.1377 33.3706 33.2025L33.371 33.2028C33.4361 33.268 33.5263 33.3037 33.6161 33.3037H34.9389M34.6422 31.9733V32.6113H33.9629V31.9733H34.6422Z" fill="#002695" stroke="#002695" stroke-width="0.1"/>
<path id="Vector_41" d="M30.4591 40.0571L30.4592 40.0572C30.524 40.1216 30.614 40.1587 30.7043 40.1587H32.077C32.1691 40.1587 32.2573 40.1229 32.3221 40.0569C32.3874 39.9911 32.4234 39.9043 32.4234 39.8119V38.4806C32.4234 38.389 32.3867 38.3004 32.322 38.2356C32.2579 38.1703 32.1676 38.1338 32.0767 38.1338H30.704C30.6123 38.1338 30.5236 38.1705 30.4588 38.2354L30.4588 38.2354C30.3939 38.3002 30.3572 38.3893 30.3572 38.4806V38.4806L30.3576 39.8119C30.3576 39.8119 30.3576 39.812 30.3576 39.812C30.3576 39.9036 30.3943 39.9923 30.4591 40.0571ZM31.7303 38.8273L31.73 39.4652H31.0508L31.0511 38.8273H31.7303Z" fill="#002695" stroke="#002695" stroke-width="0.1"/>
<g id="Vector_42">
<mask id="path-46-outside-5_77_501" maskUnits="userSpaceOnUse" x="32.3191" y="37.1838" width="4" height="4" fill="black">
<rect fill="white" x="32.3191" y="37.1838" width="4" height="4"/>
<path d="M34.9889 40.1087H33.6169C33.5378 40.1087 33.4615 40.0769 33.406 40.0218C33.3516 39.9663 33.3191 39.8904 33.3191 39.8119V38.4806C33.3191 38.4025 33.3509 38.3262 33.406 38.2707C33.4615 38.2153 33.5374 38.1838 33.6169 38.1838H34.9885C35.0666 38.1838 35.1439 38.2153 35.1994 38.2707C35.2538 38.3262 35.2852 38.4021 35.2852 38.4806V39.8119C35.2852 39.8911 35.2545 39.9653 35.1994 40.0218C35.1432 40.0779 35.068 40.1087 34.9889 40.1087H34.9889ZM33.913 39.5152H34.6922V38.7773H33.913V39.5152Z"/>
</mask>
<path d="M34.9889 40.1087H33.6169C33.5378 40.1087 33.4615 40.0769 33.406 40.0218C33.3516 39.9663 33.3191 39.8904 33.3191 39.8119V38.4806C33.3191 38.4025 33.3509 38.3262 33.406 38.2707C33.4615 38.2153 33.5374 38.1838 33.6169 38.1838H34.9885C35.0666 38.1838 35.1439 38.2153 35.1994 38.2707C35.2538 38.3262 35.2852 38.4021 35.2852 38.4806V39.8119C35.2852 39.8911 35.2545 39.9653 35.1994 40.0218C35.1432 40.0779 35.068 40.1087 34.9889 40.1087H34.9889ZM33.913 39.5152H34.6922V38.7773H33.913V39.5152Z" fill="#002695"/>
<path d="M33.406 40.0218L33.3346 40.0918L33.3355 40.0927L33.406 40.0218ZM33.406 38.2707L33.3353 38.2L33.3351 38.2003L33.406 38.2707ZM35.1994 38.2707L35.2708 38.2007L35.2701 38.2L35.1994 38.2707ZM35.1994 40.0218L35.2701 40.0925L35.271 40.0916L35.1994 40.0218ZM33.913 39.5152H33.813V39.6152H33.913V39.5152ZM34.6922 39.5152V39.6152H34.7922V39.5152H34.6922ZM34.6922 38.7773H34.7922V38.6773H34.6922V38.7773ZM33.913 38.7773V38.6773H33.813V38.7773H33.913ZM34.9889 40.0087H33.6169V40.2087H34.9889V40.0087ZM33.6169 40.0087C33.5643 40.0087 33.5133 39.9874 33.4765 39.9508L33.3355 40.0927C33.4096 40.1663 33.5112 40.2087 33.6169 40.2087V40.0087ZM33.4774 39.9517C33.4405 39.9142 33.4191 39.8631 33.4191 39.8119H33.2191C33.2191 39.9177 33.2627 40.0185 33.3346 40.0918L33.4774 39.9517ZM33.4191 39.8119V38.4806H33.2191V39.8119H33.4191ZM33.4191 38.4806C33.4191 38.4292 33.4402 38.3782 33.4769 38.3412L33.3351 38.2003C33.2616 38.2742 33.2191 38.3758 33.2191 38.4806H33.4191ZM33.4767 38.3414C33.5133 38.3049 33.5637 38.2838 33.6169 38.2838V38.0838C33.5111 38.0838 33.4096 38.1257 33.3353 38.2L33.4767 38.3414ZM33.6169 38.2838H34.9885V38.0838H33.6169V38.2838ZM34.9885 38.2838C35.0405 38.2838 35.0923 38.3051 35.1287 38.3414L35.2701 38.2C35.1956 38.1255 35.0926 38.0838 34.9885 38.0838V38.2838ZM35.128 38.3408C35.1642 38.3777 35.1852 38.4285 35.1852 38.4806H35.3852C35.3852 38.3757 35.3434 38.2747 35.2708 38.2007L35.128 38.3408ZM35.1852 38.4806V39.8119H35.3852V38.4806H35.1852ZM35.1852 39.8119C35.1852 39.8645 35.165 39.9138 35.1278 39.952L35.271 40.0916C35.344 40.0167 35.3852 39.9176 35.3852 39.8119H35.1852ZM35.1287 39.9511C35.0915 39.9882 35.0418 40.0087 34.9889 40.0087V40.2087C35.0942 40.2087 35.195 40.1676 35.2701 40.0925L35.1287 39.9511ZM34.9889 40.2087H34.9889V40.0087H34.9889V40.2087ZM33.913 39.6152H34.6922V39.4152H33.913V39.6152ZM34.7922 39.5152V38.7773H34.5922V39.5152H34.7922ZM34.6922 38.6773H33.913V38.8773H34.6922V38.6773ZM33.813 38.7773V39.5152H34.013V38.7773H33.813Z" fill="#002695" mask="url(#path-46-outside-5_77_501)"/>
</g>
<path id="Vector_43" d="M40.5805 36.1291L40.5805 36.1291C40.5816 37.9371 42.0529 39.4073 43.8608 39.4095H43.8609C45.6678 39.4076 47.138 37.9371 47.1402 36.1291V36.1291V32.5388V32.5387C47.1381 30.7319 45.6678 29.2605 43.8609 29.2595L43.8608 29.2595C42.0529 29.2606 40.5815 30.7319 40.5805 32.5387V32.5388L40.5805 36.1291ZM42.0339 30.713C42.5241 30.2228 43.173 29.9533 43.8609 29.9533C44.5476 29.9533 45.1958 30.2231 45.686 30.713C46.1762 31.2032 46.4467 31.8525 46.4467 32.5392V36.1295C46.4467 36.8165 46.1762 37.4644 45.686 37.9557C45.1958 38.4459 44.5475 38.7164 43.8609 38.7164C43.1731 38.7164 42.5241 38.4459 42.0339 37.9557C41.5438 37.4655 41.2743 36.8162 41.2743 36.1295V32.5392C41.2743 31.851 41.5438 31.2031 42.0339 30.713L42.0339 30.713Z" fill="#002695" stroke="#002695" stroke-width="0.1"/>
<path id="Vector_44" d="M40.9281 33.5463H45.4262C45.6166 33.5463 45.7729 33.3904 45.7729 33.1996C45.7729 33.0076 45.6169 32.8528 45.4262 32.8528H40.9281C40.7374 32.8528 40.5813 33.0076 40.5813 33.1996C40.5813 33.3904 40.7372 33.5463 40.9281 33.5463Z" fill="#002695" stroke="#002695" stroke-width="0.1"/>
<path id="Vector_45" d="M43.5141 36.0197C43.5141 36.2116 43.669 36.3664 43.8608 36.3664C44.0515 36.3664 44.2076 36.2117 44.2076 36.0197V33.1988C44.2076 33.0068 44.0515 32.8521 43.8608 32.8521C43.669 32.8521 43.5141 33.0069 43.5141 33.1988V36.0197Z" fill="#002695" stroke="#002695" stroke-width="0.1"/>
<path id="Vector_46" d="M43.5142 29.6056C43.5142 29.7726 43.6315 29.9116 43.7884 29.9448L43.7852 29.9523H43.8608C44.0516 29.9523 44.2075 29.7976 44.2079 29.6057V29.6056L44.1579 29.6056L44.2079 29.6056L44.2079 29.6055V29.6054L44.2079 29.6052L44.2079 29.6048L44.2079 29.604L44.2078 29.602L44.2072 29.5973C44.2071 29.5967 44.207 29.596 44.2069 29.5953V12.7576C44.2069 12.6659 44.1697 12.5774 44.1064 12.5128L44.1064 12.5128L44.1059 12.5123C44.0411 12.448 43.9511 12.4109 43.8609 12.4109H36.89C36.6992 12.4109 36.5433 12.5668 36.5433 12.7576C36.5433 12.9496 36.6993 13.1043 36.89 13.1043H43.5142V29.6056Z" fill="#002695" stroke="#002695" stroke-width="0.1"/>
<path id="Vector_47" d="M6.23605 36.0809H6.28332L6.28353 36.0771C6.45207 36.0538 6.58279 35.9084 6.58279 35.7337C6.58279 35.5428 6.42795 35.3882 6.23746 35.3869H6.23713H1.64342V16.0999L7.52891 16.0995C7.72066 16.0995 7.87563 15.9448 7.87563 15.7539C7.87563 15.562 7.72078 15.4071 7.52891 15.4071H1.29672C1.20494 15.4071 1.1165 15.4443 1.05188 15.5076L1.05188 15.5076L1.05154 15.508C0.986973 15.5725 0.95 15.6627 0.95 15.7539V35.7342C0.95 35.8256 0.987107 35.9145 1.05154 35.979C1.11637 36.0438 1.20643 36.0809 1.29672 36.0809H6.23605Z" fill="#002695" stroke="#002695" stroke-width="0.1"/>
<path id="Vector_48" d="M14.6758 43.8206H40.8468C41.0375 43.8206 41.1936 43.6658 41.1936 43.4738C41.1936 43.283 41.0377 43.1271 40.8468 43.1271H14.6758C14.4838 43.1271 14.3291 43.2831 14.3291 43.4738C14.3291 43.6657 14.4839 43.8206 14.6758 43.8206Z" fill="#002695" stroke="#002695" stroke-width="0.1"/>
<path id="Vector_49" d="M25.8695 44.8053V44.8052C25.8695 44.6144 25.7136 44.4585 25.5227 44.4585H7.41161C7.21963 44.4585 7.0649 44.6145 7.0649 44.8052C7.0649 44.9971 7.21975 45.1519 7.41161 45.1519H25.5218H25.5224C25.7131 45.1519 25.869 44.9972 25.8695 44.8053Z" fill="#002695" stroke="#002695" stroke-width="0.1"/>
<path id="Vector_50" d="M3.29376 45.1519H5.55873C5.74942 45.1519 5.90545 44.9972 5.90545 44.8052C5.90545 44.6144 5.74955 44.4585 5.55873 44.4585H3.29376C3.10295 44.4585 2.94704 44.6144 2.94704 44.8052C2.94704 44.9972 3.10306 45.1519 3.29376 45.1519Z" fill="#002695" stroke="#002695" stroke-width="0.1"/>
<path id="Vector_51" d="M33.2966 45.1138H41.8796C42.0708 45.1138 42.2263 44.9579 42.2263 44.7671C42.2263 44.5763 42.0704 44.4204 41.8796 44.4204H33.2966C33.1058 44.4204 32.9499 44.5763 32.9499 44.7671C32.9499 44.9579 33.1058 45.1138 33.2966 45.1138Z" fill="#002695" stroke="#002695" stroke-width="0.1"/>
<path id="Vector_52" d="M6.03946 26.859C6.03754 27.0165 6.14263 27.1544 6.29459 27.1971L6.29406 27.199H6.30257C6.48358 27.2474 6.67088 27.2721 6.86094 27.2721H37.5571H37.6732L37.6703 27.269C38.8175 27.2093 39.7325 26.2584 39.7332 25.0981V24.5282C39.7332 24.3372 39.5771 24.1826 39.3865 24.1826C39.1947 24.1826 39.0398 24.3373 39.0398 24.5282V25.0979C39.0378 25.9128 38.3727 26.5769 37.5566 26.579H6.86058C6.7336 26.579 6.60744 26.5621 6.48571 26.5306C6.48346 26.5296 6.48119 26.5289 6.47894 26.5282C6.47591 26.5274 6.4732 26.527 6.47106 26.5267C6.28948 26.4805 6.10023 26.5931 6.05113 26.7719L6.05111 26.7719L6.05076 26.7733C6.04417 26.8004 6.03949 26.8292 6.03946 26.859ZM6.03946 26.859C6.03946 26.8591 6.03946 26.8592 6.03946 26.8593H6.08946L6.03946 26.8586C6.03946 26.8588 6.03946 26.8589 6.03946 26.859ZM5.00129 25.1689C4.91138 25.1897 4.83513 25.2438 4.78584 25.3223L4.78584 25.3223L4.78554 25.3228C4.73759 25.401 4.72133 25.4935 4.742 25.5837L4.74203 25.5838C4.7787 25.7416 4.91748 25.8528 5.08039 25.8528H5.0804C5.10648 25.8528 5.13281 25.8494 5.15782 25.8438L5.15794 25.8438C5.34418 25.8012 5.46102 25.6151 5.41806 25.4288L5.41802 25.4286C5.38099 25.271 5.24237 25.1597 5.08039 25.1597C5.0554 25.1597 5.02914 25.1616 5.00129 25.1689ZM5.00129 25.1689C5.00158 25.1689 5.00186 25.1688 5.00215 25.1687L5.01328 25.2175M5.00129 25.1689C5.00101 25.169 5.00073 25.1691 5.00044 25.1691L5.01328 25.2175M5.01328 25.2175C5.03589 25.2115 5.05779 25.2097 5.08039 25.2097C5.21886 25.2097 5.33756 25.3047 5.36934 25.44C5.40608 25.5993 5.30611 25.7586 5.1468 25.795C5.1249 25.8 5.1023 25.8028 5.0804 25.8028H5.08039C4.94086 25.8028 4.82217 25.7078 4.79074 25.5725C4.77307 25.4955 4.78685 25.4163 4.82818 25.3489C4.87057 25.2814 4.93592 25.2351 5.01328 25.2175ZM4.78893 23.0217L4.78893 23.0217C4.85355 22.9584 4.94199 22.9212 5.03376 22.9212H39.3869C39.5776 22.9212 39.7336 23.076 39.7336 23.268C39.7336 23.459 39.5774 23.6136 39.3869 23.6136H5.37066C5.33397 23.7678 5.19646 23.8788 5.03376 23.8789L4.78893 23.0217ZM4.78893 23.0217L4.78859 23.0221M4.78893 23.0217L4.78859 23.0221M4.78859 23.0221C4.72402 23.0866 4.68705 23.1768 4.68705 23.268V23.5322C4.68705 23.7229 4.84287 23.8788 5.03361 23.8789L4.78859 23.0221Z" fill="#002695" stroke="#002695" stroke-width="0.1"/>
<path id="Vector_53" d="M28.8352 17.8547L28.8707 17.8899C28.9361 17.8241 28.9721 17.7373 28.9721 17.6448V15.8437C28.9721 15.653 28.8174 15.497 28.6254 15.497C28.4346 15.497 28.2787 15.6529 28.2787 15.8437V17.2981H16.1418V5.92424C16.1418 5.83308 16.1052 5.74331 16.0403 5.67836L16.0403 5.67836L16.0399 5.67802C15.9755 5.61483 15.8868 5.57682 15.7951 5.57682H7.52935C7.43728 5.57682 7.34891 5.61485 7.28452 5.67802L7.28452 5.67802L7.28418 5.67836C7.21961 5.74292 7.18263 5.83304 7.18263 5.92424V7.0698C7.18263 7.2606 7.33854 7.41651 7.52935 7.41651C7.72133 7.41651 7.87606 7.26049 7.87606 7.0698V7.06874V6.27096H15.4481V17.6449C15.4481 17.7365 15.4848 17.8252 15.5496 17.89L15.5497 17.8902C15.6144 17.9545 15.7034 17.9916 15.7948 17.9916H28.6249V17.9916L28.6266 17.9916C28.7183 17.9913 28.806 17.9554 28.8708 17.8898L28.8352 17.8547ZM28.8352 17.8547C28.7798 17.9108 28.7045 17.9416 28.6254 17.9416L28.3287 17.2981V15.8437C28.3287 15.6805 28.4622 15.547 28.6254 15.547C28.7897 15.547 28.9221 15.6805 28.9221 15.8437V17.6448C28.9221 17.724 28.8914 17.7981 28.8352 17.8547ZM36.8906 23.6145H36.9878L36.9796 23.603C37.0381 23.5876 37.0919 23.557 37.1357 23.513C37.2014 23.448 37.2373 23.3611 37.2373 23.2688V5.9245C37.2373 5.83333 37.2007 5.74356 37.1358 5.67861L37.1358 5.67861L37.1354 5.67827C37.071 5.61509 36.9823 5.57707 36.8906 5.57707H28.6248C28.5328 5.57707 28.4444 5.61511 28.38 5.67827L28.3797 5.67861C28.3151 5.74317 28.2781 5.83329 28.2781 5.9245V11.8875C28.2781 12.0783 28.434 12.2342 28.6248 12.2342C28.8168 12.2342 28.9716 12.0782 28.9716 11.8875V6.27011H36.5439V22.9221H33.8464C33.6557 22.9221 33.4997 23.0768 33.4997 23.2688C33.4997 23.4599 33.6558 23.6145 33.8464 23.6145H36.8906ZM29.8898 23.6145H29.9336L29.9341 23.6109C30.1049 23.5893 30.2366 23.444 30.2366 23.268C30.2366 23.0761 30.0818 22.9213 29.8899 22.9213H7.8761V11.0238C7.8761 10.8319 7.72125 10.6771 7.52938 10.6771C7.3387 10.6771 7.18267 10.8318 7.18267 11.0238V23.2688C7.18267 23.3591 7.21913 23.4489 7.28421 23.5129C7.34907 23.5778 7.4381 23.6145 7.52939 23.6145H29.8898ZM7.18195 9.04706C7.18195 9.22089 7.31135 9.36576 7.47867 9.39016V9.39378H7.52867C7.72065 9.39378 7.87538 9.23776 7.87538 9.04706L7.87538 9.04494L7.87538 9.04461C7.87414 8.85506 7.71942 8.70034 7.52867 8.70034C7.33798 8.70034 7.18195 8.85507 7.18195 9.04706ZM31.5212 23.2688C31.5212 23.4599 31.6773 23.6145 31.8679 23.6145C32.0597 23.6145 32.2146 23.4597 32.2146 23.2688C32.2146 23.0769 32.0598 22.9221 31.8679 22.9221C31.6772 22.9221 31.5212 23.0768 31.5212 23.2688ZM28.2781 13.8656C28.2781 14.0564 28.434 14.2123 28.6249 14.2123C28.8168 14.2123 28.9716 14.0563 28.9716 13.8656C28.9716 13.6749 28.8168 13.5189 28.6249 13.5189C28.4341 13.5189 28.2781 13.6748 28.2781 13.8656Z" fill="#002695" stroke="#002695" stroke-width="0.1"/>
<path id="Vector_54" d="M15.4478 8.64386H15.4978V17.6449C15.4978 17.7233 15.5293 17.7993 15.5847 17.8547C15.6402 17.9098 15.7165 17.9416 15.7945 17.9416H28.6246C28.7037 17.9416 28.7786 17.9112 28.8351 17.8547L16.4742 23.5645C16.6384 23.5645 16.7709 23.432 16.7709 23.2677C16.7709 23.1045 16.6384 22.9721 16.4742 22.9721L9.97367 22.9721L9.97367 22.9221M15.4478 8.64386V8.59386H9.97331L9.97332 8.64386M15.4478 8.64386V17.6449C15.4478 17.7366 15.4845 17.8252 15.5494 17.8901L15.5495 17.8902C15.6142 17.9545 15.7031 17.9916 15.7945 17.9916H28.6246C28.7168 17.9916 28.8045 17.9561 28.8705 17.8901L28.8708 17.8898C28.9353 17.824 28.9713 17.7373 28.9713 17.6449V11.3721C28.9713 11.1802 28.8165 11.0254 28.6246 11.0254C28.4339 11.0254 28.2779 11.1801 28.2779 11.3721V17.2982H16.141V8.29807C16.141 8.20596 16.1045 8.11672 16.0393 8.05266C15.9745 7.98843 15.8857 7.95135 15.7943 7.95135H9.62751C9.53624 7.95135 9.44669 7.98835 9.38197 8.05185L9.38196 8.05184L9.3814 8.05241C9.31773 8.1169 9.28079 8.20689 9.28079 8.29807V23.2677C9.28079 23.3604 9.31779 23.449 9.38162 23.5129L9.41698 23.4775L9.38151 23.5128C9.44615 23.5778 9.53528 23.6144 9.62751 23.6144H16.4627M15.4478 8.64386H9.97332M9.97332 8.64386H9.92331L9.92367 22.9221H9.97367M9.97332 8.64386L9.97367 22.9221M9.97367 22.9221H16.4742C16.6659 22.9221 16.8209 23.0768 16.8209 23.2677C16.8209 23.4596 16.666 23.6145 16.4742 23.6145H16.4627L16.4627 23.6144M16.4627 23.6144L16.463 23.6132L16.4628 23.6131L16.474 23.5644V23.5653V23.6144H16.4627ZM29.5178 8.64382H34.446V22.922H20.4316C20.2401 22.922 20.0838 23.0765 20.0838 23.2677C20.0838 23.4598 20.24 23.6144 20.4316 23.6144H34.7759L34.776 23.6145H34.7928C34.8852 23.6145 34.972 23.5785 35.0375 23.513C35.1033 23.448 35.1391 23.361 35.1391 23.2678V8.29817C35.1391 8.20605 35.1026 8.1168 35.0374 8.05274C34.9726 7.98852 34.8838 7.95145 34.7924 7.95145H29.5069C29.3163 7.95145 29.1602 8.10618 29.1602 8.29816C29.1602 8.48896 29.3161 8.64488 29.5069 8.64488L29.5073 8.64488L29.5083 8.64487L29.5125 8.64461C29.5141 8.64446 29.5159 8.64421 29.5178 8.64382ZM18.1054 23.2677C18.1054 23.4597 18.2614 23.6144 18.4521 23.6144C18.644 23.6144 18.7988 23.4596 18.7988 23.2677C18.7988 23.0768 18.6439 22.922 18.4521 22.922C18.2615 22.922 18.1054 23.0767 18.1054 23.2677ZM28.2782 9.39407C28.2782 9.58487 28.4341 9.74079 28.6249 9.74079C28.8169 9.74079 28.9716 9.58477 28.9716 9.39407C28.9716 9.2022 28.8168 9.04736 28.6249 9.04736C28.4342 9.04736 28.2782 9.20209 28.2782 9.39407Z" fill="#002695" stroke="#002695" stroke-width="0.1"/>
<path id="Vector_55" d="M21.1082 25.0975V25.0976C21.1082 25.7046 21.6022 26.1978 22.2094 26.1978C22.8167 26.1978 23.311 25.705 23.3118 25.0977L23.3118 25.0975C23.3106 24.4904 22.8168 23.9954 22.2095 23.9943L22.2094 23.9943C21.6031 23.9954 21.1093 24.4904 21.1082 25.0975ZM21.8016 25.0976C21.8016 24.8718 21.9851 24.6877 22.2094 24.6877C22.4349 24.6877 22.6182 24.8717 22.6183 25.0975C22.6173 25.3211 22.434 25.5044 22.2094 25.5044C21.9848 25.5044 21.8016 25.3211 21.8016 25.0976Z" fill="#002695" stroke="#002695" stroke-width="0.1"/>
<path id="Vector_56" d="M38.6952 16.8364H38.6567C38.4659 16.8364 38.31 16.6805 38.31 16.4897V4.84809H33.0388H33.0366C32.8458 4.84809 32.6899 4.69218 32.6899 4.50137C32.6899 4.30939 32.846 4.15466 33.0366 4.15466H38.6563C38.7477 4.15466 38.8366 4.19173 38.9013 4.25596C38.9666 4.32007 39.0031 4.41003 39.0031 4.50138L39.0031 16.4895L39.0031 16.4896M38.6952 16.8364L38.6567 16.7863C38.821 16.7863 38.9534 16.6528 38.9531 16.4896H39.0031M38.6952 16.8364L38.6958 16.8341M38.6952 16.8364L38.6958 16.8341M39.0031 16.4896C39.0034 16.6672 38.8692 16.8146 38.6958 16.8341M39.0031 16.4896L38.6958 16.8341" fill="#002695" stroke="#002695" stroke-width="0.1"/>
</g>
</svg>
