<svg width="28" height="28" viewBox="0 0 28 28" fill="none" xmlns="http://www.w3.org/2000/svg">
<mask id="mask0_77_415" style="mask-type:alpha" maskUnits="userSpaceOnUse" x="1" y="1" width="26" height="26">
<path d="M14.0012 2.3335L17.0655 4.56883L20.8589 4.56183L22.0238 8.1715L25.0968 10.3952L23.9179 14.0002L25.0968 17.6052L22.0238 19.8288L20.8589 23.4385L17.0655 23.4315L14.0012 25.6668L10.937 23.4315L7.14356 23.4385L5.97864 19.8288L2.90564 17.6052L4.08456 14.0002L2.90564 10.3952L5.97864 8.1715L7.14356 4.56183L10.937 4.56883L14.0012 2.3335Z" fill="white" stroke="white" stroke-width="2.33333" stroke-linecap="round" stroke-linejoin="round"/>
<path d="M9.91827 14.0002L12.8349 16.9168L18.6683 11.0835" stroke="black" stroke-width="2.33333" stroke-linecap="round" stroke-linejoin="round"/>
</mask>
<g mask="url(#mask0_77_415)">
<path d="M0 0H28V28H0V0Z" fill="#FFC11B"/>
</g>
<g clip-path="url(#clip0_77_415)">
<path d="M18.9233 9.84875C19.1828 10.048 19.3527 10.3421 19.3954 10.6665C19.4381 10.9909 19.3503 11.319 19.1511 11.5787L14.0948 18.1677C13.9667 18.3346 13.8029 18.4708 13.6154 18.5662C13.4279 18.6616 13.2214 18.7138 13.0111 18.7191C12.8008 18.7243 12.5919 18.6825 12.3999 18.5965C12.2078 18.5106 12.0375 18.3828 11.9012 18.2225L9.24655 15.0999C9.03461 14.8505 8.93042 14.5271 8.95689 14.2009C8.98337 13.8747 9.13835 13.5724 9.38773 13.3605C9.63711 13.1485 9.96048 13.0443 10.2867 13.0708C10.6129 13.0973 10.9152 13.2523 11.1272 13.5016L12.9336 15.6269L17.193 10.0766C17.2917 9.94799 17.4147 9.84011 17.555 9.75907C17.6954 9.67804 17.8503 9.62545 18.011 9.60429C18.1716 9.58314 18.3349 9.59384 18.4914 9.63578C18.648 9.67773 18.7947 9.7501 18.9233 9.84875Z" fill="white"/>
</g>
<defs>
<clipPath id="clip0_77_415">
<rect width="11.2821" height="11.2821" fill="white" transform="translate(9.20328 7.58325) rotate(8.25393)"/>
</clipPath>
</defs>
</svg>
