<svg width="24" height="25" viewBox="0 0 24 25" fill="none" xmlns="http://www.w3.org/2000/svg">
<circle cx="12.0002" cy="12.1808" r="11.3936" stroke="white" stroke-opacity="0.85" stroke-width="1.08511"/>
<g clip-path="url(#clip0_77_327)">
<path fill-rule="evenodd" clip-rule="evenodd" d="M9.53977 6.24845C10.1762 6.21916 10.3791 6.21265 12.0003 6.21265C13.6214 6.21265 13.8243 6.2197 14.4602 6.24845C15.0961 6.27721 15.5301 6.37867 15.9099 6.5257C16.3076 6.67599 16.6684 6.91091 16.9668 7.21474C17.2706 7.5126 17.505 7.87286 17.6547 8.27109C17.8023 8.65088 17.9032 9.08492 17.9325 9.71971C17.9618 10.3572 17.9683 10.5601 17.9683 12.1807C17.9683 13.8019 17.9613 14.0048 17.9325 14.6412C17.9038 15.276 17.8023 15.71 17.6547 16.0898C17.505 16.4881 17.2702 16.849 16.9668 17.1473C16.6684 17.4511 16.3076 17.6855 15.9099 17.8352C15.5301 17.9828 15.0961 18.0837 14.4613 18.113C13.8243 18.1423 13.6214 18.1488 12.0003 18.1488C10.3791 18.1488 10.1762 18.1418 9.53977 18.113C8.90498 18.0843 8.47094 17.9828 8.09115 17.8352C7.69288 17.6855 7.33203 17.4507 7.03372 17.1473C6.7301 16.8492 6.49513 16.4885 6.34522 16.0904C6.19819 15.7106 6.09727 15.2765 6.06797 14.6418C6.03868 14.0043 6.03217 13.8013 6.03217 12.1807C6.03217 10.5596 6.03922 10.3567 6.06797 9.7208C6.09673 9.08492 6.19819 8.65088 6.34522 8.27109C6.49536 7.8729 6.7305 7.51223 7.03426 7.2142C7.33214 6.91064 7.69263 6.67568 8.09061 6.5257C8.4704 6.37867 8.90444 6.27775 9.53923 6.24845H9.53977ZM14.4119 7.32271C13.7825 7.29395 13.5937 7.28799 12.0003 7.28799C10.4068 7.28799 10.218 7.29395 9.5886 7.32271C9.00644 7.3493 8.69068 7.44641 8.48017 7.52834C8.20184 7.63685 8.00272 7.76543 7.79384 7.97432C7.59583 8.16695 7.44344 8.40146 7.34786 8.66065C7.26593 8.87116 7.16881 9.18692 7.14223 9.76908C7.11347 10.3984 7.10751 10.5873 7.10751 12.1807C7.10751 13.7742 7.11347 13.963 7.14223 14.5924C7.16881 15.1745 7.26593 15.4903 7.34786 15.7008C7.44335 15.9596 7.5958 16.1945 7.79384 16.3871C7.98644 16.5852 8.22137 16.7376 8.48017 16.8331C8.69068 16.9151 9.00644 17.0122 9.5886 17.0388C10.218 17.0675 10.4062 17.0735 12.0003 17.0735C13.5943 17.0735 13.7825 17.0675 14.4119 17.0388C14.9941 17.0122 15.3098 16.9151 15.5203 16.8331C15.7987 16.7246 15.9978 16.596 16.2067 16.3871C16.4047 16.1945 16.5572 15.9596 16.6526 15.7008C16.7346 15.4903 16.8317 15.1745 16.8583 14.5924C16.887 13.963 16.893 13.7742 16.893 12.1807C16.893 10.5873 16.887 10.3984 16.8583 9.76908C16.8317 9.18692 16.7346 8.87116 16.6526 8.66065C16.5441 8.38232 16.4155 8.1832 16.2067 7.97432C16.014 7.77632 15.7795 7.62394 15.5203 7.52834C15.3098 7.44641 14.9941 7.3493 14.4119 7.32271ZM11.238 14.0205C11.6637 14.1977 12.1377 14.2217 12.5791 14.0882C13.0205 13.9547 13.4019 13.6722 13.6581 13.2888C13.9143 12.9053 14.0294 12.4449 13.9839 11.986C13.9383 11.5271 13.7348 11.0983 13.4082 10.7728C13.2 10.5647 12.9482 10.4054 12.671 10.3063C12.3938 10.2072 12.0981 10.1708 11.8052 10.1997C11.5123 10.2286 11.2294 10.322 10.9769 10.4734C10.7244 10.6247 10.5086 10.8302 10.3451 11.0749C10.1815 11.3197 10.0743 11.5976 10.0311 11.8888C9.98784 12.18 10.0097 12.4771 10.0951 12.7588C10.1805 13.0405 10.3273 13.2998 10.5249 13.518C10.7225 13.7361 10.966 13.9078 11.238 14.0205ZM9.83112 10.0116C10.116 9.72675 10.4541 9.50079 10.8263 9.34663C11.1985 9.19247 11.5974 9.11312 12.0003 9.11312C12.4031 9.11312 12.802 9.19247 13.1742 9.34663C13.5464 9.50079 13.8845 9.72675 14.1694 10.0116C14.4542 10.2965 14.6802 10.6346 14.8344 11.0068C14.9885 11.379 15.0679 11.7779 15.0679 12.1807C15.0679 12.5836 14.9885 12.9825 14.8344 13.3547C14.6802 13.7268 14.4542 14.065 14.1694 14.3499C13.5941 14.9251 12.8138 15.2483 12.0003 15.2483C11.1867 15.2483 10.4064 14.9251 9.83112 14.3499C9.25583 13.7746 8.93264 12.9943 8.93264 12.1807C8.93264 11.3672 9.25583 10.5869 9.83112 10.0116ZM15.7482 9.56997C15.8188 9.50338 15.8753 9.4233 15.9144 9.33448C15.9535 9.24566 15.9743 9.1499 15.9758 9.05287C15.9772 8.95584 15.9591 8.85952 15.9226 8.7696C15.8861 8.67968 15.832 8.59799 15.7634 8.52937C15.6948 8.46075 15.6131 8.4066 15.5232 8.37012C15.4332 8.33364 15.3369 8.31557 15.2399 8.31698C15.1428 8.3184 15.0471 8.33927 14.9583 8.37835C14.8694 8.41744 14.7894 8.47395 14.7228 8.54454C14.5933 8.68182 14.5224 8.86417 14.5251 9.05287C14.5279 9.24158 14.6041 9.42178 14.7375 9.55523C14.871 9.68868 15.0512 9.76487 15.2399 9.76762C15.4286 9.77037 15.6109 9.69947 15.7482 9.56997Z" fill="white" fill-opacity="0.85"/>
</g>
<defs>
<clipPath id="clip0_77_327">
<rect width="13.0213" height="13.0213" fill="white" transform="translate(5.48941 5.66992)"/>
</clipPath>
</defs>
</svg>
