<svg width="48" height="28" viewBox="0 0 48 28" fill="#333" xmlns="http://www.w3.org/2000/svg">
<g id="noun-internship-4883356 1">
<g id="Group">
<path id="Vector" d="M35.2566 13.8984C35.2566 14.291 34.9574 14.5528 34.6581 14.5528H32.8026C32.4435 14.5528 32.204 14.2256 32.204 13.8984V12.6552H27.1164V13.8984C27.1164 14.291 26.8171 14.5528 26.5178 14.5528H24.6623C24.3032 14.5528 24.0637 14.2256 24.0637 13.8984V12.0008L23.1659 12.3934L22.0287 12.9169V18.1517C22.0287 18.4789 21.7893 18.806 21.49 18.806C21.071 18.8715 20.7119 18.8715 20.2929 18.9369V19.2641C20.2929 19.6567 20.5922 19.9184 20.8914 19.9184H38.4888C38.848 19.9184 39.0874 19.5913 39.0874 19.2641V10.7576C38.0698 11.87 36.753 12.5243 35.3165 12.5897V13.8984H35.2566Z" fill="#333"/>
<path id="Vector_2" d="M25.2005 10.6925H25.799V13.179H25.2005V10.6925Z" fill="#333"/>
<path id="Vector_3" d="M14.3056 23.125L13.348 21.8163V17.6285C15.802 17.7594 18.2561 17.6939 20.7098 17.4322V13.3752L16.1608 15.4037C16.101 15.4692 15.9812 15.4692 15.9214 15.4692C15.8615 15.4692 15.7418 15.4692 15.682 15.4037L13.4075 14.3568L12.1505 13.8333L11.133 13.3752V17.4322C11.4921 17.4976 11.7914 17.4976 12.1505 17.5631V21.8163L11.1928 23.0596C10.9534 23.3868 11.133 23.8448 11.552 23.8448H14.006C14.3652 23.9757 14.5447 23.4522 14.3053 23.125H14.3056Z" fill="#333"/>
<path id="Vector_4" d="M38.429 6.24289H33.2814V6.11202C33.2814 4.67246 32.204 3.49463 30.8872 3.49463H28.493C27.1762 3.49463 26.0988 4.67246 26.0988 6.11202V6.24289H20.8914C20.5323 6.24289 20.2929 6.57006 20.2929 6.89724V8.20593L24.0637 9.90724C24.1236 9.58006 24.363 9.31833 24.6623 9.31833H26.5178C26.8769 9.31833 27.1164 9.6455 27.1164 9.97267V11.2159H32.204V9.97267C32.204 9.58006 32.5033 9.31833 32.8026 9.31833H34.6581C35.0172 9.31833 35.2566 9.6455 35.2566 9.97267V11.2159C36.5136 11.1505 37.6509 10.4962 38.429 9.44919L39.0275 8.59854V6.89724C39.0275 6.57006 38.7282 6.24289 38.429 6.24289ZM31.9646 6.24289H27.2959V6.11202C27.2959 5.39224 27.8346 4.86876 28.4332 4.86876H30.8274C31.4858 4.86876 31.9646 5.45767 31.9646 6.11202V6.24289Z" fill="#333"/>
<path id="Vector_5" d="M33.3994 10.6925V13.179H33.9979V10.6925H33.3994Z" fill="#333"/>
<path id="Vector_6" d="M14.0069 13.2447L15.8624 14.0953L21.0099 11.8051H21.0698L22.9253 11.0199L19.334 9.44947L15.8624 7.8136L8.85902 10.9545L10.7145 11.7397H10.7744L12.6897 12.5903L14.0069 13.2447Z" fill="#333"/>
</g>
</g>
</svg>
