<svg width="53" height="27" viewBox="0 0 53 27" fill="#333" xmlns="http://www.w3.org/2000/svg">
<g id="noun-discussion-2383344 1">
<g id="Group">
<path id="Vector" d="M33.0427 4.98763H26.1991C25.5694 4.98763 25.0654 5.49138 25.0654 6.12134V7.08696H26.2829C27.5844 7.08696 28.5922 8.13662 28.5922 9.39629V11.8734H29.6C30.0618 12.5031 30.9855 13.5527 32.0352 14.0568C32.1192 14.0987 32.203 14.0987 32.2871 14.0987C32.413 14.0987 32.5811 14.0568 32.6649 13.9309C32.8327 13.763 32.8749 13.553 32.7908 13.3012C32.5389 12.7553 32.4549 12.2515 32.4549 11.8315H33.0008C33.6305 11.8315 34.1345 11.3278 34.1345 10.6978V6.07912C34.1764 5.49133 33.6726 4.98755 33.0427 4.98755L33.0427 4.98763Z" fill="#333"/>
<path id="Vector_2" d="M26.2831 8.26245H19.4395C18.8099 8.26245 18.3058 8.7662 18.3058 9.39616V14.0148C18.3058 14.6445 18.8096 15.1485 19.4395 15.1485H19.9855C19.9855 15.5685 19.9014 16.0722 19.6495 16.6182C19.5655 16.8282 19.6076 17.0801 19.7755 17.2479C19.9014 17.332 20.0273 17.4157 20.1533 17.4157C20.2373 17.4157 20.3211 17.4157 20.4051 17.3738C21.4548 16.8701 22.3367 15.8204 22.8404 15.1905H26.2834C26.9131 15.1905 27.4171 14.6867 27.4171 14.0567V9.43808C27.4168 8.76623 26.9131 8.26246 26.2831 8.26246L26.2831 8.26245Z" fill="#333"/>
<path id="Vector_3" d="M13.9807 15.5261C13.3929 15.7361 12.805 15.8621 12.1751 15.8621C11.5454 15.8621 10.9576 15.7361 10.3698 15.5261C8.4383 15.6939 6.84304 17.2054 6.5912 19.137L6.29715 21.5303C6.25527 22.0341 6.63308 22.496 7.1368 22.496H17.1296C17.6333 22.496 18.0533 22.0341 17.9692 21.5303L17.6752 19.0951C17.4655 17.2058 15.9118 15.6943 13.9806 15.5261H13.9807Z" fill="#333"/>
<path id="Vector_4" d="M16.0802 10.5297C16.0802 12.6865 14.3321 14.4346 12.1753 14.4346C10.0189 14.4346 8.27071 12.6865 8.27071 10.5297C8.27071 8.37326 10.0189 6.62512 12.1753 6.62512C14.3321 6.62512 16.0802 8.37326 16.0802 10.5297Z" fill="#333"/>
<path id="Vector_5" d="M45.8901 19.137C45.6382 17.1636 44.0848 15.6939 42.1533 15.5261C41.6073 15.7361 40.9776 15.8621 40.348 15.8621C39.7183 15.8621 39.1305 15.7361 38.5427 15.5261C36.6112 15.6939 35.0159 17.2054 34.7641 19.137L34.47 21.5303C34.4281 22.0341 34.806 22.496 35.3097 22.496H45.3025C45.8062 22.496 46.2262 22.0341 46.1421 21.5303L45.8901 19.137Z" fill="#333"/>
<path id="Vector_6" d="M44.2531 10.5297C44.2531 12.6865 42.5049 14.4346 40.3485 14.4346C38.192 14.4346 36.4436 12.6865 36.4436 10.5297C36.4436 8.37326 38.192 6.62512 40.3485 6.62512C42.5049 6.62512 44.2531 8.37326 44.2531 10.5297Z" fill="#333"/>
</g>
</g>
</svg>
