<svg width="43" height="43" viewBox="0 0 43 43" fill="none" xmlns="http://www.w3.org/2000/svg">
<g id="Group">
<path id="Vector" d="M2.82159 19.1111C2.82159 14.6759 6.40529 11.0619 10.8291 11.0126V12.1948C7.05715 12.244 4.00369 15.3277 4.00369 19.1111C4.00369 22.9251 7.10665 26.028 10.9206 26.028C14.704 26.028 17.7877 22.9746 17.8369 19.2026H19.0191C18.9699 23.6264 15.3558 27.2101 10.9206 27.2101C6.4548 27.2101 2.82159 23.5769 2.82159 19.1111Z" fill="#002695" stroke="#F8F9FF" stroke-width="0.182979"/>
<path id="Vector_2" d="M23.1148 8.87291C23.1148 9.95134 22.2371 10.829 21.1587 10.829C20.0803 10.829 19.2026 9.95134 19.2026 8.87291C19.2026 7.79448 20.0803 6.91678 21.1587 6.91678C22.2371 6.91678 23.1148 7.79448 23.1148 8.87291ZM21.9327 8.87291C21.9327 8.44571 21.5852 8.09888 21.1587 8.09888C20.7322 8.09888 20.3847 8.44571 20.3847 8.87291C20.3847 9.3001 20.7322 9.64694 21.1587 9.64694C21.5852 9.64694 21.9327 9.3001 21.9327 8.87291Z" fill="#002695" stroke="#F8F9FF" stroke-width="0.182979"/>
<path id="Vector_3" d="M25.845 8.8729C25.845 11.4563 23.7426 13.5592 21.1587 13.5592C18.5748 13.5592 16.4724 11.4563 16.4724 8.8729C16.4724 6.28952 18.5748 4.18661 21.1587 4.18661C23.7426 4.18661 25.845 6.28952 25.845 8.8729ZM24.6629 8.8729C24.6629 6.94052 23.0911 5.36871 21.1587 5.36871C19.2263 5.36871 17.6545 6.94052 17.6545 8.8729C17.6545 10.8053 19.2263 12.3771 21.1587 12.3771C23.0911 12.3771 24.6629 10.8053 24.6629 8.8729Z" fill="#002695" stroke="#F8F9FF" stroke-width="0.182979"/>
<path id="Vector_4" d="M13.5645 4.04812L16.3344 1.27913L17.5379 2.48901L17.538 2.48918C17.8015 2.75265 18.2002 2.81107 18.571 2.65579C18.9639 2.49298 19.2025 2.173 19.2025 1.80228V0.091703H23.1148V1.80228C23.1148 2.17121 23.3515 2.49217 23.717 2.64327C24.1155 2.81162 24.5148 2.75436 24.7793 2.48909L24.7794 2.48901L25.9829 1.27942L28.7528 4.04841L27.5436 5.25245C27.2817 5.51269 27.2228 5.91997 27.3761 6.28602C27.5371 6.67466 27.8639 6.91716 28.2306 6.91716H29.9402V10.8294H28.2306C27.8955 10.8294 27.5982 11.0248 27.4323 11.3406L27.4319 11.3414C27.4171 11.3702 27.3955 11.4188 27.3839 11.4446C27.3807 11.452 27.3782 11.4576 27.377 11.4602L27.3769 11.4602L27.3756 11.4634C27.2208 11.8338 27.28 12.2309 27.5434 12.4942L27.5435 12.4944L28.7528 13.6985L25.983 16.4675L24.7794 15.2576L24.7794 15.2575C24.5158 14.9929 24.1164 14.9356 23.7463 15.0908C23.3534 15.2536 23.1148 15.5736 23.1148 15.9443V17.6549H19.2025V15.9443C19.2025 15.5755 18.9668 15.2545 18.6003 15.103C18.2017 14.9346 17.8032 14.992 17.538 15.2571L17.5379 15.2573L16.3344 16.4672L13.5645 13.6982L14.7738 12.4941L14.7739 12.4939C15.0317 12.2362 15.0935 11.8507 14.9519 11.487L14.952 11.4864L14.9413 11.4605C14.7805 11.0718 14.4534 10.8293 14.0867 10.8293H12.3771V6.91705L14.0861 6.91676C14.0861 6.91676 14.0861 6.91676 14.0861 6.91676C14.4507 6.91675 14.7788 6.67548 14.9281 6.31442C15.0929 5.92181 15.036 5.51357 14.7738 5.25274L13.5645 4.04812ZM13.6507 8.0993H13.5592L13.5592 8.19079L13.5592 9.55584L13.5592 9.64733H13.6507H14.0868C14.925 9.64733 15.6845 10.1686 16.0213 10.9786L16.0214 10.9789C16.3752 11.8213 16.2067 12.7348 15.6085 13.3303L15.6085 13.3303L15.3035 13.6341L15.2385 13.6988L15.3034 13.7636L16.2677 14.728L16.3326 14.7928L16.3972 14.7279L16.7004 14.4235L16.7005 14.4234C17.2964 13.824 18.2089 13.6555 19.0298 14.0008L19.0302 14.001C19.8639 14.3473 20.3846 15.1076 20.3846 15.9443V16.3812V16.4727H20.4761H21.8412H21.9327V16.3812V15.9443C21.9327 15.107 22.4539 14.3475 23.2648 14.011L23.2652 14.0109C24.1075 13.6562 25.021 13.8262 25.6166 14.4244L25.6166 14.4245L25.9204 14.7289L25.9851 14.7937L26.0499 14.7289L27.0143 13.7646L27.0791 13.6997L27.0141 13.635L26.7091 13.3312L26.7091 13.3312C26.1102 12.7353 25.9423 11.8217 26.2865 11.003L26.2871 11.0033L26.2888 10.9973C26.292 10.9903 26.2966 10.9801 26.302 10.968C26.3097 10.951 26.319 10.9303 26.3282 10.9101C26.35 10.8625 26.3736 10.8122 26.3883 10.7851L26.3888 10.7841C26.7584 10.0831 27.466 9.64736 28.2305 9.64736H28.6665H28.758V9.55587V8.19079V8.0993H28.6665H28.2305C27.3923 8.0993 26.6327 7.57805 26.296 6.76805L26.2959 6.76773C25.9417 5.92469 26.1112 5.01066 26.7093 4.41572L26.7094 4.41568L27.0138 4.1125L27.0787 4.04781L27.0139 3.98298L26.0495 3.01861L25.9847 2.95379L25.92 3.01874L25.6168 3.32314L25.6168 3.32317C25.0203 3.92261 24.1077 4.09056 23.2874 3.74579L23.2871 3.74565C22.4534 3.39928 21.9327 2.63906 21.9327 1.80233V1.36538V1.27389H21.8412H20.4761H20.3846V1.36538V1.80233C20.3846 2.63959 19.8634 3.39915 19.0525 3.73589L19.052 3.73608C18.2108 4.0907 17.2972 3.92225 16.7007 3.32258L16.7006 3.32247L16.3968 3.01807L16.3321 2.95325L16.2674 3.018L15.303 3.98238L15.2382 4.0472L15.3031 4.11189L15.6081 4.41568L15.6082 4.41577C16.207 5.01046 16.375 5.92423 16.0308 6.74395L16.0306 6.74429C15.6843 7.57859 14.9241 8.0993 14.0867 8.0993H13.6507Z" fill="#002695" stroke="#F8F9FF" stroke-width="0.182979"/>
<path id="Vector_5" d="M10.3295 19.2024H11.5116V20.3845H10.3295V19.2024Z" fill="#002695" stroke="#F8F9FF" stroke-width="0.182979"/>
<path id="Vector_6" d="M13.0597 19.2024H14.2418V20.3845H13.0597V19.2024Z" fill="#002695" stroke="#F8F9FF" stroke-width="0.182979"/>
<path id="Vector_7" d="M7.59939 19.2024H8.7815V20.3845H7.59939V19.2024Z" fill="#002695" stroke="#F8F9FF" stroke-width="0.182979"/>
<path id="Vector_8" d="M31.4883 1.45645H32.6704V2.63855H31.4883V1.45645Z" fill="#002695" stroke="#F8F9FF" stroke-width="0.182979"/>
<path id="Vector_9" d="M34.2185 1.45645H40.8609V2.63855H34.2185V1.45645Z" fill="#002695" stroke="#F8F9FF" stroke-width="0.182979"/>
<path id="Vector_10" d="M31.4883 4.18661H40.8609V5.36871H31.4883V4.18661Z" fill="#002695" stroke="#F8F9FF" stroke-width="0.182979"/>
<path id="Vector_11" d="M31.4883 6.91678H40.8609V8.09888H31.4883V6.91678Z" fill="#002695" stroke="#F8F9FF" stroke-width="0.182979"/>
<path id="Vector_12" d="M31.4883 9.64694H32.6704V10.829H31.4883V9.64694Z" fill="#002695" stroke="#F8F9FF" stroke-width="0.182979"/>
<path id="Vector_13" d="M34.2185 9.64694H35.4006V10.829H34.2185V9.64694Z" fill="#002695" stroke="#F8F9FF" stroke-width="0.182979"/>
<path id="Vector_14" d="M36.9486 9.64694H38.1307V10.829H36.9486V9.64694Z" fill="#002695" stroke="#F8F9FF" stroke-width="0.182979"/>
<path id="Vector_15" d="M39.5873 20.3846H39.4958V20.4761L39.4958 40.9523V41.0438H39.5873H42.226V42.2259H10.2381C9.15967 42.2259 8.28197 41.3482 8.28197 40.2698V32.6363V32.5718L8.22122 32.5502C7.46324 32.2797 6.91689 31.5621 6.91689 30.7142V29.2275V29.1659L6.85983 29.1428C2.89616 27.5329 0.0914894 23.6454 0.0914894 19.1111C0.0914894 13.1709 4.90037 8.33167 10.8292 8.28235V9.46449C5.5513 9.51377 1.27359 13.8218 1.27359 19.1111C1.27359 24.4309 5.60083 28.7582 10.9206 28.7582C16.2099 28.7582 20.518 24.4805 20.5673 19.2026H21.7494C21.712 23.6976 18.9184 27.5433 14.9814 29.1428L14.9244 29.166V29.2275V30.7142C14.9244 31.5625 14.378 32.28 13.6201 32.5502L13.5593 32.5718V32.6363V40.2698C13.5593 40.4973 13.5128 40.715 13.4391 40.9216L13.3954 41.0438H13.5253H19.1111H19.2026V40.9523V36.8571V36.7656H19.1111H15.8814L21.1587 29.7289L26.4361 36.7656H23.2063H23.1148V36.8571V40.9523V41.0438H23.2063H27.3016H27.3931V40.9523V28.6666V28.5751H27.3016H24.0718L29.3492 21.5385L34.6265 28.5751H31.3968H31.3053V28.6666V40.9523V41.0438H31.3968H35.4921H35.5835V40.9523V20.4761V20.3846H35.4921H32.2623L37.5397 13.348L42.817 20.3846H39.5873ZM34.7363 19.0561L34.6265 19.2025H34.8095H36.7656V40.9523V41.0438H36.8571H38.2222H38.3137V40.9523V19.2025H40.2698H40.4528L40.343 19.0561L37.6129 15.4161L37.5397 15.3186L37.4665 15.4161L34.7363 19.0561ZM26.5458 27.2466L26.436 27.393H26.619H28.5752V40.9523V41.0438H28.6667H30.0317H30.1232V40.9523V27.393H32.0794H32.2623L32.1525 27.2466L29.4224 23.6066L29.3492 23.509L29.276 23.6066L26.5458 27.2466ZM18.3554 35.4371L18.2456 35.5835H18.4286H20.3847V40.9523V41.0438H20.4762H21.8413H21.9327V40.9523V35.5835H23.8889H24.0719L23.9621 35.4371L21.2319 31.7971L21.1587 31.6995L21.0855 31.7971L18.3554 35.4371ZM13.7423 29.6721V29.5539L13.6278 29.5836C12.7602 29.8083 11.856 29.9402 10.9206 29.9402C9.98526 29.9402 9.08105 29.8083 8.21339 29.5836L8.09896 29.5539V29.6721V30.7142C8.09896 31.1414 8.44651 31.4882 8.87299 31.4882H12.9682C13.3947 31.4882 13.7423 31.1414 13.7423 30.7142V29.6721ZM9.55553 32.6704H9.46404V32.7618V40.2698C9.46404 40.697 9.81159 41.0438 10.2381 41.0438H11.6032C12.0296 41.0438 12.3772 40.697 12.3772 40.2698V32.7618V32.6704H12.2857H9.55553Z" fill="#002695" stroke="#F8F9FF" stroke-width="0.182979"/>
</g>
</svg>
