<svg width="50" height="48" viewBox="0 0 50 48" fill="none" xmlns="http://www.w3.org/2000/svg">
<path d="M1.18606 47.8053H1.54276C1.70053 47.8053 1.82882 47.6776 1.82882 47.5192C1.82882 47.3615 1.70112 47.2332 1.54276 47.2332H1.18606C1.02829 47.2332 0.9 47.3609 0.9 47.5192C0.9 47.6775 1.02781 47.8053 1.18606 47.8053Z" fill="#002695" stroke="#002695" stroke-width="0.2"/>
<path d="M7.14438 47.6186H7.16232V47.5186C7.16232 47.3609 7.03463 47.2326 6.87627 47.2326H3.40316C3.24539 47.2326 3.1171 47.3603 3.1171 47.5186C3.1171 47.6764 3.24479 47.8047 3.40316 47.8047H6.87591C6.9988 47.8047 7.10379 47.7275 7.14438 47.6186Z" fill="#002695" stroke="#002695" stroke-width="0.2"/>
<path d="M46.3484 47.8053C46.5062 47.8053 46.6344 47.6776 46.6344 47.5192C46.6344 47.3615 46.5068 47.2332 46.3484 47.2332H43.3949C43.2371 47.2332 43.1089 47.3609 43.1089 47.5192C43.1089 47.677 43.2365 47.8053 43.3949 47.8053H46.3484Z" fill="#002695" stroke="#002695" stroke-width="0.2"/>
<path d="M47.9231 47.5186C47.9231 47.6764 48.0508 47.8047 48.2092 47.8047H48.8139C48.9717 47.8047 49.1 47.677 49.1 47.5186C49.1 47.3609 48.9723 47.2326 48.8139 47.2326H48.2092C48.0508 47.2326 47.9231 47.3609 47.9231 47.5186Z" fill="#002695" stroke="#002695" stroke-width="0.2"/>
<path d="M23.0981 7.96351H26.9015C27.0593 7.96351 27.1876 7.83582 27.1876 7.67745C27.1876 7.51968 27.0599 7.39139 26.9015 7.39139H23.0981C22.9403 7.39139 22.812 7.51909 22.812 7.67745C22.812 7.83569 22.9398 7.96351 23.0981 7.96351Z" fill="#002695" stroke="#002695" stroke-width="0.2"/>
<path d="M27.723 7.96351H28.0433C28.201 7.96351 28.3293 7.83581 28.3293 7.67745C28.3293 7.51968 28.2016 7.39139 28.0433 7.39139H27.723C27.5652 7.39139 27.437 7.51909 27.437 7.67745C27.437 7.83581 27.5652 7.96351 27.723 7.96351Z" fill="#002695" stroke="#002695" stroke-width="0.2"/>
<path d="M26.1716 12.7067H26.1716C26.3228 12.7067 26.4764 12.7172 26.6405 12.7388C26.6458 12.7394 26.6512 12.7402 26.6568 12.741C26.6073 11.868 25.8824 11.173 24.9995 11.173H24.9995C24.147 11.173 23.3957 11.8301 23.3471 12.7401L26.1716 12.7067ZM26.1716 12.7067L23.824 12.7071C23.8239 12.7071 23.8239 12.7071 23.8239 12.7071C23.6746 12.7071 23.5172 12.7179 23.3572 12.7387L26.1716 12.7067ZM22.5721 23.9463C19.3756 24.9841 17.1857 27.9574 17.1857 31.3704C17.1857 31.5224 17.3044 31.6468 17.4541 31.6559L17.4561 31.6565H17.4721H32.5265C32.6842 31.6565 32.8125 31.5289 32.8125 31.3705C32.8125 27.9576 30.6211 24.9847 27.4225 23.9463C27.6941 23.739 27.9374 23.4973 28.1488 23.2294C29.2346 22.317 29.8725 20.9809 29.899 19.562L29.955 16.563L29.955 16.563C29.9869 14.8228 28.8486 13.3276 27.2313 12.8632C27.2314 12.8522 27.2314 12.8432 27.2314 12.8368C27.2314 11.6041 26.2306 10.6011 24.9993 10.6011C23.7883 10.6011 22.7526 11.5847 22.7687 12.8618C21.1478 13.3254 20.0077 14.8213 20.0397 16.5633L20.0397 16.5634L20.0992 19.5612C20.0992 19.5613 20.0992 19.5614 20.0992 19.5615C20.1183 20.8536 20.6377 22.0649 21.5602 22.9707C21.6494 23.0599 21.7419 23.1408 21.837 23.2177C22.0502 23.4902 22.2964 23.7361 22.5721 23.9463ZM20.9825 20.7501C20.9825 20.8814 20.9893 21.0109 21.0023 21.1386C20.799 20.6525 20.685 20.1293 20.6723 19.5884L20.6724 19.5884L20.6716 19.5509L20.6121 16.5519C20.5815 14.899 21.7915 13.5042 23.4285 13.3062L23.4285 13.3062L23.4295 13.3061C23.5676 13.288 23.7002 13.2789 23.824 13.2789H26.1716C26.2972 13.2789 26.4259 13.2876 26.5678 13.3064L26.5689 13.3065C28.2038 13.5043 29.4138 14.899 29.3832 16.552L29.3271 19.5511C29.3168 20.1044 29.2009 20.6435 28.9923 21.1426C29.0055 21.0136 29.0124 20.8826 29.0124 20.7499V17.7582C29.0124 17.6565 28.9585 17.5627 28.8708 17.5114C28.3813 17.2248 28.062 16.7758 27.8638 16.3912C27.7651 16.1995 27.6974 16.0256 27.6542 15.8991C27.6111 15.7726 27.5929 15.6943 27.5929 15.6943C27.568 15.5843 27.4807 15.4993 27.3702 15.4772L27.3702 15.4771L27.3682 15.4768C27.2601 15.4575 27.1472 15.4984 27.081 15.5915L27.081 15.5916C27.081 15.5915 27.0791 15.5941 27.075 15.5996L27.0575 15.6227C27.0421 15.6426 27.0194 15.6715 26.9891 15.7082C26.9287 15.7815 26.8385 15.886 26.7182 16.0124C26.4776 16.2651 26.1169 16.6052 25.6332 16.9587C24.6662 17.6657 23.2082 18.4262 21.2362 18.6515L21.236 18.6515C21.0921 18.6681 20.9825 18.7897 20.9825 18.9355V20.7501ZM23.4663 24.6356L23.4664 24.4568C24.4522 24.867 25.5419 24.8678 26.5296 24.4571V24.6356C26.5296 25.4815 25.8429 26.1692 24.9999 26.1692C24.5919 26.1692 24.2066 26.0089 23.9146 25.717C23.6299 25.4323 23.4663 25.0376 23.4663 24.6356ZM21.555 20.7497V19.1873C24.6641 18.7577 26.4953 17.1147 27.2061 16.3349C27.3949 16.7932 27.7669 17.4652 28.441 17.9162V20.7497C28.441 22.6479 26.8963 24.1925 24.9982 24.1925C23.0997 24.1925 21.5551 22.6479 21.555 20.7498C21.555 20.7498 21.555 20.7497 21.555 20.7497ZM27.1016 24.6356V24.4442C30.0539 25.3349 32.1154 27.9914 32.2356 31.0845H17.7635C17.8836 27.9906 19.9439 25.3341 22.8943 24.4441V24.6356C22.8943 25.1888 23.1185 25.7303 23.5101 26.1215C23.9092 26.5207 24.4388 26.7412 24.9999 26.7412C26.1591 26.7412 27.1016 25.7965 27.1016 24.6356Z" fill="#002695" stroke="#002695" stroke-width="0.2"/>
<path d="M32.8145 33.1313H32.796C32.7555 33.0227 32.651 32.9452 32.5279 32.9452H17.4726C17.3148 32.9452 17.1865 33.0729 17.1865 33.2313C17.1865 33.389 17.3142 33.5173 17.4726 33.5173H32.5288C32.6868 33.5173 32.8145 33.3894 32.8145 33.2313V33.1313Z" fill="#002695" stroke="#002695" stroke-width="0.2"/>
<path d="M22.5752 19.8147L22.3808 19.8137C22.3672 19.8687 22.3604 19.9265 22.3604 19.9848C22.3604 20.3917 22.6903 20.7225 23.0981 20.7225C23.5051 20.7225 23.8358 20.3918 23.8358 19.9848C23.8358 19.9265 23.8289 19.8687 23.8154 19.8137L23.6209 19.8146C23.5651 20.0509 23.3519 20.2278 23.0981 20.2278C22.8435 20.2278 22.6307 20.0509 22.5752 19.8147Z" fill="#002695" stroke="#002695" stroke-width="0.2"/>
<path d="M27.6151 19.8141L27.4206 19.8151C27.3652 20.0512 27.1517 20.2282 26.8978 20.2282C26.6432 20.2282 26.4304 20.0513 26.3749 19.8151L26.1805 19.8141C26.1669 19.8691 26.1601 19.9269 26.1601 19.9852L26.1601 19.9853C26.1605 20.392 26.4899 20.7229 26.8978 20.7229H26.8978C27.3048 20.7229 27.6355 20.3922 27.6355 19.9852C27.6355 19.9269 27.6286 19.8691 27.6151 19.8141ZM26.3747 19.8619L26.2776 19.838L26.3626 20.0372C26.3517 20.0204 26.3416 20.003 26.3323 19.9852H26.3601C26.3601 19.9425 26.3651 19.9008 26.3747 19.8619Z" fill="#002695" stroke="#002695" stroke-width="0.2"/>
<path d="M24.9977 23.39H24.9978C25.5887 23.3896 26.0694 22.909 26.0694 22.3183C26.0694 22.1606 25.9417 22.0323 25.7833 22.0323C25.6255 22.0323 25.4972 22.16 25.4972 22.3183C25.4972 22.5936 25.2732 22.8179 24.9977 22.8179C24.7225 22.8179 24.4982 22.5938 24.4982 22.3183C24.4982 22.1606 24.3705 22.0323 24.2122 22.0323C24.0544 22.0323 23.9261 22.16 23.9261 22.3183C23.9261 22.9093 24.4068 23.39 24.9977 23.39Z" fill="#002695" stroke="#002695" stroke-width="0.2"/>
<path d="M46.0474 15.1523L45.9767 15.223C46.1903 15.4369 46.1946 15.7812 45.9894 15.9989L45.9781 16.0102L45.9778 16.0105C45.7618 16.2262 45.4111 16.2276 45.1937 16.0149L45.1892 16.0105C44.9727 15.7939 44.973 15.4406 45.1906 15.223C45.4071 15.0069 45.7597 15.0064 45.9768 15.2231L46.0474 15.1523ZM46.0474 15.1523C46.3036 15.4088 46.3046 15.8247 46.0492 16.0809M46.0474 15.1523C45.7913 14.8965 45.3754 14.8972 45.1199 15.1523C44.8634 15.4088 44.8627 15.8254 45.1185 16.0812L46.0492 16.0809M46.0492 16.0809H46.0488L46.0485 16.0813L46.0492 16.0809ZM44.7857 14.8181L44.7857 14.8181C44.3452 15.2586 44.3447 15.9747 44.7843 16.4147L44.7843 16.4147C45.1441 16.7745 45.7056 16.8521 46.1525 16.5896L46.5412 16.9782C46.6528 17.0899 46.8338 17.0896 46.9456 16.9783L46.9457 16.9782C47.0574 16.8665 47.0572 16.6856 46.9459 16.5738L46.9458 16.5736L46.5573 16.1848C46.8091 15.7529 46.7515 15.1887 46.3809 14.8181C45.941 14.3782 45.2256 14.3782 44.7857 14.8181Z" fill="#002695" stroke="#002695" stroke-width="0.2"/>
<mask id="path-13-outside-1_77_477" maskUnits="userSpaceOnUse" x="6.37738" y="0" width="43" height="48" fill="black">
<rect fill="white" x="6.37738" width="43" height="48"/>
<path d="M48.1846 14.4417C48.1846 14.0293 47.8492 13.694 47.4368 13.694H37.0442V9.10806C37.0442 7.55893 35.7841 6.299 34.2351 6.299H18.3178L18.3132 5.99451C18.3079 5.66619 18.084 5.37502 17.7676 5.28602L17.0465 5.08595C16.9617 4.83191 16.8622 4.59539 16.7354 4.36414L17.0812 3.7082C17.24 3.41563 17.1846 3.06032 16.9432 2.82381L16.3741 2.26984C16.1383 2.03893 15.7732 1.99162 15.4866 2.15526L14.8271 2.52843L14.1148 2.24777L13.8916 1.52491C13.7935 1.21061 13.4932 0.997572 13.1684 1.00002L12.3719 1.01123C12.0436 1.01614 11.7525 1.24004 11.6631 1.55785L11.4602 2.27545C11.2023 2.3627 10.9669 2.46607 10.7454 2.5887L10.087 2.23796C9.79307 2.08343 9.42901 2.14335 9.2009 2.38127L8.65079 2.95066C8.41743 3.18893 8.37153 3.54703 8.53692 3.84311L8.90693 4.48783C8.78114 4.73521 8.68443 4.97453 8.61365 5.2142L7.89815 5.4374C7.58175 5.53761 7.37256 5.82844 7.37746 6.16061L7.38868 6.95354C7.39393 7.2815 7.61784 7.57303 7.93424 7.66203L8.65394 7.86246C8.73908 8.10948 8.84595 8.35371 8.96719 8.57901L8.6196 9.2381C8.46718 9.52858 8.52464 9.89123 8.75906 10.1204L9.3295 10.6758C9.56741 10.9039 9.93253 10.9512 10.2153 10.7893L10.8674 10.4228C11.0909 10.5374 11.3337 10.6341 11.5913 10.7115L11.8145 11.4235C11.9129 11.7389 12.1985 11.9484 12.5265 11.9484H12.5377L12.9557 11.9431V34.205L10.5272 34.2043C9.85476 34.2043 9.30777 34.7512 9.30777 35.4237V41.3345C9.30777 42.0069 9.85474 42.5539 10.5272 42.5539H12.9546V44.8955C12.9546 45.939 13.5293 46.8492 14.3775 47.3325L8.73584 47.3328C8.63318 47.3328 8.54979 47.4159 8.54979 47.5189C8.54979 47.6215 8.63283 47.7049 8.73584 47.7049H41.5339C41.6366 47.7049 41.7199 47.6219 41.7199 47.5189C41.7199 47.4162 41.6369 47.3328 41.5339 47.3328H35.621C36.4697 46.8496 37.0439 45.939 37.0439 44.8958V39.8057L37.8481 39.7945C38.2682 39.785 38.6256 39.5089 38.7377 39.1074L39.0156 38.1077C39.3614 37.9966 39.702 37.8498 40.0306 37.6693L40.949 38.1539C41.3145 38.3484 41.771 38.2755 42.0594 37.9777L42.8043 37.2064C43.0955 36.9009 43.1509 36.4531 42.9431 36.0933L42.4336 35.1935C42.5671 34.9219 42.6803 34.6518 42.7717 34.3869C42.7956 34.315 42.8176 34.2411 42.8394 34.1682L43.8289 33.8585C44.2223 33.7383 44.4936 33.3658 44.489 32.9527L44.4743 31.8829C44.4652 31.4695 44.1824 31.1036 43.7872 30.9933L42.7854 30.7147C42.6705 30.3671 42.552 30.0661 42.3491 29.6997L42.8299 28.7858C43.024 28.4207 42.9515 27.9641 42.6543 27.6757L41.8922 26.9322C41.5972 26.6421 41.1378 26.5825 40.7728 26.7878L39.8642 27.3057L38.8466 26.9024L38.5386 25.9056C38.4181 25.5075 38.0506 25.229 37.6286 25.2451L37.0435 25.2535L37.0438 17.8199H47.4365C47.8489 17.8199 48.1843 17.4846 48.1843 17.0722L48.1846 14.4417ZM32.7095 17.4481C32.5024 17.4481 32.3338 17.2796 32.3338 17.0725V14.4418C32.3338 14.2347 32.5024 14.0661 32.7095 14.0661H43.2645V17.4481H32.7095ZM14.5182 42.5544H16.4387C17.1111 42.5544 17.6581 42.0074 17.6581 41.335V37.1391H29.5362C29.6389 37.1391 29.7223 37.056 29.7223 36.953C29.7223 36.8503 29.6392 36.7669 29.5362 36.7669H17.6581V35.4242C17.6581 35.3745 17.6493 35.3268 17.6434 35.2785H27.6952C27.7979 35.2785 27.8813 35.1954 27.8813 35.0924C27.8813 34.9897 27.7982 34.9063 27.6952 34.9063H17.5384C17.3429 34.4932 16.9252 34.2045 16.4385 34.2045H14.518L14.5184 9.10814C14.5184 8.42066 15.0776 7.86175 15.765 7.86175H18.8874C18.9789 8.57865 19.591 9.13442 20.3307 9.13442H30.6893C31.4286 9.13442 32.0411 8.5787 32.1326 7.86175H34.2356C34.9231 7.86175 35.482 8.42063 35.482 9.10814V13.6941H32.7101C32.2977 13.6941 31.9623 14.0294 31.9623 14.4418V17.0725C31.9623 17.485 32.2977 17.8203 32.7101 17.8203H35.482V44.8963C35.482 45.5817 34.9231 46.1391 34.2356 46.1391L15.7645 46.1388C15.077 46.1388 14.5179 45.5813 14.5179 44.896L14.5182 42.5544ZM12.5322 11.5754C12.3559 11.5796 12.2193 11.4717 12.1692 11.3116L11.9162 10.5043C11.8973 10.444 11.8493 10.3974 11.7883 10.3806C11.4852 10.2965 11.2042 10.1844 10.9536 10.047C10.8976 10.0162 10.8293 10.0165 10.7732 10.0481L10.0318 10.465C9.88916 10.5463 9.70661 10.5218 9.58747 10.4079L9.01879 9.85395C8.90141 9.73903 8.87268 9.55682 8.94907 9.4114L9.3436 8.66367C9.37339 8.60761 9.37198 8.53998 9.3408 8.48497C9.19539 8.22883 9.06925 7.94151 8.97674 7.65314C8.95782 7.59358 8.90982 7.54767 8.84955 7.53085L8.03489 7.3038C7.87616 7.25931 7.76369 7.11284 7.76123 6.94816L7.75002 6.15523C7.74756 5.98844 7.85233 5.84268 8.01 5.79257L8.82117 5.53959C8.88213 5.52067 8.92943 5.47161 8.94555 5.40959C9.01843 5.13489 9.12881 4.86088 9.28333 4.57145C9.31346 4.51504 9.31241 4.44671 9.28053 4.39135L8.8611 3.66009C8.77806 3.51117 8.80049 3.33071 8.91787 3.21053L9.46903 2.64044C9.58396 2.52096 9.76721 2.49117 9.91333 2.56791L10.6614 2.96631C10.7185 2.99714 10.7879 2.99539 10.8433 2.96245C11.0931 2.81459 11.3629 2.69615 11.6681 2.5991C11.7276 2.58052 11.7736 2.53287 11.7907 2.47296L12.022 1.65724C12.0668 1.49852 12.2129 1.38604 12.3776 1.38358L13.1741 1.37237C13.3328 1.37167 13.4873 1.47819 13.5367 1.63552L13.7862 2.44317C13.8027 2.49713 13.843 2.54057 13.8959 2.5616L14.774 2.90744C14.8262 2.92776 14.885 2.92391 14.9337 2.89623L15.671 2.47926C15.8143 2.39762 15.9972 2.42075 16.1153 2.53638L16.6839 3.09035C16.8052 3.20913 16.8336 3.38608 16.754 3.5329L16.3595 4.28098C16.3293 4.33774 16.3311 4.40642 16.3633 4.46178C16.4699 4.64434 16.5631 4.84196 16.6394 5.04939C16.6678 5.12718 16.6962 5.20532 16.7211 5.29046C16.739 5.35248 16.7877 5.40049 16.85 5.41765L17.6682 5.6447C17.8269 5.6892 17.9394 5.83532 17.9418 6.00035L17.9464 6.29888H15.7652C15.446 6.29888 15.1296 6.35354 14.8353 6.4569C14.7912 5.38678 13.8907 4.52906 12.823 4.55355C11.7207 4.57002 10.8481 5.47827 10.8685 6.56867C10.8745 7.09846 11.0879 7.59395 11.4691 7.96396C11.8422 8.32592 12.3356 8.53159 12.8864 8.52354C12.9365 8.52214 12.9814 8.51688 13.0276 8.51268C12.9849 8.70574 12.9555 8.90337 12.9555 9.10764V11.5695L12.5322 11.5754ZM13.1387 8.12341C12.6107 8.22327 12.1005 8.05963 11.7277 7.69768C11.418 7.39704 11.2449 6.9948 11.24 6.56342C11.2231 5.66851 11.9407 4.93939 12.8279 4.92603C13.7071 4.90956 14.4527 5.62471 14.466 6.51121C14.466 6.55011 14.4625 6.5869 14.4604 6.62439C13.85 6.94499 13.377 7.48215 13.1388 8.12337L13.1387 8.12341ZM13.3272 9.10832C13.3272 7.77331 14.4113 6.67134 15.7645 6.67134H18.1378H34.2354C35.5791 6.67134 36.6724 7.7646 36.6724 9.10832V13.6942H35.8538V9.10832C35.8538 8.21587 35.1278 7.48985 34.2354 7.48985H31.9582C31.8555 7.48985 31.7721 7.57289 31.7721 7.67591C31.7721 8.27508 31.2861 8.76245 30.6894 8.76245L20.3308 8.7621C19.7338 8.7621 19.2481 8.2747 19.2481 7.67556C19.2481 7.5729 19.1651 7.4895 19.0621 7.4895H15.7652C14.8728 7.4895 14.1468 8.21552 14.1468 9.10797V34.2043H13.3282L13.3272 9.10832ZM9.68035 41.335V35.4242C9.68035 34.9567 10.0605 34.5769 10.5276 34.5769H16.4384C16.9058 34.5769 17.2857 34.9571 17.2857 35.4242V41.335C17.2857 41.8024 16.9055 42.1822 16.4384 42.1822L10.5276 42.1826C10.0605 42.1826 9.68035 41.8024 9.68035 41.335ZM37.0443 30.4005C37.0983 30.3963 37.1519 30.3889 37.2052 30.3882C38.4182 30.3882 39.4165 31.3648 39.4368 32.5789C39.454 33.8084 38.4676 34.8256 37.236 34.8463C37.1772 34.848 37.1088 34.8382 37.044 34.8329L37.0443 30.4005ZM37.6365 25.618C37.8881 25.6114 38.1113 25.7754 38.1838 26.0154L38.5188 27.0981C38.5353 27.1517 38.5756 27.1951 38.6281 27.2161L39.8114 27.685C39.8636 27.7056 39.9228 27.7014 39.9719 27.6738L40.9571 27.1121C41.1772 26.9877 41.4547 27.0231 41.6327 27.1986L42.3958 27.9432C42.5752 28.117 42.619 28.3921 42.502 28.6125L41.9736 29.617C41.9438 29.6734 41.9452 29.7414 41.9771 29.7968C42.1271 30.056 42.2525 30.3241 42.3506 30.5939C42.3906 30.7032 42.427 30.8129 42.4638 30.9257C42.4827 30.9853 42.5307 31.0308 42.591 31.0477L43.6884 31.3528C43.927 31.4194 44.0973 31.6412 44.1029 31.8907L44.1176 32.9583C44.1204 33.2071 43.9575 33.4313 43.7196 33.5042L42.6369 33.843C42.6082 33.8518 42.5784 33.8714 42.557 33.8928C42.5349 33.9145 42.5192 33.9415 42.5101 33.9713C42.4778 34.0806 42.4487 34.1815 42.4197 34.2688C42.3244 34.5445 42.2024 34.8298 42.0574 35.116C42.0293 35.1717 42.0307 35.2376 42.0616 35.2916L42.6204 36.279C42.7455 36.4962 42.7115 36.766 42.5363 36.9496L41.7925 37.7198C41.6183 37.8988 41.3436 37.943 41.1236 37.826L40.1151 37.2941C40.0591 37.2643 39.9915 37.2657 39.9361 37.2972C39.5738 37.5043 39.195 37.6676 38.8103 37.7825C38.7489 37.8007 38.7016 37.8494 38.6845 37.9111L38.3793 39.0085C38.3117 39.251 38.0951 39.4174 37.8414 39.423L37.0443 39.4342V35.2071C37.1263 35.2124 37.1386 35.2215 37.2444 35.2183C38.6785 35.1945 39.8286 34.0081 39.8089 32.5732C39.7851 31.1555 38.6204 30.0161 37.2076 30.0161C37.1536 30.0157 37.099 30.0245 37.0443 30.0283V25.6267L37.6365 25.618ZM36.6722 44.8964C36.6722 46.2381 35.579 47.3299 34.2353 47.3299H15.7642C14.4204 47.3299 13.3268 46.2381 13.3268 44.8964V42.5548H14.1453V44.8964C14.1453 45.7868 14.8717 46.5114 15.7638 46.5114H34.234C35.1264 46.5114 35.8525 45.7871 35.8525 44.8964L35.8528 17.8204H36.6713C36.6717 27.1564 36.6717 34.7029 36.6717 44.8964H36.6722ZM47.813 17.0732C47.813 17.2803 47.6445 17.4488 47.4374 17.4488H43.6367V14.0668H47.4374C47.6445 14.0668 47.813 14.2354 47.813 14.4424V17.0732Z"/>
</mask>
<path d="M48.1846 14.4417C48.1846 14.0293 47.8492 13.694 47.4368 13.694H37.0442V9.10806C37.0442 7.55893 35.7841 6.299 34.2351 6.299H18.3178L18.3132 5.99451C18.3079 5.66619 18.084 5.37502 17.7676 5.28602L17.0465 5.08595C16.9617 4.83191 16.8622 4.59539 16.7354 4.36414L17.0812 3.7082C17.24 3.41563 17.1846 3.06032 16.9432 2.82381L16.3741 2.26984C16.1383 2.03893 15.7732 1.99162 15.4866 2.15526L14.8271 2.52843L14.1148 2.24777L13.8916 1.52491C13.7935 1.21061 13.4932 0.997572 13.1684 1.00002L12.3719 1.01123C12.0436 1.01614 11.7525 1.24004 11.6631 1.55785L11.4602 2.27545C11.2023 2.3627 10.9669 2.46607 10.7454 2.5887L10.087 2.23796C9.79307 2.08343 9.42901 2.14335 9.2009 2.38127L8.65079 2.95066C8.41743 3.18893 8.37153 3.54703 8.53692 3.84311L8.90693 4.48783C8.78114 4.73521 8.68443 4.97453 8.61365 5.2142L7.89815 5.4374C7.58175 5.53761 7.37256 5.82844 7.37746 6.16061L7.38868 6.95354C7.39393 7.2815 7.61784 7.57303 7.93424 7.66203L8.65394 7.86246C8.73908 8.10948 8.84595 8.35371 8.96719 8.57901L8.6196 9.2381C8.46718 9.52858 8.52464 9.89123 8.75906 10.1204L9.3295 10.6758C9.56741 10.9039 9.93253 10.9512 10.2153 10.7893L10.8674 10.4228C11.0909 10.5374 11.3337 10.6341 11.5913 10.7115L11.8145 11.4235C11.9129 11.7389 12.1985 11.9484 12.5265 11.9484H12.5377L12.9557 11.9431V34.205L10.5272 34.2043C9.85476 34.2043 9.30777 34.7512 9.30777 35.4237V41.3345C9.30777 42.0069 9.85474 42.5539 10.5272 42.5539H12.9546V44.8955C12.9546 45.939 13.5293 46.8492 14.3775 47.3325L8.73584 47.3328C8.63318 47.3328 8.54979 47.4159 8.54979 47.5189C8.54979 47.6215 8.63283 47.7049 8.73584 47.7049H41.5339C41.6366 47.7049 41.7199 47.6219 41.7199 47.5189C41.7199 47.4162 41.6369 47.3328 41.5339 47.3328H35.621C36.4697 46.8496 37.0439 45.939 37.0439 44.8958V39.8057L37.8481 39.7945C38.2682 39.785 38.6256 39.5089 38.7377 39.1074L39.0156 38.1077C39.3614 37.9966 39.702 37.8498 40.0306 37.6693L40.949 38.1539C41.3145 38.3484 41.771 38.2755 42.0594 37.9777L42.8043 37.2064C43.0955 36.9009 43.1509 36.4531 42.9431 36.0933L42.4336 35.1935C42.5671 34.9219 42.6803 34.6518 42.7717 34.3869C42.7956 34.315 42.8176 34.2411 42.8394 34.1682L43.8289 33.8585C44.2223 33.7383 44.4936 33.3658 44.489 32.9527L44.4743 31.8829C44.4652 31.4695 44.1824 31.1036 43.7872 30.9933L42.7854 30.7147C42.6705 30.3671 42.552 30.0661 42.3491 29.6997L42.8299 28.7858C43.024 28.4207 42.9515 27.9641 42.6543 27.6757L41.8922 26.9322C41.5972 26.6421 41.1378 26.5825 40.7728 26.7878L39.8642 27.3057L38.8466 26.9024L38.5386 25.9056C38.4181 25.5075 38.0506 25.229 37.6286 25.2451L37.0435 25.2535L37.0438 17.8199H47.4365C47.8489 17.8199 48.1843 17.4846 48.1843 17.0722L48.1846 14.4417ZM32.7095 17.4481C32.5024 17.4481 32.3338 17.2796 32.3338 17.0725V14.4418C32.3338 14.2347 32.5024 14.0661 32.7095 14.0661H43.2645V17.4481H32.7095ZM14.5182 42.5544H16.4387C17.1111 42.5544 17.6581 42.0074 17.6581 41.335V37.1391H29.5362C29.6389 37.1391 29.7223 37.056 29.7223 36.953C29.7223 36.8503 29.6392 36.7669 29.5362 36.7669H17.6581V35.4242C17.6581 35.3745 17.6493 35.3268 17.6434 35.2785H27.6952C27.7979 35.2785 27.8813 35.1954 27.8813 35.0924C27.8813 34.9897 27.7982 34.9063 27.6952 34.9063H17.5384C17.3429 34.4932 16.9252 34.2045 16.4385 34.2045H14.518L14.5184 9.10814C14.5184 8.42066 15.0776 7.86175 15.765 7.86175H18.8874C18.9789 8.57865 19.591 9.13442 20.3307 9.13442H30.6893C31.4286 9.13442 32.0411 8.5787 32.1326 7.86175H34.2356C34.9231 7.86175 35.482 8.42063 35.482 9.10814V13.6941H32.7101C32.2977 13.6941 31.9623 14.0294 31.9623 14.4418V17.0725C31.9623 17.485 32.2977 17.8203 32.7101 17.8203H35.482V44.8963C35.482 45.5817 34.9231 46.1391 34.2356 46.1391L15.7645 46.1388C15.077 46.1388 14.5179 45.5813 14.5179 44.896L14.5182 42.5544ZM12.5322 11.5754C12.3559 11.5796 12.2193 11.4717 12.1692 11.3116L11.9162 10.5043C11.8973 10.444 11.8493 10.3974 11.7883 10.3806C11.4852 10.2965 11.2042 10.1844 10.9536 10.047C10.8976 10.0162 10.8293 10.0165 10.7732 10.0481L10.0318 10.465C9.88916 10.5463 9.70661 10.5218 9.58747 10.4079L9.01879 9.85395C8.90141 9.73903 8.87268 9.55682 8.94907 9.4114L9.3436 8.66367C9.37339 8.60761 9.37198 8.53998 9.3408 8.48497C9.19539 8.22883 9.06925 7.94151 8.97674 7.65314C8.95782 7.59358 8.90982 7.54767 8.84955 7.53085L8.03489 7.3038C7.87616 7.25931 7.76369 7.11284 7.76123 6.94816L7.75002 6.15523C7.74756 5.98844 7.85233 5.84268 8.01 5.79257L8.82117 5.53959C8.88213 5.52067 8.92943 5.47161 8.94555 5.40959C9.01843 5.13489 9.12881 4.86088 9.28333 4.57145C9.31346 4.51504 9.31241 4.44671 9.28053 4.39135L8.8611 3.66009C8.77806 3.51117 8.80049 3.33071 8.91787 3.21053L9.46903 2.64044C9.58396 2.52096 9.76721 2.49117 9.91333 2.56791L10.6614 2.96631C10.7185 2.99714 10.7879 2.99539 10.8433 2.96245C11.0931 2.81459 11.3629 2.69615 11.6681 2.5991C11.7276 2.58052 11.7736 2.53287 11.7907 2.47296L12.022 1.65724C12.0668 1.49852 12.2129 1.38604 12.3776 1.38358L13.1741 1.37237C13.3328 1.37167 13.4873 1.47819 13.5367 1.63552L13.7862 2.44317C13.8027 2.49713 13.843 2.54057 13.8959 2.5616L14.774 2.90744C14.8262 2.92776 14.885 2.92391 14.9337 2.89623L15.671 2.47926C15.8143 2.39762 15.9972 2.42075 16.1153 2.53638L16.6839 3.09035C16.8052 3.20913 16.8336 3.38608 16.754 3.5329L16.3595 4.28098C16.3293 4.33774 16.3311 4.40642 16.3633 4.46178C16.4699 4.64434 16.5631 4.84196 16.6394 5.04939C16.6678 5.12718 16.6962 5.20532 16.7211 5.29046C16.739 5.35248 16.7877 5.40049 16.85 5.41765L17.6682 5.6447C17.8269 5.6892 17.9394 5.83532 17.9418 6.00035L17.9464 6.29888H15.7652C15.446 6.29888 15.1296 6.35354 14.8353 6.4569C14.7912 5.38678 13.8907 4.52906 12.823 4.55355C11.7207 4.57002 10.8481 5.47827 10.8685 6.56867C10.8745 7.09846 11.0879 7.59395 11.4691 7.96396C11.8422 8.32592 12.3356 8.53159 12.8864 8.52354C12.9365 8.52214 12.9814 8.51688 13.0276 8.51268C12.9849 8.70574 12.9555 8.90337 12.9555 9.10764V11.5695L12.5322 11.5754ZM13.1387 8.12341C12.6107 8.22327 12.1005 8.05963 11.7277 7.69768C11.418 7.39704 11.2449 6.9948 11.24 6.56342C11.2231 5.66851 11.9407 4.93939 12.8279 4.92603C13.7071 4.90956 14.4527 5.62471 14.466 6.51121C14.466 6.55011 14.4625 6.5869 14.4604 6.62439C13.85 6.94499 13.377 7.48215 13.1388 8.12337L13.1387 8.12341ZM13.3272 9.10832C13.3272 7.77331 14.4113 6.67134 15.7645 6.67134H18.1378H34.2354C35.5791 6.67134 36.6724 7.7646 36.6724 9.10832V13.6942H35.8538V9.10832C35.8538 8.21587 35.1278 7.48985 34.2354 7.48985H31.9582C31.8555 7.48985 31.7721 7.57289 31.7721 7.67591C31.7721 8.27508 31.2861 8.76245 30.6894 8.76245L20.3308 8.7621C19.7338 8.7621 19.2481 8.2747 19.2481 7.67556C19.2481 7.5729 19.1651 7.4895 19.0621 7.4895H15.7652C14.8728 7.4895 14.1468 8.21552 14.1468 9.10797V34.2043H13.3282L13.3272 9.10832ZM9.68035 41.335V35.4242C9.68035 34.9567 10.0605 34.5769 10.5276 34.5769H16.4384C16.9058 34.5769 17.2857 34.9571 17.2857 35.4242V41.335C17.2857 41.8024 16.9055 42.1822 16.4384 42.1822L10.5276 42.1826C10.0605 42.1826 9.68035 41.8024 9.68035 41.335ZM37.0443 30.4005C37.0983 30.3963 37.1519 30.3889 37.2052 30.3882C38.4182 30.3882 39.4165 31.3648 39.4368 32.5789C39.454 33.8084 38.4676 34.8256 37.236 34.8463C37.1772 34.848 37.1088 34.8382 37.044 34.8329L37.0443 30.4005ZM37.6365 25.618C37.8881 25.6114 38.1113 25.7754 38.1838 26.0154L38.5188 27.0981C38.5353 27.1517 38.5756 27.1951 38.6281 27.2161L39.8114 27.685C39.8636 27.7056 39.9228 27.7014 39.9719 27.6738L40.9571 27.1121C41.1772 26.9877 41.4547 27.0231 41.6327 27.1986L42.3958 27.9432C42.5752 28.117 42.619 28.3921 42.502 28.6125L41.9736 29.617C41.9438 29.6734 41.9452 29.7414 41.9771 29.7968C42.1271 30.056 42.2525 30.3241 42.3506 30.5939C42.3906 30.7032 42.427 30.8129 42.4638 30.9257C42.4827 30.9853 42.5307 31.0308 42.591 31.0477L43.6884 31.3528C43.927 31.4194 44.0973 31.6412 44.1029 31.8907L44.1176 32.9583C44.1204 33.2071 43.9575 33.4313 43.7196 33.5042L42.6369 33.843C42.6082 33.8518 42.5784 33.8714 42.557 33.8928C42.5349 33.9145 42.5192 33.9415 42.5101 33.9713C42.4778 34.0806 42.4487 34.1815 42.4197 34.2688C42.3244 34.5445 42.2024 34.8298 42.0574 35.116C42.0293 35.1717 42.0307 35.2376 42.0616 35.2916L42.6204 36.279C42.7455 36.4962 42.7115 36.766 42.5363 36.9496L41.7925 37.7198C41.6183 37.8988 41.3436 37.943 41.1236 37.826L40.1151 37.2941C40.0591 37.2643 39.9915 37.2657 39.9361 37.2972C39.5738 37.5043 39.195 37.6676 38.8103 37.7825C38.7489 37.8007 38.7016 37.8494 38.6845 37.9111L38.3793 39.0085C38.3117 39.251 38.0951 39.4174 37.8414 39.423L37.0443 39.4342V35.2071C37.1263 35.2124 37.1386 35.2215 37.2444 35.2183C38.6785 35.1945 39.8286 34.0081 39.8089 32.5732C39.7851 31.1555 38.6204 30.0161 37.2076 30.0161C37.1536 30.0157 37.099 30.0245 37.0443 30.0283V25.6267L37.6365 25.618ZM36.6722 44.8964C36.6722 46.2381 35.579 47.3299 34.2353 47.3299H15.7642C14.4204 47.3299 13.3268 46.2381 13.3268 44.8964V42.5548H14.1453V44.8964C14.1453 45.7868 14.8717 46.5114 15.7638 46.5114H34.234C35.1264 46.5114 35.8525 45.7871 35.8525 44.8964L35.8528 17.8204H36.6713C36.6717 27.1564 36.6717 34.7029 36.6717 44.8964H36.6722ZM47.813 17.0732C47.813 17.2803 47.6445 17.4488 47.4374 17.4488H43.6367V14.0668H47.4374C47.6445 14.0668 47.813 14.2354 47.813 14.4424V17.0732Z" fill="#002695"/>
<path d="M48.1846 14.4417C48.1846 14.0293 47.8492 13.694 47.4368 13.694H37.0442V9.10806C37.0442 7.55893 35.7841 6.299 34.2351 6.299H18.3178L18.3132 5.99451C18.3079 5.66619 18.084 5.37502 17.7676 5.28602L17.0465 5.08595C16.9617 4.83191 16.8622 4.59539 16.7354 4.36414L17.0812 3.7082C17.24 3.41563 17.1846 3.06032 16.9432 2.82381L16.3741 2.26984C16.1383 2.03893 15.7732 1.99162 15.4866 2.15526L14.8271 2.52843L14.1148 2.24777L13.8916 1.52491C13.7935 1.21061 13.4932 0.997572 13.1684 1.00002L12.3719 1.01123C12.0436 1.01614 11.7525 1.24004 11.6631 1.55785L11.4602 2.27545C11.2023 2.3627 10.9669 2.46607 10.7454 2.5887L10.087 2.23796C9.79307 2.08343 9.42901 2.14335 9.2009 2.38127L8.65079 2.95066C8.41743 3.18893 8.37153 3.54703 8.53692 3.84311L8.90693 4.48783C8.78114 4.73521 8.68443 4.97453 8.61365 5.2142L7.89815 5.4374C7.58175 5.53761 7.37256 5.82844 7.37746 6.16061L7.38868 6.95354C7.39393 7.2815 7.61784 7.57303 7.93424 7.66203L8.65394 7.86246C8.73908 8.10948 8.84595 8.35371 8.96719 8.57901L8.6196 9.2381C8.46718 9.52858 8.52464 9.89123 8.75906 10.1204L9.3295 10.6758C9.56741 10.9039 9.93253 10.9512 10.2153 10.7893L10.8674 10.4228C11.0909 10.5374 11.3337 10.6341 11.5913 10.7115L11.8145 11.4235C11.9129 11.7389 12.1985 11.9484 12.5265 11.9484H12.5377L12.9557 11.9431V34.205L10.5272 34.2043C9.85476 34.2043 9.30777 34.7512 9.30777 35.4237V41.3345C9.30777 42.0069 9.85474 42.5539 10.5272 42.5539H12.9546V44.8955C12.9546 45.939 13.5293 46.8492 14.3775 47.3325L8.73584 47.3328C8.63318 47.3328 8.54979 47.4159 8.54979 47.5189C8.54979 47.6215 8.63283 47.7049 8.73584 47.7049H41.5339C41.6366 47.7049 41.7199 47.6219 41.7199 47.5189C41.7199 47.4162 41.6369 47.3328 41.5339 47.3328H35.621C36.4697 46.8496 37.0439 45.939 37.0439 44.8958V39.8057L37.8481 39.7945C38.2682 39.785 38.6256 39.5089 38.7377 39.1074L39.0156 38.1077C39.3614 37.9966 39.702 37.8498 40.0306 37.6693L40.949 38.1539C41.3145 38.3484 41.771 38.2755 42.0594 37.9777L42.8043 37.2064C43.0955 36.9009 43.1509 36.4531 42.9431 36.0933L42.4336 35.1935C42.5671 34.9219 42.6803 34.6518 42.7717 34.3869C42.7956 34.315 42.8176 34.2411 42.8394 34.1682L43.8289 33.8585C44.2223 33.7383 44.4936 33.3658 44.489 32.9527L44.4743 31.8829C44.4652 31.4695 44.1824 31.1036 43.7872 30.9933L42.7854 30.7147C42.6705 30.3671 42.552 30.0661 42.3491 29.6997L42.8299 28.7858C43.024 28.4207 42.9515 27.9641 42.6543 27.6757L41.8922 26.9322C41.5972 26.6421 41.1378 26.5825 40.7728 26.7878L39.8642 27.3057L38.8466 26.9024L38.5386 25.9056C38.4181 25.5075 38.0506 25.229 37.6286 25.2451L37.0435 25.2535L37.0438 17.8199H47.4365C47.8489 17.8199 48.1843 17.4846 48.1843 17.0722L48.1846 14.4417ZM32.7095 17.4481C32.5024 17.4481 32.3338 17.2796 32.3338 17.0725V14.4418C32.3338 14.2347 32.5024 14.0661 32.7095 14.0661H43.2645V17.4481H32.7095ZM14.5182 42.5544H16.4387C17.1111 42.5544 17.6581 42.0074 17.6581 41.335V37.1391H29.5362C29.6389 37.1391 29.7223 37.056 29.7223 36.953C29.7223 36.8503 29.6392 36.7669 29.5362 36.7669H17.6581V35.4242C17.6581 35.3745 17.6493 35.3268 17.6434 35.2785H27.6952C27.7979 35.2785 27.8813 35.1954 27.8813 35.0924C27.8813 34.9897 27.7982 34.9063 27.6952 34.9063H17.5384C17.3429 34.4932 16.9252 34.2045 16.4385 34.2045H14.518L14.5184 9.10814C14.5184 8.42066 15.0776 7.86175 15.765 7.86175H18.8874C18.9789 8.57865 19.591 9.13442 20.3307 9.13442H30.6893C31.4286 9.13442 32.0411 8.5787 32.1326 7.86175H34.2356C34.9231 7.86175 35.482 8.42063 35.482 9.10814V13.6941H32.7101C32.2977 13.6941 31.9623 14.0294 31.9623 14.4418V17.0725C31.9623 17.485 32.2977 17.8203 32.7101 17.8203H35.482V44.8963C35.482 45.5817 34.9231 46.1391 34.2356 46.1391L15.7645 46.1388C15.077 46.1388 14.5179 45.5813 14.5179 44.896L14.5182 42.5544ZM12.5322 11.5754C12.3559 11.5796 12.2193 11.4717 12.1692 11.3116L11.9162 10.5043C11.8973 10.444 11.8493 10.3974 11.7883 10.3806C11.4852 10.2965 11.2042 10.1844 10.9536 10.047C10.8976 10.0162 10.8293 10.0165 10.7732 10.0481L10.0318 10.465C9.88916 10.5463 9.70661 10.5218 9.58747 10.4079L9.01879 9.85395C8.90141 9.73903 8.87268 9.55682 8.94907 9.4114L9.3436 8.66367C9.37339 8.60761 9.37198 8.53998 9.3408 8.48497C9.19539 8.22883 9.06925 7.94151 8.97674 7.65314C8.95782 7.59358 8.90982 7.54767 8.84955 7.53085L8.03489 7.3038C7.87616 7.25931 7.76369 7.11284 7.76123 6.94816L7.75002 6.15523C7.74756 5.98844 7.85233 5.84268 8.01 5.79257L8.82117 5.53959C8.88213 5.52067 8.92943 5.47161 8.94555 5.40959C9.01843 5.13489 9.12881 4.86088 9.28333 4.57145C9.31346 4.51504 9.31241 4.44671 9.28053 4.39135L8.8611 3.66009C8.77806 3.51117 8.80049 3.33071 8.91787 3.21053L9.46903 2.64044C9.58396 2.52096 9.76721 2.49117 9.91333 2.56791L10.6614 2.96631C10.7185 2.99714 10.7879 2.99539 10.8433 2.96245C11.0931 2.81459 11.3629 2.69615 11.6681 2.5991C11.7276 2.58052 11.7736 2.53287 11.7907 2.47296L12.022 1.65724C12.0668 1.49852 12.2129 1.38604 12.3776 1.38358L13.1741 1.37237C13.3328 1.37167 13.4873 1.47819 13.5367 1.63552L13.7862 2.44317C13.8027 2.49713 13.843 2.54057 13.8959 2.5616L14.774 2.90744C14.8262 2.92776 14.885 2.92391 14.9337 2.89623L15.671 2.47926C15.8143 2.39762 15.9972 2.42075 16.1153 2.53638L16.6839 3.09035C16.8052 3.20913 16.8336 3.38608 16.754 3.5329L16.3595 4.28098C16.3293 4.33774 16.3311 4.40642 16.3633 4.46178C16.4699 4.64434 16.5631 4.84196 16.6394 5.04939C16.6678 5.12718 16.6962 5.20532 16.7211 5.29046C16.739 5.35248 16.7877 5.40049 16.85 5.41765L17.6682 5.6447C17.8269 5.6892 17.9394 5.83532 17.9418 6.00035L17.9464 6.29888H15.7652C15.446 6.29888 15.1296 6.35354 14.8353 6.4569C14.7912 5.38678 13.8907 4.52906 12.823 4.55355C11.7207 4.57002 10.8481 5.47827 10.8685 6.56867C10.8745 7.09846 11.0879 7.59395 11.4691 7.96396C11.8422 8.32592 12.3356 8.53159 12.8864 8.52354C12.9365 8.52214 12.9814 8.51688 13.0276 8.51268C12.9849 8.70574 12.9555 8.90337 12.9555 9.10764V11.5695L12.5322 11.5754ZM13.1387 8.12341C12.6107 8.22327 12.1005 8.05963 11.7277 7.69768C11.418 7.39704 11.2449 6.9948 11.24 6.56342C11.2231 5.66851 11.9407 4.93939 12.8279 4.92603C13.7071 4.90956 14.4527 5.62471 14.466 6.51121C14.466 6.55011 14.4625 6.5869 14.4604 6.62439C13.85 6.94499 13.377 7.48215 13.1388 8.12337L13.1387 8.12341ZM13.3272 9.10832C13.3272 7.77331 14.4113 6.67134 15.7645 6.67134H18.1378H34.2354C35.5791 6.67134 36.6724 7.7646 36.6724 9.10832V13.6942H35.8538V9.10832C35.8538 8.21587 35.1278 7.48985 34.2354 7.48985H31.9582C31.8555 7.48985 31.7721 7.57289 31.7721 7.67591C31.7721 8.27508 31.2861 8.76245 30.6894 8.76245L20.3308 8.7621C19.7338 8.7621 19.2481 8.2747 19.2481 7.67556C19.2481 7.5729 19.1651 7.4895 19.0621 7.4895H15.7652C14.8728 7.4895 14.1468 8.21552 14.1468 9.10797V34.2043H13.3282L13.3272 9.10832ZM9.68035 41.335V35.4242C9.68035 34.9567 10.0605 34.5769 10.5276 34.5769H16.4384C16.9058 34.5769 17.2857 34.9571 17.2857 35.4242V41.335C17.2857 41.8024 16.9055 42.1822 16.4384 42.1822L10.5276 42.1826C10.0605 42.1826 9.68035 41.8024 9.68035 41.335ZM37.0443 30.4005C37.0983 30.3963 37.1519 30.3889 37.2052 30.3882C38.4182 30.3882 39.4165 31.3648 39.4368 32.5789C39.454 33.8084 38.4676 34.8256 37.236 34.8463C37.1772 34.848 37.1088 34.8382 37.044 34.8329L37.0443 30.4005ZM37.6365 25.618C37.8881 25.6114 38.1113 25.7754 38.1838 26.0154L38.5188 27.0981C38.5353 27.1517 38.5756 27.1951 38.6281 27.2161L39.8114 27.685C39.8636 27.7056 39.9228 27.7014 39.9719 27.6738L40.9571 27.1121C41.1772 26.9877 41.4547 27.0231 41.6327 27.1986L42.3958 27.9432C42.5752 28.117 42.619 28.3921 42.502 28.6125L41.9736 29.617C41.9438 29.6734 41.9452 29.7414 41.9771 29.7968C42.1271 30.056 42.2525 30.3241 42.3506 30.5939C42.3906 30.7032 42.427 30.8129 42.4638 30.9257C42.4827 30.9853 42.5307 31.0308 42.591 31.0477L43.6884 31.3528C43.927 31.4194 44.0973 31.6412 44.1029 31.8907L44.1176 32.9583C44.1204 33.2071 43.9575 33.4313 43.7196 33.5042L42.6369 33.843C42.6082 33.8518 42.5784 33.8714 42.557 33.8928C42.5349 33.9145 42.5192 33.9415 42.5101 33.9713C42.4778 34.0806 42.4487 34.1815 42.4197 34.2688C42.3244 34.5445 42.2024 34.8298 42.0574 35.116C42.0293 35.1717 42.0307 35.2376 42.0616 35.2916L42.6204 36.279C42.7455 36.4962 42.7115 36.766 42.5363 36.9496L41.7925 37.7198C41.6183 37.8988 41.3436 37.943 41.1236 37.826L40.1151 37.2941C40.0591 37.2643 39.9915 37.2657 39.9361 37.2972C39.5738 37.5043 39.195 37.6676 38.8103 37.7825C38.7489 37.8007 38.7016 37.8494 38.6845 37.9111L38.3793 39.0085C38.3117 39.251 38.0951 39.4174 37.8414 39.423L37.0443 39.4342V35.2071C37.1263 35.2124 37.1386 35.2215 37.2444 35.2183C38.6785 35.1945 39.8286 34.0081 39.8089 32.5732C39.7851 31.1555 38.6204 30.0161 37.2076 30.0161C37.1536 30.0157 37.099 30.0245 37.0443 30.0283V25.6267L37.6365 25.618ZM36.6722 44.8964C36.6722 46.2381 35.579 47.3299 34.2353 47.3299H15.7642C14.4204 47.3299 13.3268 46.2381 13.3268 44.8964V42.5548H14.1453V44.8964C14.1453 45.7868 14.8717 46.5114 15.7638 46.5114H34.234C35.1264 46.5114 35.8525 45.7871 35.8525 44.8964L35.8528 17.8204H36.6713C36.6717 27.1564 36.6717 34.7029 36.6717 44.8964H36.6722ZM47.813 17.0732C47.813 17.2803 47.6445 17.4488 47.4374 17.4488H43.6367V14.0668H47.4374C47.6445 14.0668 47.813 14.2354 47.813 14.4424V17.0732Z" stroke="#002695" stroke-width="0.4" mask="url(#path-13-outside-1_77_477)"/>
<path d="M10.6109 36.5721H16.3559C16.5137 36.5721 16.642 36.4445 16.642 36.2861C16.642 36.1283 16.5143 36 16.3559 36H10.6109C10.4531 36 10.3248 36.1277 10.3248 36.2861C10.3248 36.4439 10.4525 36.5721 10.6109 36.5721Z" fill="#002695" stroke="#002695" stroke-width="0.2"/>
<path d="M16.6419 37.6812C16.6419 37.5234 16.5142 37.3952 16.3558 37.3952H10.6108C10.453 37.3952 10.3247 37.5229 10.3247 37.6812C10.3247 37.839 10.4524 37.9673 10.6108 37.9673H16.3558C16.5136 37.9673 16.6419 37.8396 16.6419 37.6812Z" fill="#002695" stroke="#002695" stroke-width="0.2"/>
<path d="M15.1614 38.7905H14.0296C13.8719 38.7905 13.7436 38.9182 13.7436 39.0765C13.7436 39.2343 13.8713 39.3626 14.0296 39.3626H15.1614C15.3191 39.3626 15.4474 39.2349 15.4474 39.0765C15.4474 38.9187 15.3193 38.7905 15.1614 38.7905Z" fill="#002695" stroke="#002695" stroke-width="0.2"/>
<path d="M13.1 38.7905H10.6109C10.4531 38.7905 10.3248 38.9182 10.3248 39.0765C10.3248 39.2343 10.4525 39.3626 10.6109 39.3626H13.1C13.2578 39.3626 13.3861 39.2349 13.3861 39.0765C13.3861 38.9188 13.2584 38.7905 13.1 38.7905Z" fill="#002695" stroke="#002695" stroke-width="0.2"/>
<path d="M12.9287 40.1862H10.6102C10.4524 40.1862 10.3241 40.3139 10.3241 40.4723C10.3241 40.63 10.4518 40.7583 10.6102 40.7583H12.9287C13.0865 40.7583 13.2148 40.6306 13.2148 40.4723C13.2148 40.314 13.087 40.1862 12.9287 40.1862Z" fill="#002695" stroke="#002695" stroke-width="0.2"/>
</svg>
