<svg width="24" height="25" viewBox="0 0 24 25" fill="none" xmlns="http://www.w3.org/2000/svg">
<path d="M9.44937 15.4356C10.1026 15.4356 10.6321 14.9061 10.6321 14.2528C10.6321 13.5996 10.1026 13.0701 9.44937 13.0701C8.79614 13.0701 8.2666 13.5996 8.2666 14.2528C8.2666 14.9061 8.79614 15.4356 9.44937 15.4356Z" fill="white" fill-opacity="0.85"/>
<path d="M8.2666 10.0647V11.6002C10.3826 11.6002 12.1025 13.3201 12.1025 15.436H13.6379C13.6379 12.4683 11.2344 10.0647 8.2666 10.0647ZM8.2666 6.9939V8.52932C12.0808 8.52932 15.1733 11.6219 15.1733 15.436H16.7087C16.7087 10.7755 12.9271 6.9939 8.2666 6.9939Z" fill="white" fill-opacity="0.85"/>
<circle cx="12.0645" cy="12.1808" r="11.3936" stroke="white" stroke-opacity="0.85" stroke-width="1.08511"/>
</svg>
